<?xml version="1.0" encoding="UTF-8" standalone="no"?>
<!-- Created with Inkscape (http://www.inkscape.org/) -->

<svg
   xmlns:dc="http://purl.org/dc/elements/1.1/"
   xmlns:cc="http://creativecommons.org/ns#"
   xmlns:rdf="http://www.w3.org/1999/02/22-rdf-syntax-ns#"
   xmlns:svg="http://www.w3.org/2000/svg"
   xmlns="http://www.w3.org/2000/svg"
   xmlns:sodipodi="http://sodipodi.sourceforge.net/DTD/sodipodi-0.dtd"
   xmlns:inkscape="http://www.inkscape.org/namespaces/inkscape"
   width="596.97235"
   height="651.32416"
   id="svg2"
   version="1.1"
   inkscape:version="0.91 r13725"
   sodipodi:docname="BFS.svg"
   inkscape:export-filename="/home/jens/Pictures/BFSFUH.png"
   inkscape:export-xdpi="90"
   inkscape:export-ydpi="90">
  <defs
     id="defs4">
    <inkscape:path-effect
       effect="skeletal"
       id="path-effect3140"
       is_visible="true"
       pattern="m 6.1e-4,114.42115 0,-28.015471 2.77381,0 c 2.17957,0 2.77381,0.19127 2.77381,0.89284 0,0.7298 0.37986,0.82306 2.08035,0.51074 1.1442,-0.21015 6.63656,-0.50693 12.20526,-0.65952 9.97964,-0.27345 10.12946,-0.29563 10.44322,-1.54574 0.17507,-0.69757 0.2701,-1.6139 0.21116,-2.03629 -0.26096,-1.87011 0.0722,-2.15489 2.52072,-2.15489 l 2.496431,0 0,-3.62161 0,-3.6216 7.62798,0.15434 7.62797,0.15435 0.15352,8.18274 0.15352,8.18273 4.94191,0 c 2.71806,0 5.64469,-0.28995 6.50363,-0.64434 0.85894,-0.35439 1.74894,-0.60404 1.97778,-0.55476 0.22884,0.0493 0.41607,-0.10511 0.41607,-0.34306 0,-0.23795 1.2323,-0.91083 2.73844,-1.4953 2.20119,-0.85419 2.92696,-1.48074 3.69937,-3.19365 0.9127,-2.024 0.91142,-2.47116 -0.0255,-8.90649 -2.78234,-19.11043 -2.79624,-18.67469 0.6228,-19.53502 l 2.20469,-0.55476 0.15339,-3.60595 c 0.0844,-1.98327 0.23139,-4.23006 0.32674,-4.99286 0.0953,-0.76279 0.22695,-3.00958 0.29246,-4.99285 l 0.11911,-3.60596 0.47075,2.77381 c 0.2589,1.5256 0.62277,5.43077 0.8086,8.67816 l 0.33786,5.90435 3.55077,0.38025 c 3.53402,0.37846 4.71826,1.02358 3.717,2.02483 -0.45274,0.45275 -3.10983,0.8726 -6.35629,1.00437 -0.67425,0.0274 -1.12328,0.91876 -1.62592,3.22769 l -0.69443,3.18988 -0.41638,-2.69065 c -0.63112,-4.07819 -0.82528,-4.40171 -2.20008,-3.66593 -1.34346,0.719 -1.32082,1.1659 0.66781,13.18235 0.64109,3.8738 1.17476,8.56851 1.18592,10.43268 l 0.0203,3.38941 3.60846,2.43559 c 1.98465,1.33958 3.85915,2.35998 4.16557,2.26755 0.30641,-0.0924 2.01534,-0.17503 3.79761,-0.18355 l 3.24051,-0.0155 0,-9.5775 c 0,-8.41688 0.11764,-9.68397 0.97083,-10.45609 0.53396,-0.48322 1.22047,-0.92817 1.52559,-0.98876 0.30512,-0.0606 0.86682,-0.22991 1.24822,-0.37626 0.3814,-0.14636 1.13033,-0.0664 1.66428,0.17761 0.53396,0.24405 1.3453,0.45813 1.80298,0.47573 0.70255,0.027 0.85573,1.61716 0.98356,10.21058 0.13317,8.95209 0.25562,10.13859 1.01621,9.84673 0.47563,-0.18253 1.10468,-0.33186 1.39789,-0.33186 0.317749,0 0.476049,-2.5212 0.391849,-6.24107 l -0.14125,-6.24107 8.30027,-0.40943 c 7.73005,-0.3813 15.32247,-0.17351 17.59254,0.48146 0.77109,0.22249 0.97084,0.90018 0.97084,3.29393 l 0,3.0138 6.13753,0 6.13753,0 -0.17384,1.80298 c -0.13324,1.38188 -0.46537,1.84438 -1.42206,1.98025 -0.88518,0.12571 -1.24821,0.55193 -1.24821,1.46545 0,1.57672 -1.3083,2.00788 -7.4837,2.46632 -3.62345,0.26899 -4.46627,0.50626 -4.61747,1.29988 -0.12814,0.67262 0.16936,0.97084 0.96849,0.97084 1.10604,0 1.13854,0.19377 0.79098,4.71547 -0.26047,3.388541 -0.18332,4.715481 0.27414,4.715481 0.42592,0 0.63661,1.46882 0.63661,4.43809 l 0,4.4381 -3.0512,0 c -1.67815,0 -3.05119,0.22294 -3.05119,0.49541 0,0.8355 1.57574,1.15945 4.03508,0.82955 1.28958,-0.17299 3.21844,-0.3815 4.28635,-0.46336 1.06792,-0.0819 2.22149,-0.18439 2.5635,-0.22784 0.4402,-0.0559 0.47625,-0.84869 0.12343,-2.71412 -2.12039,-11.210751 -2.18444,-11.905531 -1.16606,-12.650181 0.53218,-0.38915 0.99378,-1.04102 1.02577,-1.44862 0.032,-0.40759 0.0962,-1.30278 0.14268,-1.98929 0.0826,-1.21996 0.23428,-1.24822 6.70201,-1.24822 5.14255,0 6.80299,0.18548 7.44966,0.83214 0.61024,0.61024 2.10017,0.83215 5.58724,0.83215 4.70227,0 4.75511,-0.0154 4.75511,-1.38691 l 0,-1.3869 6.15431,0 c 5.59123,0 6.17967,0.0969 6.43143,1.05966 0.2435,0.93113 0.9942,1.10056 6.18914,1.39692 6.12241,0.34926 10.45224,1.39749 10.21143,2.47212 -0.091,0.40613 1.10108,0.61892 3.46726,0.61892 2.70852,0 3.60595,0.1919 3.60595,0.77107 0,0.42409 -0.49929,3.197641 -1.10952,6.163451 -0.61024,2.96581 -1.10953,5.61454 -1.10953,5.88607 0,0.27153 0.86558,0.49369 1.9235,0.49369 l 1.9235,0 0.15686,-6.24107 0.15686,-6.241071 2.9125,-0.16768 c 1.60187,-0.0922 2.9437,-0.40428 2.98184,-0.69345 0.0382,-0.28918 0.10055,-0.83783 0.13869,-1.21923 0.0382,-0.3814 0.93202,-0.97228 1.9864,-1.31306 1.05438,-0.34079 2.01134,-0.90249 2.12659,-1.24822 0.13902,-0.41713 2.24711,-0.62862 6.26567,-0.62862 l 6.05615,0 0,9.050821 0,9.05083 1.96049,0.93489 c 1.07827,0.51418 2.07684,0.93489 2.21905,0.93489 0.14221,0 0.25856,-8.43793 0.25856,-18.750951 0,-14.19375 -0.16741,-18.91837 -0.68882,-19.43977 -0.54858,-0.54858 -0.53632,-0.78306 0.0602,-1.15172 0.55665,-0.34403 0.69793,-1.60271 0.55013,-4.90126 l -0.19887,-4.43835 2.65735,-2.84231 c 2.46033,-2.63158 3.71393,-3.44739 3.72824,-2.42624 0.003,0.22884 1.07764,1.84356 2.38762,3.58826 2.30896,3.07519 2.37775,3.2862 2.24958,6.90024 -0.0727,2.05044 0.13686,4.23084 0.46574,4.84535 0.43579,0.81428 0.42593,1.17462 -0.0363,1.32872 -0.6942,0.2314 -0.91883,20.52423 -0.29364,26.527481 l 0.34065,3.27126 6.59502,-0.27738 c 4.4155,-0.18571 6.59464,-0.0847 6.59385,0.30553 -0.002,0.77104 4.90906,3.13959 5.61046,2.7061 0.30051,-0.18572 0.54474,-2.12512 0.54274,-4.30977 -0.006,-6.992651 0.78522,-13.359461 1.59857,-12.856771 0.98609,0.60944 1.59924,5.97359 1.80821,15.819201 l 0.14719,6.93452 3.18988,0.16637 3.18988,0.16638 0,-19.134231 c 0,-12.19214 -0.20182,-19.25896 -0.55626,-19.47802 -0.37185,-0.22981 -0.37185,-0.68838 0,-1.38317 0.30594,-0.57166 0.55626,-2.94708 0.55626,-5.27871 0,-4.1999 0.0242,-4.27079 2.60422,-7.6237 l 2.60421,-3.38437 2.81555,3.14801 2.81555,3.148 -0.21352,4.22824 c -0.15464,3.06243 -0.0145,4.35124 0.50825,4.67432 0.52805,0.32635 0.56009,0.64355 0.11938,1.18181 -0.39212,0.47892 -0.72703,7.56173 -0.95946,20.29109 -0.31797,17.413521 -0.26327,19.555361 0.49937,19.555361 0.72828,0 0.85645,-1.08205 0.85645,-7.23061 l 0,-7.230621 1.94166,-1.14561 c 1.06792,-0.63008 1.9383,-1.55782 1.93418,-2.06165 -0.004,-0.50382 0.54155,-3.00806 1.21261,-5.56499 l 1.22011,-4.64896 1.25792,4.64896 c 0.69186,2.55693 1.26957,5.08583 1.28381,5.61979 0.0346,1.29651 1.74603,1.24792 4.43924,-0.12606 2.48036,-1.26539 2.6953,-1.92701 2.88766,-8.88882 0.0717,-2.59351 0.32388,-4.8509 0.56051,-5.01642 0.23662,-0.16552 1.8548,-5.47549 3.59597,-11.79993 1.74117,-6.32444 3.33564,-11.30669 3.54327,-11.07168 0.20764,0.23502 1.71793,5.34217 3.35622,11.34922 1.63828,6.00705 3.13372,10.67108 3.32318,10.36453 0.45185,-0.73111 1.06509,5.25804 1.06509,10.40213 0,3.95857 0.0438,4.08771 1.66964,4.92849 0.9183,0.47488 2.51946,0.80618 3.55812,0.73622 1.63854,-0.11034 1.92462,-0.35122 2.16155,-1.81999 0.36971,-2.29188 2.14689,-8.707 2.35458,-8.49931 0.39866,0.39865 2.46087,8.85588 2.46087,10.09214 0,0.75039 0.23811,1.51152 0.52912,1.69138 0.29102,0.17985 0.69773,1.817271 0.90381,3.638691 0.6217,5.49513 1.34088,3.73263 1.34088,-3.286121 0,-7.09723 0.0741,-7.27125 3.09656,-7.27125 0.88535,0 1.36159,-0.33014 1.4005,-0.97084 0.12301,-2.0251 0.76185,-6.61333 2.45245,-17.61369 0.42203,-2.74607 0.91919,-6.86518 1.1048,-9.15357 0.18561,-2.28839 0.56132,-6.03304 0.83491,-8.32143 1.38237,-11.56274 2.39857,-30.32742 1.66687,-30.77963 -0.63047,-0.38966 -0.75755,-2.48233 -0.23364,-3.84761 0.43556,-1.13505 2.21954,-1.13505 2.6551,0 0.55859,1.45565 0.37869,4.11534 -0.27835,4.11534 -0.42789,0 -0.51731,1.47733 -0.29382,4.85416 0.1767,2.66979 0.5004,7.72506 0.71934,11.23393 0.21893,3.50887 0.43795,6.62941 0.48669,6.93453 0.0488,0.30511 0.12666,1.46437 0.17314,2.57613 l 0.0845,2.02137 2.21904,-0.56326 c 1.98086,-0.50279 2.22361,-0.74954 2.2615,-2.29875 0.0233,-0.95452 0.12396,-2.15798 0.2236,-2.67435 0.38726,-2.00701 0.84095,-7.70088 1.18499,-14.87186 0.19762,-4.11911 0.51815,-9.11196 0.71228,-11.09524 0.26228,-2.67948 0.14257,-3.983 -0.46592,-5.07348 -0.65886,-1.18075 -0.69022,-1.74991 -0.16051,-2.9125 0.75707,-1.66159 2.09195,-1.88942 2.77805,-0.47414 0.64345,1.3273 0.41684,3.49766 -0.41915,4.01433 -0.46437,0.287 -0.57129,1.12355 -0.32899,2.57417 0.19742,1.18195 0.4592,4.52061 0.58174,7.41924 0.26625,6.2984 0.86252,15.33826 1.12208,17.0113 0.10244,0.66033 0.3619,3.53122 0.57657,6.37977 0.21467,2.84854 0.46753,5.80328 0.56191,6.56608 0.0944,0.76279 0.1888,2.07342 0.20982,2.9125 0.0638,2.54684 0.92937,1.71246 1.67366,-1.61337 0.38635,-1.72643 1.0079,-4.0212 1.38122,-5.09949 l 0.67875,-1.96053 1.33045,5.09949 c 0.73176,2.80472 1.52297,5.09949 1.75826,5.09949 0.23528,0 0.47049,-1.43545 0.52268,-3.18988 0.0522,-1.75443 0.13284,-3.56435 0.17921,-4.02202 0.0464,-0.45768 0.27678,-2.82929 0.51202,-5.27024 0.23523,-2.44095 0.50674,-5.09195 0.60335,-5.89109 0.0966,-0.79915 0.35266,-5.04308 0.56902,-9.43095 0.21635,-4.38788 0.57372,-9.85028 0.79414,-12.13868 0.31046,-3.22315 0.23299,-4.26068 -0.34379,-4.60435 -1.79378,-1.06881 -0.23871,-5.38984 1.67538,-4.65534 1.11908,0.42944 1.45612,3.6401 0.48415,4.61207 -0.57363,0.57363 -0.69151,1.38774 -0.41459,2.86327 0.21282,1.13395 0.47803,4.55816 0.58934,7.60935 0.31743,8.70045 1.44704,22.6249 1.94088,23.92464 0.48899,1.28697 3.81257,2.15974 4.15005,1.0898 0.36238,-1.1489 1.34809,-16.55817 1.0863,-16.98176 -0.14441,-0.23366 0.0138,-2.47871 0.35168,-4.989 0.42928,-3.18978 0.4383,-4.67288 0.03,-4.92525 -0.96653,-0.59735 -1.14313,-3.07596 -0.30121,-4.22737 0.61976,-0.84757 0.99325,-0.95033 1.7445,-0.48 1.1599,0.72618 1.5556,3.31309 0.67001,4.38016 -0.67611,0.81467 0.0341,18.36029 1.12232,27.72783 0.28358,2.44095 0.77497,7.68345 1.092,11.65 0.66719,8.34772 3.28155,24.87752 3.9776,25.14921 0.68138,0.26597 0.58597,3.42103 -0.10345,3.42103 -0.36609,0 -0.51827,1.67171 -0.41607,4.57065 0.1742,4.941741 0.50964,5.380441 3.53357,4.621481 1.14361,-0.28703 1.34303,-0.66986 1.34303,-2.578301 0,-1.35287 0.21988,-2.10532 0.55476,-1.89835 0.30512,0.18857 0.55476,0.82741 0.55476,1.41964 0,0.77873 0.3839,1.07678 1.38691,1.07678 1.01706,0 1.3869,-0.29587 1.3869,-1.10952 0,-0.92863 0.38441,-1.11665 2.35774,-1.15323 5.92951,-0.10991 9.58693,0.17627 9.97108,0.7802 0.26963,0.42389 0.41668,0.3009 0.42221,-0.35316 0.004,-0.55197 0.25814,-0.84929 0.56326,-0.66071 0.30512,0.18857 0.55476,0.82741 0.55476,1.41964 0,0.59223 0.34535,1.07678 0.76744,1.07678 0.42209,0 0.89164,0.474951 1.04344,1.055441 0.21645,0.8277 0.73729,1.03718 2.41389,0.97083 2.02144,-0.08 2.15631,-0.19824 2.47618,-2.171081 0.35039,-2.16115 1.0318,-3.40523 1.11079,-2.02801 0.18095,3.155531 0.34634,3.948061 0.89458,4.286891 0.34254,0.2117 0.78965,1.27428 0.99356,2.36128 0.55417,2.95394 0.88402,3.25601 3.06583,2.80764 2.25118,-0.46262 2.10845,0.60467 2.17447,-16.260481 0.0364,-9.30493 0.0955,-9.82776 1.14792,-10.16179 0.70894,-0.22501 1.10952,-0.83937 1.10952,-1.70167 0,-1.30703 0.12829,-1.34952 4.07473,-1.34952 4.2578,0 5.91098,0.82132 5.91098,2.93666 0,0.4992 0.49929,1.17484 1.10953,1.50143 0.71998,0.38533 1.10952,1.16157 1.10952,2.211 0,0.92781 0.39126,1.83617 0.91784,2.13085 0.82813,0.46345 0.88745,1.82179 0.6069,13.896621 l -0.31095,13.38296 2.4443,0 c 1.34437,0 2.4443,-0.24964 2.4443,-0.55476 0,-0.30512 0.77165,-0.55476 1.71478,-0.55476 l 1.71478,0 -0.18919,-5.82562 c -0.14156,-4.35917 -0.0165,-5.82547 0.49683,-5.825 0.79338,5.5e-4 2.50801,-3.757561 2.05137,-4.496411 -0.16853,-0.27271 0.23429,-0.49583 0.89518,-0.49583 0.85806,0 1.10716,0.24616 0.87124,0.86096 -0.18171,0.47352 -0.0998,0.71843 0.18209,0.54423 0.28186,-0.1742 0.59106,0.49935 0.68711,1.49678 0.13132,1.363871 0.44136,1.813981 1.25046,1.815441 1.00697,0.002 1.06636,0.3836 0.92765,5.96369 -0.14068,5.65939 -0.0914,5.96176 0.97177,5.96176 0.61598,0 1.27426,0.24964 1.46283,0.55476 0.18858,0.30512 1.22238,0.55476 2.29733,0.55476 l 1.95447,0 -0.12777,-37.307741 c -0.0703,-20.51925 0.0608,-40.92756 0.29124,-45.35178 0.3944,-7.57141 0.58053,-8.5416 3.16783,-16.51216 2.58731,-7.9705897 2.911,-8.6302897 5.50937,-11.2286697 3.32217,-3.32215999 4.96492,-3.86202999 7.53694,-2.47690999 3.91194,2.10672999 5.87164,5.04060999 8.69769,13.02144969 2.77576,7.83882 2.8125,8.07709 3.93509,25.51772 0.14729,2.28839 0.44248,19.38892 0.65598,38.00119 0.21349,18.61226 0.40817,34.339761 0.43262,34.950001 0.0377,0.94045 0.48827,1.13507 2.95695,1.2772 l 2.9125,0.16769 0,-36.695971 0,-36.69597 9.29226,0.19138 9.29226,0.19138 0.14316,32.65011 0.14314,32.650111 2.0759,-0.3101 c 1.14175,-0.17055 3.48255,-0.61946 5.20178,-0.99757 l 3.12588,-0.68747 0.21921,-16.355861 c 0.16371,-12.21621 0.39053,-16.41297 0.89614,-16.58151 0.37231,-0.1241 0.67694,-0.82895 0.67694,-1.56632 0,-1.20884 0.2455,-1.34749 2.49643,-1.41002 1.37303,-0.0382 3.05812,-0.11124 3.74464,-0.16245 1.68041,-0.12533 3.18988,0.83505 3.18988,2.02953 0,0.79341 0.49315,0.97767 2.63512,0.98457 1.44931,0.004 2.88516,0.1919 3.19076,0.41607 1.17931,0.86504 1.92989,3.32482 2.0711,6.78734 l 0.14707,3.60595 2.77381,0.14497 c 3.90338,0.204 5.27024,0.58879 5.27024,1.48366 0,0.42644 0.26173,0.86259 0.58164,0.96922 0.38161,0.1272 0.57941,4.24506 0.57514,11.97361 -0.003,6.478861 0.17729,11.779731 0.40192,11.779731 0.22463,0 0.47261,-2.42072 0.55106,-5.37937 0.0784,-2.958651 0.27334,-5.510081 0.43309,-5.669841 0.15976,-0.15975 1.16879,-0.21478 2.2423,-0.1223 1.58783,0.1368 2.00818,-0.0473 2.25399,-0.9873 0.26925,-1.02961 0.71811,-1.15547 4.1208,-1.15547 l 3.81863,0 0,-16.92024 c 0,-14.67037 0.11067,-16.92024 0.83214,-16.92024 0.45768,0 0.83214,-0.37446 0.83214,-0.83214 0,-0.66572 0.83215,-0.83215 4.16072,-0.83215 2.55856,0 4.16071,-0.22623 4.16071,-0.5875 0,-0.32313 0.2163,-0.45383 0.48065,-0.29046 0.98714,0.61012 2.38497,-1.79493 2.28506,-3.93163 -0.0549,-1.16871 -0.0752,-2.81145 -0.0455,-3.65052 l 0.0536,-1.5256 7.76667,0 7.76666,0 0,17.93977 c 0,9.86688 0.16482,24.34616 0.36631,32.1762 l 0.36637,14.236411 1.5753,0 1.57536,0 0,-35.706221 0,-35.70623 4.71292,-0.93597 c 4.61817,-0.91716 4.80502,-0.91153 9.29226,0.27984 2.51862,0.66869 4.8914,1.46075 5.27279,1.76012 0.51848,0.40697 0.69346,3.7275 0.69346,13.15953 l 0,12.61522 3.00398,0.35306 c 4.71392,0.55403 4.76268,0.59791 4.76268,4.28543 l 0,3.2575 8.46012,-0.0548 c 4.65307,-0.0302 9.5211,-0.0249 10.81786,0.0117 l 2.35774,0.0666 0,6.51115 0,6.51115 2.63162,-2.6316 2.63157,-2.6316 0.20327,-12.20098 0.20332,-12.20098 2.15796,0 c 1.65636,0 2.17567,-0.22566 2.23409,-0.97083 0.16742,-2.1356 0.42994,-11.39468 0.53872,-19.0006 l 0.11506,-8.04405 0.47871,7.76667 c 0.26329,4.27167 0.4782,10.58503 0.47754,14.02969 0,4.63821 0.17597,6.24028 0.68191,6.17534 2.00474,-0.25731 2.02732,-0.1295 2.18848,12.38723 0.13403,10.40941 0.31222,12.66942 1.13721,14.42381 0.53806,1.1442 0.73489,2.08036 0.43748,2.08036 -0.29746,0 -0.80973,-0.99857 -1.13837,-2.21905 -0.32864,-1.22048 -0.89994,-2.21522 -1.26957,-2.21055 -1.72903,0.0218 -1.9612,0.9139 -1.95204,7.50034 l 0.009,6.67159 3.27043,-0.0645 c 2.32878,-0.0459 3.27049,0.1409 3.27049,0.64889 0,0.39238 0.43687,0.994311 0.97083,1.337631 0.90865,0.58423 0.9092,0.60509 0.008,0.32559 -0.93782,-0.291 -1.00401,0.20997 -0.48652,3.68211 0.0338,0.22884 0.47515,0.41607 0.98015,0.41607 0.84163,0 0.83863,-0.0878 -0.0361,-1.05444 -0.66755,-0.73765 -0.76563,-1.17103 -0.32642,-1.44246 0.34528,-0.21341 0.77761,-0.23819 0.96073,-0.0551 0.18313,0.18312 -0.0205,0.34087 -0.45296,0.35058 -0.65401,0.0147 -0.64624,0.13109 0.0461,0.69345 0.45768,0.37169 1.30835,1.61197 1.89035,2.75617 0.582,1.14419 1.26824,2.08035 1.52498,2.08035 0.25675,0 0.40465,1.06099 0.3287,2.35774 -0.12776,2.1819 -0.0344,2.35774 1.24882,2.35774 1.42286,0 1.59955,-0.56913 0.86122,-2.77381 -0.20443,-0.61024 0.14828,-0.17336 0.78376,0.97083 0.63543,1.1442 1.399,2.08036 1.69685,2.08036 0.3383,0 0.54151,5.41312 0.54151,14.42381 l 0,14.42381 -332.85715,0 -332.85714,0 0,-28.01548 z M 629.96937,97.996449 c 0.2644,-0.42782 0.52147,-0.38577 0.84795,0.13869 0.39028,0.62706 0.66616,0.63011 1.65297,0.0183 0.65151,-0.40392 1.01882,-0.46633 0.81633,-0.13869 -0.68014,1.10055 1.54673,0.61395 2.98617,-0.6525 l 1.4187,-1.24821 -1.05283,1.24821 -1.05288,1.24822 5.65607,0 5.65608,0 -0.12394,-2.35774 c -0.0682,-1.29676 -0.63997,-3.10667 -1.27068,-4.02202 -1.18331,-1.71738 -1.56809,-2.7068 -1.62745,-4.18517 -0.0189,-0.47113 -0.43887,-1.28258 -0.93316,-1.80322 -0.84319,-0.88813 -0.98759,-0.84692 -2.33627,0.66674 -0.79059,0.88736 -1.26885,1.80124 -1.0627,2.03086 0.20609,0.22962 0.096,0.25852 -0.2446,0.0642 -0.90653,-0.51708 -2.54031,1.54079 -2.41599,3.04319 0.17725,2.14245 0.0205,2.67978 -0.78032,2.67978 -0.42046,0 -1.1766,0.5617 -1.68032,1.24822 l -0.91586,1.24821 0.59032,-1.24821 c 0.58383,-1.2345 0.54572,-1.24822 -3.46892,-1.24822 -3.9711,0 -4.06186,0.0313 -4.17864,1.4425 -0.0656,0.79337 0.0194,1.66712 0.18912,1.94166 0.43599,0.70545 2.87589,0.62135 3.33085,-0.11481 z m 16.82476,-9.09434 0.0625,-4.16072 -1.96302,0 c -1.77235,0 -1.90694,0.10476 -1.38574,1.07863 0.31749,0.59325 0.82965,1.2346 1.13809,1.42524 0.30845,0.19063 0.40381,0.60069 0.21187,0.91122 -0.28526,0.46161 1.2922,4.90634 1.74134,4.90634 0.0728,0 0.16055,-1.87232 0.19494,-4.16071 z M 362.08982,58.262069 c -0.14066,-0.53977 -0.26499,-0.23246 -0.2763,0.68289 -0.0113,0.91536 0.10378,1.35698 0.25574,0.98139 0.15196,-0.37559 0.16121,-1.12451 0.0206,-1.66428 z m -26.91794,-1.81353 c 0.11639,-1.22048 0.0178,-2.21905 -0.21911,-2.21905 -0.2369,0 -0.43073,0.99857 -0.43073,2.21905 0,1.22047 0.0986,2.21904 0.21911,2.21904 0.12051,0 0.31434,-0.99857 0.43073,-2.21904 z m 27.64302,-0.83215 c 0,-0.7628 -0.1952,-1.3869 -0.43377,-1.3869 -0.23857,0 -0.48541,0.6241 -0.54855,1.3869 -0.0631,0.7628 0.13206,1.38691 0.43377,1.38691 0.3017,0 0.54855,-0.62411 0.54855,-1.38691 z m -24.80581,-0.8235 c 0.17201,-0.65776 0.021,-1.11816 -0.3668,-1.11816 -0.36256,0 -0.712,0.63781 -0.77651,1.41736 -0.1334,1.61176 0.70066,1.3935 1.14331,-0.2992 z m 22.37232,0.45338 c -0.0683,-1.30369 -1.44985,-2.15806 -1.44985,-0.89658 0,0.61046 1.00848,2.09885 1.42211,2.09885 0.0499,0 0.0624,-0.54103 0.0277,-1.20227 z m 297.81125,47.183761 c -0.67049,-1.29653 -0.73506,-1.88527 -0.2588,-2.35774 0.4756,-0.471721 0.53341,-0.363311 0.23034,0.43213 -0.28049,0.73627 -0.20748,0.94005 0.23816,0.66464 0.4331,-0.26767 0.52358,-0.0868 0.27738,0.55477 -0.2462,0.64153 -0.15572,0.82243 0.27738,0.55476 0.4331,-0.26768 0.52358,-0.0868 0.27738,0.55476 -0.26745,0.69699 -0.16848,0.83033 0.36947,0.49786 0.48886,-0.30215 0.60225,-0.23977 0.33891,0.18637 -0.57862,0.93619 -0.76297,0.82164 -1.75022,-1.08755 z m -2.46348,-3.357291 c 0,-0.25426 0.23489,-0.4623 0.52203,-0.4623 0.28709,0 0.65057,0.20804 0.80774,0.4623 0.15716,0.25427 -0.0778,0.46231 -0.52203,0.46231 -0.44426,0 -0.80774,-0.20804 -0.80774,-0.46231 z m -1.87315,-1.87065 c -0.19023,-0.49579 -0.33008,-1.19308 -0.31072,-1.54952 0.0194,-0.35644 0.27433,-0.0501 0.56669,0.68067 0.2923,0.73082 0.43216,1.4281 0.31072,1.54952 -0.12138,0.12143 -0.37641,-0.18488 -0.56669,-0.68067 z m -0.7086,-3.77645 c 0.0472,-0.80936 0.24343,-1.47174 0.43671,-1.47195 0.44048,-4.9e-4 1.08245,2.35665 0.73611,2.70296 -0.14041,0.14046 -0.25918,-0.0983 -0.26384,-0.53053 -0.007,-0.67251 -0.0796,-0.67358 -0.50139,-0.007 -0.35267,0.55704 -0.46861,0.35989 -0.40759,-0.69306 z m -0.76668,-2.49069 c 0.36548,-0.71265 0.81667,-1.14358 1.00262,-0.95763 0.18596,0.18596 -0.11306,0.76904 -0.66449,1.29573 -0.95852,0.91548 -0.97339,0.9006 -0.33813,-0.3381 z m -2.63013,-3.68767 -0.0128,-2.20959 0.81179,1.5494 c 0.44653,0.85217 0.6909,1.84648 0.54311,2.20958 -0.14779,0.36311 -0.30601,0.16091 -0.3515,-0.44932 -0.0828,-1.10953 -0.0828,-1.10953 -0.53024,0 -0.33912,0.84093 -0.45052,0.57463 -0.46028,-1.10007 z m -0.63481,-30.01283 c 0.0266,-0.64627 0.15811,-0.77772 0.33519,-0.33517 0.16027,0.40047 0.14057,0.87895 -0.0438,1.06329 -0.18435,0.18435 -0.31549,-0.14331 -0.29142,-0.72812 z"
       copytype="single_stretched"
       prop_scale="0.64"
       scale_y_rel="false"
       spacing="0"
       normal_offset="0"
       tang_offset="0"
       prop_units="false"
       vertical_pattern="false"
       fuse_tolerance="0" />
    <inkscape:path-effect
       effect="skeletal"
       id="path-effect3119"
       is_visible="true"
       pattern="m 6.1e-4,114.42115 0,-28.015471 2.77381,0 c 2.17957,0 2.77381,0.19127 2.77381,0.89284 0,0.7298 0.37986,0.82306 2.08035,0.51074 1.1442,-0.21015 6.63656,-0.50693 12.20526,-0.65952 9.97964,-0.27345 10.12946,-0.29563 10.44322,-1.54574 0.17507,-0.69757 0.2701,-1.6139 0.21116,-2.03629 -0.26096,-1.87011 0.0722,-2.15489 2.52072,-2.15489 l 2.496431,0 0,-3.62161 0,-3.6216 7.62798,0.15434 7.62797,0.15435 0.15352,8.18274 0.15352,8.18273 4.94191,0 c 2.71806,0 5.64469,-0.28995 6.50363,-0.64434 0.85894,-0.35439 1.74894,-0.60404 1.97778,-0.55476 0.22884,0.0493 0.41607,-0.10511 0.41607,-0.34306 0,-0.23795 1.2323,-0.91083 2.73844,-1.4953 2.20119,-0.85419 2.92696,-1.48074 3.69937,-3.19365 0.9127,-2.024 0.91142,-2.47116 -0.0255,-8.90649 -2.78234,-19.11043 -2.79624,-18.67469 0.6228,-19.53502 l 2.20469,-0.55476 0.15339,-3.60595 c 0.0844,-1.98327 0.23139,-4.23006 0.32674,-4.99286 0.0953,-0.76279 0.22695,-3.00958 0.29246,-4.99285 l 0.11911,-3.60596 0.47075,2.77381 c 0.2589,1.5256 0.62277,5.43077 0.8086,8.67816 l 0.33786,5.90435 3.55077,0.38025 c 3.53402,0.37846 4.71826,1.02358 3.717,2.02483 -0.45274,0.45275 -3.10983,0.8726 -6.35629,1.00437 -0.67425,0.0274 -1.12328,0.91876 -1.62592,3.22769 l -0.69443,3.18988 -0.41638,-2.69065 c -0.63112,-4.07819 -0.82528,-4.40171 -2.20008,-3.66593 -1.34346,0.719 -1.32082,1.1659 0.66781,13.18235 0.64109,3.8738 1.17476,8.56851 1.18592,10.43268 l 0.0203,3.38941 3.60846,2.43559 c 1.98465,1.33958 3.85915,2.35998 4.16557,2.26755 0.30641,-0.0924 2.01534,-0.17503 3.79761,-0.18355 l 3.24051,-0.0155 0,-9.5775 c 0,-8.41688 0.11764,-9.68397 0.97083,-10.45609 0.53396,-0.48322 1.22047,-0.92817 1.52559,-0.98876 0.30512,-0.0606 0.86682,-0.22991 1.24822,-0.37626 0.3814,-0.14636 1.13033,-0.0664 1.66428,0.17761 0.53396,0.24405 1.3453,0.45813 1.80298,0.47573 0.70255,0.027 0.85573,1.61716 0.98356,10.21058 0.13317,8.95209 0.25562,10.13859 1.01621,9.84673 0.47563,-0.18253 1.10468,-0.33186 1.39789,-0.33186 0.317749,0 0.476049,-2.5212 0.391849,-6.24107 l -0.14125,-6.24107 8.30027,-0.40943 c 7.73005,-0.3813 15.32247,-0.17351 17.59254,0.48146 0.77109,0.22249 0.97084,0.90018 0.97084,3.29393 l 0,3.0138 6.13753,0 6.13753,0 -0.17384,1.80298 c -0.13324,1.38188 -0.46537,1.84438 -1.42206,1.98025 -0.88518,0.12571 -1.24821,0.55193 -1.24821,1.46545 0,1.57672 -1.3083,2.00788 -7.4837,2.46632 -3.62345,0.26899 -4.46627,0.50626 -4.61747,1.29988 -0.12814,0.67262 0.16936,0.97084 0.96849,0.97084 1.10604,0 1.13854,0.19377 0.79098,4.71547 -0.26047,3.388541 -0.18332,4.715481 0.27414,4.715481 0.42592,0 0.63661,1.46882 0.63661,4.43809 l 0,4.4381 -3.0512,0 c -1.67815,0 -3.05119,0.22294 -3.05119,0.49541 0,0.8355 1.57574,1.15945 4.03508,0.82955 1.28958,-0.17299 3.21844,-0.3815 4.28635,-0.46336 1.06792,-0.0819 2.22149,-0.18439 2.5635,-0.22784 0.4402,-0.0559 0.47625,-0.84869 0.12343,-2.71412 -2.12039,-11.210751 -2.18444,-11.905531 -1.16606,-12.650181 0.53218,-0.38915 0.99378,-1.04102 1.02577,-1.44862 0.032,-0.40759 0.0962,-1.30278 0.14268,-1.98929 0.0826,-1.21996 0.23428,-1.24822 6.70201,-1.24822 5.14255,0 6.80299,0.18548 7.44966,0.83214 0.61024,0.61024 2.10017,0.83215 5.58724,0.83215 4.70227,0 4.75511,-0.0154 4.75511,-1.38691 l 0,-1.3869 6.15431,0 c 5.59123,0 6.17967,0.0969 6.43143,1.05966 0.2435,0.93113 0.9942,1.10056 6.18914,1.39692 6.12241,0.34926 10.45224,1.39749 10.21143,2.47212 -0.091,0.40613 1.10108,0.61892 3.46726,0.61892 2.70852,0 3.60595,0.1919 3.60595,0.77107 0,0.42409 -0.49929,3.197641 -1.10952,6.163451 -0.61024,2.96581 -1.10953,5.61454 -1.10953,5.88607 0,0.27153 0.86558,0.49369 1.9235,0.49369 l 1.9235,0 0.15686,-6.24107 0.15686,-6.241071 2.9125,-0.16768 c 1.60187,-0.0922 2.9437,-0.40428 2.98184,-0.69345 0.0382,-0.28918 0.10055,-0.83783 0.13869,-1.21923 0.0382,-0.3814 0.93202,-0.97228 1.9864,-1.31306 1.05438,-0.34079 2.01134,-0.90249 2.12659,-1.24822 0.13902,-0.41713 2.24711,-0.62862 6.26567,-0.62862 l 6.05615,0 0,9.050821 0,9.05083 1.96049,0.93489 c 1.07827,0.51418 2.07684,0.93489 2.21905,0.93489 0.14221,0 0.25856,-8.43793 0.25856,-18.750951 0,-14.19375 -0.16741,-18.91837 -0.68882,-19.43977 -0.54858,-0.54858 -0.53632,-0.78306 0.0602,-1.15172 0.55665,-0.34403 0.69793,-1.60271 0.55013,-4.90126 l -0.19887,-4.43835 2.65735,-2.84231 c 2.46033,-2.63158 3.71393,-3.44739 3.72824,-2.42624 0.003,0.22884 1.07764,1.84356 2.38762,3.58826 2.30896,3.07519 2.37775,3.2862 2.24958,6.90024 -0.0727,2.05044 0.13686,4.23084 0.46574,4.84535 0.43579,0.81428 0.42593,1.17462 -0.0363,1.32872 -0.6942,0.2314 -0.91883,20.52423 -0.29364,26.527481 l 0.34065,3.27126 6.59502,-0.27738 c 4.4155,-0.18571 6.59464,-0.0847 6.59385,0.30553 -0.002,0.77104 4.90906,3.13959 5.61046,2.7061 0.30051,-0.18572 0.54474,-2.12512 0.54274,-4.30977 -0.006,-6.992651 0.78522,-13.359461 1.59857,-12.856771 0.98609,0.60944 1.59924,5.97359 1.80821,15.819201 l 0.14719,6.93452 3.18988,0.16637 3.18988,0.16638 0,-19.134231 c 0,-12.19214 -0.20182,-19.25896 -0.55626,-19.47802 -0.37185,-0.22981 -0.37185,-0.68838 0,-1.38317 0.30594,-0.57166 0.55626,-2.94708 0.55626,-5.27871 0,-4.1999 0.0242,-4.27079 2.60422,-7.6237 l 2.60421,-3.38437 2.81555,3.14801 2.81555,3.148 -0.21352,4.22824 c -0.15464,3.06243 -0.0145,4.35124 0.50825,4.67432 0.52805,0.32635 0.56009,0.64355 0.11938,1.18181 -0.39212,0.47892 -0.72703,7.56173 -0.95946,20.29109 -0.31797,17.413521 -0.26327,19.555361 0.49937,19.555361 0.72828,0 0.85645,-1.08205 0.85645,-7.23061 l 0,-7.230621 1.94166,-1.14561 c 1.06792,-0.63008 1.9383,-1.55782 1.93418,-2.06165 -0.004,-0.50382 0.54155,-3.00806 1.21261,-5.56499 l 1.22011,-4.64896 1.25792,4.64896 c 0.69186,2.55693 1.26957,5.08583 1.28381,5.61979 0.0346,1.29651 1.74603,1.24792 4.43924,-0.12606 2.48036,-1.26539 2.6953,-1.92701 2.88766,-8.88882 0.0717,-2.59351 0.32388,-4.8509 0.56051,-5.01642 0.23662,-0.16552 1.8548,-5.47549 3.59597,-11.79993 1.74117,-6.32444 3.33564,-11.30669 3.54327,-11.07168 0.20764,0.23502 1.71793,5.34217 3.35622,11.34922 1.63828,6.00705 3.13372,10.67108 3.32318,10.36453 0.45185,-0.73111 1.06509,5.25804 1.06509,10.40213 0,3.95857 0.0438,4.08771 1.66964,4.92849 0.9183,0.47488 2.51946,0.80618 3.55812,0.73622 1.63854,-0.11034 1.92462,-0.35122 2.16155,-1.81999 0.36971,-2.29188 2.14689,-8.707 2.35458,-8.49931 0.39866,0.39865 2.46087,8.85588 2.46087,10.09214 0,0.75039 0.23811,1.51152 0.52912,1.69138 0.29102,0.17985 0.69773,1.817271 0.90381,3.638691 0.6217,5.49513 1.34088,3.73263 1.34088,-3.286121 0,-7.09723 0.0741,-7.27125 3.09656,-7.27125 0.88535,0 1.36159,-0.33014 1.4005,-0.97084 0.12301,-2.0251 0.76185,-6.61333 2.45245,-17.61369 0.42203,-2.74607 0.91919,-6.86518 1.1048,-9.15357 0.18561,-2.28839 0.56132,-6.03304 0.83491,-8.32143 1.38237,-11.56274 2.39857,-30.32742 1.66687,-30.77963 -0.63047,-0.38966 -0.75755,-2.48233 -0.23364,-3.84761 0.43556,-1.13505 2.21954,-1.13505 2.6551,0 0.55859,1.45565 0.37869,4.11534 -0.27835,4.11534 -0.42789,0 -0.51731,1.47733 -0.29382,4.85416 0.1767,2.66979 0.5004,7.72506 0.71934,11.23393 0.21893,3.50887 0.43795,6.62941 0.48669,6.93453 0.0488,0.30511 0.12666,1.46437 0.17314,2.57613 l 0.0845,2.02137 2.21904,-0.56326 c 1.98086,-0.50279 2.22361,-0.74954 2.2615,-2.29875 0.0233,-0.95452 0.12396,-2.15798 0.2236,-2.67435 0.38726,-2.00701 0.84095,-7.70088 1.18499,-14.87186 0.19762,-4.11911 0.51815,-9.11196 0.71228,-11.09524 0.26228,-2.67948 0.14257,-3.983 -0.46592,-5.07348 -0.65886,-1.18075 -0.69022,-1.74991 -0.16051,-2.9125 0.75707,-1.66159 2.09195,-1.88942 2.77805,-0.47414 0.64345,1.3273 0.41684,3.49766 -0.41915,4.01433 -0.46437,0.287 -0.57129,1.12355 -0.32899,2.57417 0.19742,1.18195 0.4592,4.52061 0.58174,7.41924 0.26625,6.2984 0.86252,15.33826 1.12208,17.0113 0.10244,0.66033 0.3619,3.53122 0.57657,6.37977 0.21467,2.84854 0.46753,5.80328 0.56191,6.56608 0.0944,0.76279 0.1888,2.07342 0.20982,2.9125 0.0638,2.54684 0.92937,1.71246 1.67366,-1.61337 0.38635,-1.72643 1.0079,-4.0212 1.38122,-5.09949 l 0.67875,-1.96053 1.33045,5.09949 c 0.73176,2.80472 1.52297,5.09949 1.75826,5.09949 0.23528,0 0.47049,-1.43545 0.52268,-3.18988 0.0522,-1.75443 0.13284,-3.56435 0.17921,-4.02202 0.0464,-0.45768 0.27678,-2.82929 0.51202,-5.27024 0.23523,-2.44095 0.50674,-5.09195 0.60335,-5.89109 0.0966,-0.79915 0.35266,-5.04308 0.56902,-9.43095 0.21635,-4.38788 0.57372,-9.85028 0.79414,-12.13868 0.31046,-3.22315 0.23299,-4.26068 -0.34379,-4.60435 -1.79378,-1.06881 -0.23871,-5.38984 1.67538,-4.65534 1.11908,0.42944 1.45612,3.6401 0.48415,4.61207 -0.57363,0.57363 -0.69151,1.38774 -0.41459,2.86327 0.21282,1.13395 0.47803,4.55816 0.58934,7.60935 0.31743,8.70045 1.44704,22.6249 1.94088,23.92464 0.48899,1.28697 3.81257,2.15974 4.15005,1.0898 0.36238,-1.1489 1.34809,-16.55817 1.0863,-16.98176 -0.14441,-0.23366 0.0138,-2.47871 0.35168,-4.989 0.42928,-3.18978 0.4383,-4.67288 0.03,-4.92525 -0.96653,-0.59735 -1.14313,-3.07596 -0.30121,-4.22737 0.61976,-0.84757 0.99325,-0.95033 1.7445,-0.48 1.1599,0.72618 1.5556,3.31309 0.67001,4.38016 -0.67611,0.81467 0.0341,18.36029 1.12232,27.72783 0.28358,2.44095 0.77497,7.68345 1.092,11.65 0.66719,8.34772 3.28155,24.87752 3.9776,25.14921 0.68138,0.26597 0.58597,3.42103 -0.10345,3.42103 -0.36609,0 -0.51827,1.67171 -0.41607,4.57065 0.1742,4.941741 0.50964,5.380441 3.53357,4.621481 1.14361,-0.28703 1.34303,-0.66986 1.34303,-2.578301 0,-1.35287 0.21988,-2.10532 0.55476,-1.89835 0.30512,0.18857 0.55476,0.82741 0.55476,1.41964 0,0.77873 0.3839,1.07678 1.38691,1.07678 1.01706,0 1.3869,-0.29587 1.3869,-1.10952 0,-0.92863 0.38441,-1.11665 2.35774,-1.15323 5.92951,-0.10991 9.58693,0.17627 9.97108,0.7802 0.26963,0.42389 0.41668,0.3009 0.42221,-0.35316 0.004,-0.55197 0.25814,-0.84929 0.56326,-0.66071 0.30512,0.18857 0.55476,0.82741 0.55476,1.41964 0,0.59223 0.34535,1.07678 0.76744,1.07678 0.42209,0 0.89164,0.474951 1.04344,1.055441 0.21645,0.8277 0.73729,1.03718 2.41389,0.97083 2.02144,-0.08 2.15631,-0.19824 2.47618,-2.171081 0.35039,-2.16115 1.0318,-3.40523 1.11079,-2.02801 0.18095,3.155531 0.34634,3.948061 0.89458,4.286891 0.34254,0.2117 0.78965,1.27428 0.99356,2.36128 0.55417,2.95394 0.88402,3.25601 3.06583,2.80764 2.25118,-0.46262 2.10845,0.60467 2.17447,-16.260481 0.0364,-9.30493 0.0955,-9.82776 1.14792,-10.16179 0.70894,-0.22501 1.10952,-0.83937 1.10952,-1.70167 0,-1.30703 0.12829,-1.34952 4.07473,-1.34952 4.2578,0 5.91098,0.82132 5.91098,2.93666 0,0.4992 0.49929,1.17484 1.10953,1.50143 0.71998,0.38533 1.10952,1.16157 1.10952,2.211 0,0.92781 0.39126,1.83617 0.91784,2.13085 0.82813,0.46345 0.88745,1.82179 0.6069,13.896621 l -0.31095,13.38296 2.4443,0 c 1.34437,0 2.4443,-0.24964 2.4443,-0.55476 0,-0.30512 0.77165,-0.55476 1.71478,-0.55476 l 1.71478,0 -0.18919,-5.82562 c -0.14156,-4.35917 -0.0165,-5.82547 0.49683,-5.825 0.79338,5.5e-4 2.50801,-3.757561 2.05137,-4.496411 -0.16853,-0.27271 0.23429,-0.49583 0.89518,-0.49583 0.85806,0 1.10716,0.24616 0.87124,0.86096 -0.18171,0.47352 -0.0998,0.71843 0.18209,0.54423 0.28186,-0.1742 0.59106,0.49935 0.68711,1.49678 0.13132,1.363871 0.44136,1.813981 1.25046,1.815441 1.00697,0.002 1.06636,0.3836 0.92765,5.96369 -0.14068,5.65939 -0.0914,5.96176 0.97177,5.96176 0.61598,0 1.27426,0.24964 1.46283,0.55476 0.18858,0.30512 1.22238,0.55476 2.29733,0.55476 l 1.95447,0 -0.12777,-37.307741 c -0.0703,-20.51925 0.0608,-40.92756 0.29124,-45.35178 0.3944,-7.57141 0.58053,-8.5416 3.16783,-16.51216 2.58731,-7.9705897 2.911,-8.6302897 5.50937,-11.2286697 3.32217,-3.32215999 4.96492,-3.86202999 7.53694,-2.47690999 3.91194,2.10672999 5.87164,5.04060999 8.69769,13.02144969 2.77576,7.83882 2.8125,8.07709 3.93509,25.51772 0.14729,2.28839 0.44248,19.38892 0.65598,38.00119 0.21349,18.61226 0.40817,34.339761 0.43262,34.950001 0.0377,0.94045 0.48827,1.13507 2.95695,1.2772 l 2.9125,0.16769 0,-36.695971 0,-36.69597 9.29226,0.19138 9.29226,0.19138 0.14316,32.65011 0.14314,32.650111 2.0759,-0.3101 c 1.14175,-0.17055 3.48255,-0.61946 5.20178,-0.99757 l 3.12588,-0.68747 0.21921,-16.355861 c 0.16371,-12.21621 0.39053,-16.41297 0.89614,-16.58151 0.37231,-0.1241 0.67694,-0.82895 0.67694,-1.56632 0,-1.20884 0.2455,-1.34749 2.49643,-1.41002 1.37303,-0.0382 3.05812,-0.11124 3.74464,-0.16245 1.68041,-0.12533 3.18988,0.83505 3.18988,2.02953 0,0.79341 0.49315,0.97767 2.63512,0.98457 1.44931,0.004 2.88516,0.1919 3.19076,0.41607 1.17931,0.86504 1.92989,3.32482 2.0711,6.78734 l 0.14707,3.60595 2.77381,0.14497 c 3.90338,0.204 5.27024,0.58879 5.27024,1.48366 0,0.42644 0.26173,0.86259 0.58164,0.96922 0.38161,0.1272 0.57941,4.24506 0.57514,11.97361 -0.003,6.478861 0.17729,11.779731 0.40192,11.779731 0.22463,0 0.47261,-2.42072 0.55106,-5.37937 0.0784,-2.958651 0.27334,-5.510081 0.43309,-5.669841 0.15976,-0.15975 1.16879,-0.21478 2.2423,-0.1223 1.58783,0.1368 2.00818,-0.0473 2.25399,-0.9873 0.26925,-1.02961 0.71811,-1.15547 4.1208,-1.15547 l 3.81863,0 0,-16.92024 c 0,-14.67037 0.11067,-16.92024 0.83214,-16.92024 0.45768,0 0.83214,-0.37446 0.83214,-0.83214 0,-0.66572 0.83215,-0.83215 4.16072,-0.83215 2.55856,0 4.16071,-0.22623 4.16071,-0.5875 0,-0.32313 0.2163,-0.45383 0.48065,-0.29046 0.98714,0.61012 2.38497,-1.79493 2.28506,-3.93163 -0.0549,-1.16871 -0.0752,-2.81145 -0.0455,-3.65052 l 0.0536,-1.5256 7.76667,0 7.76666,0 0,17.93977 c 0,9.86688 0.16482,24.34616 0.36631,32.1762 l 0.36637,14.236411 1.5753,0 1.57536,0 0,-35.706221 0,-35.70623 4.71292,-0.93597 c 4.61817,-0.91716 4.80502,-0.91153 9.29226,0.27984 2.51862,0.66869 4.8914,1.46075 5.27279,1.76012 0.51848,0.40697 0.69346,3.7275 0.69346,13.15953 l 0,12.61522 3.00398,0.35306 c 4.71392,0.55403 4.76268,0.59791 4.76268,4.28543 l 0,3.2575 8.46012,-0.0548 c 4.65307,-0.0302 9.5211,-0.0249 10.81786,0.0117 l 2.35774,0.0666 0,6.51115 0,6.51115 2.63162,-2.6316 2.63157,-2.6316 0.20327,-12.20098 0.20332,-12.20098 2.15796,0 c 1.65636,0 2.17567,-0.22566 2.23409,-0.97083 0.16742,-2.1356 0.42994,-11.39468 0.53872,-19.0006 l 0.11506,-8.04405 0.47871,7.76667 c 0.26329,4.27167 0.4782,10.58503 0.47754,14.02969 0,4.63821 0.17597,6.24028 0.68191,6.17534 2.00474,-0.25731 2.02732,-0.1295 2.18848,12.38723 0.13403,10.40941 0.31222,12.66942 1.13721,14.42381 0.53806,1.1442 0.73489,2.08036 0.43748,2.08036 -0.29746,0 -0.80973,-0.99857 -1.13837,-2.21905 -0.32864,-1.22048 -0.89994,-2.21522 -1.26957,-2.21055 -1.72903,0.0218 -1.9612,0.9139 -1.95204,7.50034 l 0.009,6.67159 3.27043,-0.0645 c 2.32878,-0.0459 3.27049,0.1409 3.27049,0.64889 0,0.39238 0.43687,0.994311 0.97083,1.337631 0.90865,0.58423 0.9092,0.60509 0.008,0.32559 -0.93782,-0.291 -1.00401,0.20997 -0.48652,3.68211 0.0338,0.22884 0.47515,0.41607 0.98015,0.41607 0.84163,0 0.83863,-0.0878 -0.0361,-1.05444 -0.66755,-0.73765 -0.76563,-1.17103 -0.32642,-1.44246 0.34528,-0.21341 0.77761,-0.23819 0.96073,-0.0551 0.18313,0.18312 -0.0205,0.34087 -0.45296,0.35058 -0.65401,0.0147 -0.64624,0.13109 0.0461,0.69345 0.45768,0.37169 1.30835,1.61197 1.89035,2.75617 0.582,1.14419 1.26824,2.08035 1.52498,2.08035 0.25675,0 0.40465,1.06099 0.3287,2.35774 -0.12776,2.1819 -0.0344,2.35774 1.24882,2.35774 1.42286,0 1.59955,-0.56913 0.86122,-2.77381 -0.20443,-0.61024 0.14828,-0.17336 0.78376,0.97083 0.63543,1.1442 1.399,2.08036 1.69685,2.08036 0.3383,0 0.54151,5.41312 0.54151,14.42381 l 0,14.42381 -332.85715,0 -332.85714,0 0,-28.01548 z M 629.96937,97.996449 c 0.2644,-0.42782 0.52147,-0.38577 0.84795,0.13869 0.39028,0.62706 0.66616,0.63011 1.65297,0.0183 0.65151,-0.40392 1.01882,-0.46633 0.81633,-0.13869 -0.68014,1.10055 1.54673,0.61395 2.98617,-0.6525 l 1.4187,-1.24821 -1.05283,1.24821 -1.05288,1.24822 5.65607,0 5.65608,0 -0.12394,-2.35774 c -0.0682,-1.29676 -0.63997,-3.10667 -1.27068,-4.02202 -1.18331,-1.71738 -1.56809,-2.7068 -1.62745,-4.18517 -0.0189,-0.47113 -0.43887,-1.28258 -0.93316,-1.80322 -0.84319,-0.88813 -0.98759,-0.84692 -2.33627,0.66674 -0.79059,0.88736 -1.26885,1.80124 -1.0627,2.03086 0.20609,0.22962 0.096,0.25852 -0.2446,0.0642 -0.90653,-0.51708 -2.54031,1.54079 -2.41599,3.04319 0.17725,2.14245 0.0205,2.67978 -0.78032,2.67978 -0.42046,0 -1.1766,0.5617 -1.68032,1.24822 l -0.91586,1.24821 0.59032,-1.24821 c 0.58383,-1.2345 0.54572,-1.24822 -3.46892,-1.24822 -3.9711,0 -4.06186,0.0313 -4.17864,1.4425 -0.0656,0.79337 0.0194,1.66712 0.18912,1.94166 0.43599,0.70545 2.87589,0.62135 3.33085,-0.11481 z m 16.82476,-9.09434 0.0625,-4.16072 -1.96302,0 c -1.77235,0 -1.90694,0.10476 -1.38574,1.07863 0.31749,0.59325 0.82965,1.2346 1.13809,1.42524 0.30845,0.19063 0.40381,0.60069 0.21187,0.91122 -0.28526,0.46161 1.2922,4.90634 1.74134,4.90634 0.0728,0 0.16055,-1.87232 0.19494,-4.16071 z M 362.08982,58.262069 c -0.14066,-0.53977 -0.26499,-0.23246 -0.2763,0.68289 -0.0113,0.91536 0.10378,1.35698 0.25574,0.98139 0.15196,-0.37559 0.16121,-1.12451 0.0206,-1.66428 z m -26.91794,-1.81353 c 0.11639,-1.22048 0.0178,-2.21905 -0.21911,-2.21905 -0.2369,0 -0.43073,0.99857 -0.43073,2.21905 0,1.22047 0.0986,2.21904 0.21911,2.21904 0.12051,0 0.31434,-0.99857 0.43073,-2.21904 z m 27.64302,-0.83215 c 0,-0.7628 -0.1952,-1.3869 -0.43377,-1.3869 -0.23857,0 -0.48541,0.6241 -0.54855,1.3869 -0.0631,0.7628 0.13206,1.38691 0.43377,1.38691 0.3017,0 0.54855,-0.62411 0.54855,-1.38691 z m -24.80581,-0.8235 c 0.17201,-0.65776 0.021,-1.11816 -0.3668,-1.11816 -0.36256,0 -0.712,0.63781 -0.77651,1.41736 -0.1334,1.61176 0.70066,1.3935 1.14331,-0.2992 z m 22.37232,0.45338 c -0.0683,-1.30369 -1.44985,-2.15806 -1.44985,-0.89658 0,0.61046 1.00848,2.09885 1.42211,2.09885 0.0499,0 0.0624,-0.54103 0.0277,-1.20227 z m 297.81125,47.183761 c -0.67049,-1.29653 -0.73506,-1.88527 -0.2588,-2.35774 0.4756,-0.471721 0.53341,-0.363311 0.23034,0.43213 -0.28049,0.73627 -0.20748,0.94005 0.23816,0.66464 0.4331,-0.26767 0.52358,-0.0868 0.27738,0.55477 -0.2462,0.64153 -0.15572,0.82243 0.27738,0.55476 0.4331,-0.26768 0.52358,-0.0868 0.27738,0.55476 -0.26745,0.69699 -0.16848,0.83033 0.36947,0.49786 0.48886,-0.30215 0.60225,-0.23977 0.33891,0.18637 -0.57862,0.93619 -0.76297,0.82164 -1.75022,-1.08755 z m -2.46348,-3.357291 c 0,-0.25426 0.23489,-0.4623 0.52203,-0.4623 0.28709,0 0.65057,0.20804 0.80774,0.4623 0.15716,0.25427 -0.0778,0.46231 -0.52203,0.46231 -0.44426,0 -0.80774,-0.20804 -0.80774,-0.46231 z m -1.87315,-1.87065 c -0.19023,-0.49579 -0.33008,-1.19308 -0.31072,-1.54952 0.0194,-0.35644 0.27433,-0.0501 0.56669,0.68067 0.2923,0.73082 0.43216,1.4281 0.31072,1.54952 -0.12138,0.12143 -0.37641,-0.18488 -0.56669,-0.68067 z m -0.7086,-3.77645 c 0.0472,-0.80936 0.24343,-1.47174 0.43671,-1.47195 0.44048,-4.9e-4 1.08245,2.35665 0.73611,2.70296 -0.14041,0.14046 -0.25918,-0.0983 -0.26384,-0.53053 -0.007,-0.67251 -0.0796,-0.67358 -0.50139,-0.007 -0.35267,0.55704 -0.46861,0.35989 -0.40759,-0.69306 z m -0.76668,-2.49069 c 0.36548,-0.71265 0.81667,-1.14358 1.00262,-0.95763 0.18596,0.18596 -0.11306,0.76904 -0.66449,1.29573 -0.95852,0.91548 -0.97339,0.9006 -0.33813,-0.3381 z m -2.63013,-3.68767 -0.0128,-2.20959 0.81179,1.5494 c 0.44653,0.85217 0.6909,1.84648 0.54311,2.20958 -0.14779,0.36311 -0.30601,0.16091 -0.3515,-0.44932 -0.0828,-1.10953 -0.0828,-1.10953 -0.53024,0 -0.33912,0.84093 -0.45052,0.57463 -0.46028,-1.10007 z m -0.63481,-30.01283 c 0.0266,-0.64627 0.15811,-0.77772 0.33519,-0.33517 0.16027,0.40047 0.14057,0.87895 -0.0438,1.06329 -0.18435,0.18435 -0.31549,-0.14331 -0.29142,-0.72812 z"
       copytype="repeated"
       prop_scale="0.74"
       scale_y_rel="false"
       spacing="0"
       normal_offset="0"
       tang_offset="0"
       prop_units="false"
       vertical_pattern="false"
       fuse_tolerance="0.3" />
  </defs>
  <sodipodi:namedview
     id="base"
     pagecolor="#ffffff"
     bordercolor="#666666"
     borderopacity="1.0"
     inkscape:pageopacity="0.0"
     inkscape:pageshadow="2"
     inkscape:zoom="0.49497475"
     inkscape:cx="-196.94542"
     inkscape:cy="324.5638"
     inkscape:document-units="px"
     inkscape:current-layer="layer1"
     showgrid="false"
     showguides="true"
     inkscape:guide-bbox="true"
     inkscape:window-width="1860"
     inkscape:window-height="1056"
     inkscape:window-x="1366"
     inkscape:window-y="0"
     inkscape:window-maximized="1"
     fit-margin-top="0"
     fit-margin-left="0"
     fit-margin-right="0"
     fit-margin-bottom="0" />
  <metadata
     id="metadata7">
    <rdf:RDF>
      <cc:Work
         rdf:about="">
        <dc:format>image/svg+xml</dc:format>
        <dc:type
           rdf:resource="http://purl.org/dc/dcmitype/StillImage" />
        <dc:title></dc:title>
      </cc:Work>
    </rdf:RDF>
  </metadata>
  <g
     inkscape:label="Layer 1"
     inkscape:groupmode="layer"
     id="layer1"
     transform="translate(-77.871375,-56.86332)">
    <path
       style="fill:#c94328;fill-opacity:1;stroke:none"
       d="m 329.03125,56.875 c -1.96382,0.133761 -3.9984,1.012368 -5.34375,2.5625 -1.72085,1.983278 -1.46421,2.86619 0.9375,4.59375 2.21837,1.595465 2.73691,3.731414 2.125,8.0625 -0.45282,3.20574 -1.01766,11.262139 -1.1875,17.875 -0.29547,11.51234 -0.9816,20.64539 -1.875,23.9375 -0.22977,0.847 -0.37145,2.78628 -0.3125,4.3125 0.0949,2.47708 -0.58466,2.87551 -6.25,4.28125 -2.11523,0.52491 -4.21427,1.08794 -6.3125,1.65625 -0.2173,-1.0582 -0.40672,-2.16084 -0.625,-3.21875 -0.36041,-1.74556 -0.88694,-3.50369 -1.09375,-3.96875 -0.20731,-0.4651 -1.46161,-5.37407 -2.875,-10.84375 -0.77526,-3.00114 -1.72789,-6.723214 -2.65625,-10.15625 -0.76327,-2.823878 -1.50575,-5.378909 -2.03125,-7.25 -1.4726,-5.243727 -1.5684,-7.711703 -0.15625,-7.90625 0,-0.0014 0.05,0.0028 0.0625,0 2.12696,-0.345463 2.17517,-4.585662 0,-6.625 -0.24726,-0.232021 -0.59888,-0.397983 -1,-0.53125 -2.36549,-0.786001 -6.87521,0.143155 -7.875,1.875 -1.40616,2.436491 -0.45268,5.61985 1.71875,5.90625 1.2603,0.166084 2.21174,7.869409 2.71875,17.8125 0.50701,9.94311 0.67366,22.14928 0.3125,31.59375 -0.14237,3.73832 -0.15736,9.81018 0,13.5 0.15735,3.68983 0.086,10.38785 -0.15625,14.90625 -0.48953,9.05006 -0.627,15.46619 -0.625,20 10e-4,4.53382 0.10762,7.20034 0.3125,8.8125 0.12992,1.02009 -0.80691,1.8172 -2.8125,2.28125 -3.42322,0.79212 -5.17223,1.26825 -5.6875,2.9375 -0.515,1.66926 0.18563,4.51299 1.625,10 1.42265,5.42634 1.92449,8.88459 1.65625,10 -0.26799,1.11542 -1.30824,-0.10128 -3.125,-4.15625 -1.20411,-2.6882 -2.83067,-4.96301 -3.53125,-5.0625 -0.70058,-0.0993 -1.54082,-1.09804 -1.875,-2.25 -0.27524,-0.94894 -2.42123,-4.42417 -4.75,-7.59375 -2.32853,-3.16956 -4.82328,-6.05857 -5.375,-6.21875 -0.28748,-0.0835 -0.64797,2.63462 -0.875,5.84375 -0.22728,3.20914 -0.34931,6.88075 -0.15625,8.75 0.24726,2.39583 -0.19825,2.95765 -3.59375,4.375 -2.15144,0.89847 -5.67285,1.71656 -7.875,1.78125 -3.89902,0.11462 -4.11584,-0.01 -6.5625,-5.84375 -3.17945,-7.58198 -8.24505,-15.79832 -8.8125,-14.28125 -0.23729,0.63612 -6.60214,-4.80078 -14.59375,-11.65625 -7.99161,-6.85546 -15.46541,-12.17998 -16.15625,-12.25 -0.69058,-0.07 -1.07518,9.08244 -0.21875,20.15625 0.71357,9.21868 1.43428,17.24253 1.46875,19.96875 0,0.54857 -0.01,0.84935 -0.0625,0.9375 -0.3644,0.52619 0.93591,3.92818 2.9375,7.5625 5.37286,9.7556 5.4753,10.90117 1.875,15.625 -3.90952,5.12923 -6.92895,7.4295 -8.1875,5.78125 -0.518,-0.67882 -3.9493,-3.26324 -7.65625,-5.625 -2.24635,-1.43138 -4.49418,-2.83181 -6.78125,-4.21875 0.68959,2.57278 1.4457,5.10871 2.1875,7.65625 1.22407,4.20343 2.68572,8.08883 3.1875,8.71875 0.50201,0.62978 -0.0982,3.0353 -1.3125,5.3125 -0.73629,1.3801 -1.48468,2.76983 -2.1875,4.15625 L 207,259.5625 c 6.31545,7.53023 7.29121,9.05858 6.1875,10 -0.57793,0.49293 -1.43531,0.0644 -4.375,-3.125 -2.93968,-3.18943 -7.97841,-9.12043 -16.78125,-19.90625 -12.86969,-15.76896 -19.56274,-24.97864 -19.28125,-26.21875 0.31644,-1.39377 -0.11181,-1.74177 -1.5,-1.25 -1.37368,0.4868 -2.977,-0.85443 -5.84375,-4.84375 -1.3195,-1.83598 -2.594,-3.62719 -3.90625,-5.46875 -3.04584,0.3909 -6.15143,0.81185 -9.21875,1.3125 -3.06733,0.50065 -6.10245,1.0445 -9.1875,1.65625 -0.54674,3.00145 -1.05767,5.9858 -1.5,8.96875 -0.65687,4.43286 -0.85928,6.72431 -0.375,8.4375 0.48429,1.71319 1.70083,2.89712 4.125,5.21875 2.69194,2.57778 4.97563,5.67105 5.09375,6.875 0.14238,1.4633 0.63838,1.9098 1.5625,1.46875 0.88091,-0.4204 9.39296,7.05198 23.46875,20.53125 L 197.5625,284.375 c -1.52905,1.4683 -3.04592,2.95435 -4.53125,4.46875 -1.48533,1.51441 -2.93513,3.03482 -4.375,4.59375 -2.88025,-2.31654 -5.7695,-4.62885 -8.65625,-6.9375 -12.29525,-9.83344 -19.78762,-14.19774 -22,-13.03125 -1.82451,0.96213 5.04563,8.65997 13.8125,15.59375 2.73913,2.16606 4.83886,4.54477 4.6875,5.21875 -0.11738,0.52393 -1.21262,1.52114 -2.65625,2.59375 -2.89198,2.14735 -7.14138,4.75587 -7.8125,4.28125 -0.25475,-0.17983 -1.12408,0.61857 -2.5,2.5 -1.37594,1.88142 -3.29897,4.82875 -5.625,8.90625 -2.31604,4.06012 -4.47322,8.21752 -6.53125,12.40625 -1.65242,-0.60493 -3.34309,-1.28027 -5,-1.875 -4.56089,-1.63709 -13.96962,-6.21422 -22.1875,-10.6875 -8.21791,-4.47327 -15.22326,-8.81344 -14.96875,-9.6875 0.33893,-1.16399 -0.1346,-1.47928 -1.8125,-1.09375 -1.26654,0.29095 -4.59494,-0.86661 -7.40625,-2.5625 -2.47763,-1.49459 -3.845056,-2.22624 -5.46875,-2.1875 -1.623694,0.0387 -3.563967,0.80459 -7.1875,2.5625 -4.111822,1.9947 -7.696562,3.67953 -8.03125,3.53125 -1.493569,-0.65933 -1.947887,3.2084 -0.78125,11.15625 0.420107,2.86144 0.900973,5.68494 1.40625,8.5 2.263079,0.70934 4.552411,1.37606 6.8125,2.09375 5.039177,1.60017 6.708731,2.67152 6.6875,4.21875 -0.02494,1.65804 0.382778,1.86933 1.71875,0.875 1.269786,-0.9451 8.39436,1.49081 29.4375,9.96875 15.28987,6.16 27.73116,11.39145 27.625,11.65625 -0.10732,0.26479 -1.43321,1.9086 -2.96875,3.65625 -0.93035,1.05919 -1.89911,2.10347 -2.8125,3.1875 l -13.65625,-4.8125 -13.5625,-4.84375 c -1.55652,4.38484 -3.01425,8.78846 -4.3125,13.25 -0.49727,1.70909 -0.89684,3.27853 -1.25,4.6875 -1.48659,5.9036 -1.8743,9.0676 -1.40625,9.4375 0.48055,0.37969 0.88705,2.793 0.9375,5.25 0.05,2.45698 0.60405,4.55396 1.1875,4.75 0.58343,0.19581 1.43592,0.5509 1.875,0.71875 0.43907,0.16759 0.40137,3.13975 0,6.6875 -0.24226,2.15018 -0.44143,4.3448 -0.625,6.5 3.28361,0.53502 6.52739,1.03723 9.8125,1.5625 3.28511,0.52528 6.55713,1.04698 9.84375,1.5625 -0.15985,1.2967 -0.33164,2.57478 -0.46875,3.875 -0.22729,2.14539 -0.66141,3.88159 -1.09375,3.84375 -0.43234,-0.038 -4.62789,-1.36531 -9.21875,-3.125 -4.59086,-1.75966 -8.82614,-3.36429 -9.5,-3.4375 -0.92037,-0.0999 -1.51968,1.82206 -1.96875,7.875 -0.39213,5.28789 -0.82861,7.98176 -1.46875,7.75 -0.84694,-0.30662 -1.82374,1.94109 -2.59375,6.0625 -0.76977,4.12141 -1.25516,10.08458 -1.15625,17.09375 0.0849,5.94737 0.17492,9.39507 0.0625,11.40625 -0.11242,2.01118 -0.44794,2.6063 -1.15625,2.96875 -1.02502,0.52468 -1.40151,1.38445 -0.875,6.25 0.22478,2.08486 0.67339,4.8795 1.34375,8.71875 0.82021,4.69605 1.78455,9.41905 2.875,14.0625 l 2.125,-0.53125 c 1.06722,-0.2506 1.65582,-0.36397 2.25,0.90625 0.59418,1.27021 1.19765,3.89493 2.65625,9.0625 2.16343,7.66425 2.97304,11.01597 2.5,12.65625 -0.25077,0.86909 -0.16983,2.21208 0.53125,4.75 0.70034,2.53793 2.01744,6.25221 4.3125,11.71875 2.88649,6.87523 4.59729,10.27608 5.6875,11.9375 1.09046,1.6614 1.58511,1.59945 2.5,1.25 1.02976,-0.39328 2.41608,-0.96132 3.03125,-1.1875 0.61515,-0.22629 1.96855,0.25738 3.0625,1.03125 1.04675,0.74043 1.8506,0.96344 4.0625,-0.5625 2.21188,-1.52595 5.81476,-4.82772 12.875,-10.75 2.34952,-1.97089 3.49669,-2.46548 3.96875,-1.71875 0.36689,0.58017 1.6388,2.55832 2.75,4.375 1.11094,1.8167 3.22295,5.03224 4.75,7.09375 0.37888,0.5114 0.67881,0.997 1,1.46875 2.14545,3.16964 3.01131,5.46983 2.03125,6.09375 -0.3674,0.23377 -2.15663,-1.956 -3.875,-4.84375 l -0.0937,-0.0625 c -1.01779,-1.70304 -1.99993,-3.42056 -2.96875,-5.15625 l -6.15625,3.4375 c -4.14578,2.30964 -5.97957,3.80179 -5.53125,4.59375 0.48154,0.85061 -1.25727,2.13525 -6.25,4.3125 -6.66238,2.90537 -6.98404,3.03569 -5.71875,5.21875 0.91438,1.57729 0.85722,2.42458 -0.21875,2.71875 -0.63439,0.17358 -1.288,-0.10206 -2.34375,-1.3125 -1.05549,-1.21034 -2.52158,-3.33182 -4.6875,-6.9375 -3.69097,-6.1451 -5.80727,-9.94367 -7.40625,-12.03125 -1.59896,-2.08757 -2.5986,-2.44928 -3.75,-1.9375 -1.33423,0.59303 -2.32548,0.045 -3.34375,-1.8125 -1.10021,-2.00774 -2.05532,-2.48641 -4.21875,-1.9375 -0.94084,0.23877 -1.96441,0.45178 -2.90625,0.6875 1.90367,4.61441 4.02008,9.25743 6.1875,13.75 2.16769,4.49258 4.41732,8.8966 6.84375,13.25 L 119.5,558.25 c -3.34205,1.86197 -4.00137,2.81429 -3.34375,4.6875 0.39487,1.125 1.0422,2.7298 2.03125,4.6875 1.92916,3.82117 4.95019,8.98639 8.8125,14.6875 3.86256,5.70113 8.61317,11.9695 13.75,17.875 4.61985,5.31082 9.43004,10.35699 14.4375,15.28125 2.32154,-2.38385 4.60972,-4.71617 6.9375,-7.09375 4.16252,-4.25135 7.35775,-6.78869 7.875,-6.25 0.47729,0.49708 1.66544,1.44159 2.65625,2.03125 1.58449,0.94295 0.51656,2.43682 -9.34375,12.8125 -9.46545,9.95996 -10.9865,12.07627 -9.6875,13.40625 0.8462,0.86641 2.11347,2.55614 2.875,3.8125 0.76177,1.25627 2.15762,2.70734 3.0625,3.21875 0.90489,0.51141 2.20788,1.31448 2.875,1.78125 0.66735,0.46679 2.49399,1.16026 4.0625,1.5 2.5066,0.54284 4.08135,-0.76386 12.8125,-11 l 9.90625,-11.71875 c 1.92316,1.62959 3.87288,3.27457 5.84375,4.84375 1.9806,1.57677 4.00509,2.9986 5.40625,3.96875 0.89939,0.62298 1.523,1.06726 1.78125,1.1875 0.66086,0.30747 3.18155,4.23845 5.84375,8.65625 1.61346,2.67744 3.25867,5.32344 5,7.96875 -0.95533,1.53262 -1.85767,3.06076 -2.8125,4.59375 -1.5755,2.5294 -4.4705,9.54347 -6.3125,15.6875 -2.85676,9.52929 -4.17939,14.57279 -5.375,17.03125 -1.19561,2.45842 -2.24782,2.33725 -4.15625,1.84375 -3.90576,-1.01003 -4.14604,-1.7609 -2.09375,-8.1875 0.45131,-1.41335 0.94469,-2.81021 1.40625,-4.21875 -1.44937,1.08724 -2.90915,2.14707 -4.375,3.21875 -3.18295,2.3271 -5.03226,2.80682 -6.625,1.78125 -5.76099,-3.71033 -10.77887,-6.89194 -13.53125,-8.34375 -0.91087,-0.48056 -1.5756,-0.73012 -1.9375,-0.78125 -2.00983,-0.28409 -2.02741,0.72824 0.15625,3.125 1.31349,1.44025 3.45633,3.3955 6.40625,5.78125 2.63224,2.12853 5.26233,4.1762 7.96875,6.21875 -1.47333,2.79822 -2.91865,5.56658 -4.375,8.375 -2.40245,4.63386 -4.90288,10.45809 -5.5625,12.9375 -0.39962,1.50266 -0.76862,3.02329 -1.15625,4.53125 1.1434,-1.54907 2.20384,-3.04226 3.34375,-4.59375 1.8807,-2.55999 4.1981,-5.43764 5.09375,-6.3125 0.89614,-0.87481 3.15832,-3.64086 5.0625,-6.1875 1.1539,-1.54348 2.35086,-3.1409 3.5,-4.6875 1.93616,0.87269 3.83311,1.76457 5.78125,2.59375 4.53242,1.92882 6.73823,2.96026 8.8125,-0.25 2.07426,-3.21038 3.94103,-10.70807 8.6875,-25.65625 1.59847,-5.03371 2.54117,-7.70829 3.5,-9.3125 0.95884,-1.60424 1.97096,-2.14496 3.75,-2.96875 3.01113,-1.39439 4.97127,-1.32386 10.21875,0 3.59082,0.90583 6.70066,1.27547 6.875,0.9375 0.17483,-0.33801 0.65066,-0.37773 1.09375,-0.0625 0.44332,0.31513 2.53673,0.87613 4.59375,1.25 2.05705,0.37384 8.42609,2.9468 14.28125,5.375 3.00787,1.24738 6.02016,2.41042 9.0625,3.53125 L 318.53125,541.5625 C 270.57485,528.73368 235.25,485.00164 235.25,433 c 0,-62.0727 50.33358,-112.40625 112.40625,-112.40625 62.07266,0 112.40625,50.33355 112.40625,112.40625 0,53.25868 -37.08478,97.81228 -86.8125,109.40625 L 402.59375,607.5 c 4.06236,-1.2308 8.09501,-2.54172 12.03125,-4.0625 -2.75161,4.19177 -5.50696,8.3411 -8.34375,12.34375 L 427.5,662.84375 c 2.54183,-1.52339 5.07089,-3.06144 7.5625,-4.6875 3.7674,-2.4587 7.47926,-5.05592 11.15625,-7.71875 -0.42685,1.00731 -0.86768,1.97952 -1.3125,2.96875 -0.44482,0.98917 -0.84993,1.99786 -1.3125,2.96875 0.70758,-1.13435 1.3179,-2.27519 2,-3.4375 2.07651,-3.53795 6.06493,-7.4323 5.46875,-5.0625 -0.17734,0.7055 0.5142,0.12322 1.5,-1.34375 1.49307,-2.22208 2.00464,-2.62973 3.1875,-2.40625 0.98981,0.18681 1.51894,-0.13916 1.71875,-1.09375 0.34417,-1.64271 4.80279,-5.56891 6.15625,-5.3125 0.52674,0.0996 1.39096,1.17991 1.875,2.34375 0.43034,1.03516 0.57515,1.59493 -0.3125,2.65625 -0.88766,1.06134 -2.78498,2.63305 -6.6875,5.53125 -3.94522,2.92996 -5.99169,4.27289 -6.96875,4.6875 -0.97708,0.41457 -0.86833,-0.16225 -0.6875,-1.34375 0.12234,-0.79639 0.20011,-1.60162 0.3125,-2.40625 -0.32468,0.96031 -0.69133,1.92941 -1.03125,2.875 -0.56072,1.56024 -1.71357,3.27461 -2.5625,3.84375 -1.61671,1.08405 -1.5839,1.91306 0.0625,4.28125 0.75284,1.48274 0.99188,2.05901 1.03125,2.25 -0.20279,-0.17155 0.003,0.1719 0,0.0312 0.051,0.0445 0.1109,0.10124 0.21875,0.21875 l 3.90625,7.875 3.84375,7.90625 c 1.835,-0.84802 3.71298,-1.70641 5.53125,-2.59375 1.50005,-0.73207 5.02097,-2.54392 9.4375,-5 4.41676,-2.4561 9.70882,-5.54176 14.75,-8.8125 0.30121,-0.19532 0.57455,-0.42841 0.875,-0.625 5.83793,-3.50764 11.5418,-7.21068 17.09375,-11.15625 l 3.03125,4.21875 c 1.69763,2.40904 2.58021,3.65532 4.375,3.4375 1.79503,-0.21779 4.46925,-1.83276 9.6875,-5.3125 2.21713,-1.47834 4.44633,-2.98752 6.625,-4.53125 l 12.8125,15.625 c 9.56161,11.65604 13.33731,15.41566 14.96875,14.90625 1.19886,-0.37471 7.54713,-4.08457 13.96875,-8.53125 5.72102,-3.96115 8.62552,-6.1718 11.25,-8.71875 2.62449,-2.54697 4.96506,-5.44906 9.21875,-11.1875 2.89424,-3.90412 5.70035,-7.83022 8.40625,-11.84375 L 554.875,601.71875 511.09375,565.0625 c 0.67011,-0.80133 1.37339,-1.62672 2.03125,-2.4375 0.65812,-0.81075 1.29286,-1.58626 1.9375,-2.40625 6.11191,4.50017 12.20111,8.94798 18.34375,13.40625 10.13606,7.35622 28.66292,21.23899 41.125,30.90625 l 22.65625,17.5625 c 0.72205,-0.93039 1.47668,-1.87388 2.1875,-2.8125 3.91825,-5.17034 7.63218,-10.44546 11.21875,-15.84375 4.23845,-6.37843 8.27035,-12.89538 12.03125,-19.5625 -0.68285,-0.44534 -1.34815,-0.89909 -2.03125,-1.34375 -1.12541,-0.73424 -3.45187,-1.9388 -5.15625,-2.71875 -3.11726,-1.42714 -4.51792,-6.75708 -2.34375,-8.75 0.58245,-0.53372 0.61007,-1.16428 0.15625,-1.40625 -0.51076,-0.27054 1.35423,-4.3719 4.46875,-10.84375 2.02607,-4.20981 3.129,-6.91251 3.65625,-8.59375 0.52674,-1.68125 0.48803,-2.35065 0,-2.5625 -0.67161,-0.29129 -0.81051,-1.48406 -0.3125,-2.65625 0.7845,-1.84781 -2.37845,-3.50084 -24.03125,-12.5 L 572.0625,522.125 c 1.11069,-2.67234 2.11147,-5.41616 3.125,-8.125 1.35395,-3.62066 1.98167,-5.7224 2.15625,-7.03125 0.17484,-1.30885 -0.0954,-1.79787 -0.78125,-2.34375 -1.25281,-0.99672 -1.24831,-1.95045 0,-5.28125 0.84443,-2.25189 1.39935,-4.52469 1.25,-4.9375 -0.14737,-0.41279 -3.98931,-1.91225 -8.5,-3.34375 -4.51043,-1.43163 -8.09039,-2.928 -7.96875,-3.375 0.0774,-0.28401 3.42454,0.36997 8.4375,1.5625 2.87725,0.68465 6.35373,1.51729 10,2.5 11.92784,3.21632 18.37991,4.5308 18.8125,3.6875 0.3619,-0.70695 1.21437,-1.20082 1.875,-1.03125 0.69208,0.17782 1.40231,-0.51583 2.25,-2.40625 0.84769,-1.89041 1.84956,-5.00618 2.96875,-9.6875 0.53024,-2.21776 1.0287,-4.39127 1.5,-6.625 1.91342,0.21404 3.77382,0.41633 5.6875,0.625 5.51248,0.60115 9.78577,-0.68187 11.625,-3.53125 0.47629,-0.73836 1.30671,-4.40226 1.78125,-8.1875 0.70283,-5.59417 1.08171,-6.84308 2.34375,-6.71875 1.89994,0.18708 3.79936,-3.6848 3.90625,-8.1875 0.0424,-1.83954 0.19006,-6.38937 0.25,-10.0625 0.0999,-6.02173 -0.1926,-6.70005 -2.125,-6.71875 -1.17862,-0.0124 -2.30493,-0.80116 -2.5,-1.78125 -0.26499,-1.33097 -6.90892,-1.89627 -26.4375,-2.1875 -8.71642,-0.1302 -17.44033,-0.31205 -26.15625,-0.40625 -0.38239,-2.22453 -0.80317,-4.42366 -1.25,-6.625 -0.73703,-3.63222 -1.77421,-8.4661 -2.25,-10.84375 -0.28949,-1.44099 -0.6213,-2.94381 -0.9375,-4.375 17.29097,-1.91889 34.62028,-3.81573 51.90625,-5.78125 17.28598,-1.96555 34.53177,-3.98784 51.8125,-6 -0.31095,-3.19994 -0.68839,-6.40165 -1.09375,-9.59375 -0.80024,-6.30512 -1.70987,-12.56635 -2.875,-18.8125 -1.75382,-9.4084 -3.99296,-18.71347 -6.5625,-27.9375 l -56.28125,16.3125 -56.34375,16.3125 c -0.44132,-2.92819 -0.34253,-6.37299 -0.6875,-8.40625 0.90413,-0.36915 24.13606,-11.68621 51.65625,-23 27.62934,-11.35893 28.66824,-11.82008 32.84375,-13.71875 34.54947,-14.95355 36.34451,-46.92013 29.03125,-62.90625 -7.31327,-15.98611 -31.31376,-31.25883 -60.09375,-15 -6.1811,3.51461 -9.00557,4.73189 -35.5,24.0625 -16.05814,11.71551 -32.07063,23.35469 -48.15625,35.03125 -0.75603,-1.05046 -1.56775,-2.08792 -2.34375,-3.125 -1.28029,-1.71119 -2.1831,-3.52781 -2.03125,-4.125 0.15236,-0.59718 -0.41248,-1.94316 -1.1875,-2.90625 -1.33847,-1.66232 -0.99538,-1.9621 6.1875,-7.46875 7.08223,-5.42948 7.4714,-5.96343 6.0625,-7.65625 -1.13218,-1.36002 -1.06211,-2.36267 0.40625,-4 1.07397,-1.19743 1.46715,-2.42427 0.84375,-2.71875 -0.62341,-0.29451 -0.4322,-0.68661 0.40625,-0.875 1.08946,-0.24452 0.97077,-0.86004 -0.3125,-2.3125 -0.98756,-1.11871 -1.80357,-1.60478 -1.875,-1.03125 -0.0949,0.77696 -1.89083,1.4755 -3.8125,1.8125 -1.92165,0.33701 -4.03332,0.3211 -4.625,-0.3125 -0.76452,-0.82002 -2.63191,0.5991 -7.5,5.59375 -2.16819,2.22497 -4.29258,4.43914 -6.46875,6.65625 -0.7865,-0.83738 -1.60652,-1.67531 -2.40625,-2.5 -1.32024,-1.36076 -2.71782,-2.15759 -3.0625,-1.8125 -0.34466,0.34511 -2.1871,-0.96331 -4.125,-2.8125 -1.17538,-1.1207 -2.30039,-2.18817 -3.5,-3.28125 4.95526,-5.13197 9.92101,-10.27158 14.90625,-15.375 13.49485,-13.81377 14.85083,-15.42839 13.875,-17.3125 -0.62115,-1.19802 -0.36155,-2.95492 0.625,-4.0625 1.11518,-1.25278 1.24535,-2.80641 0.3125,-4.4375 -0.79125,-1.38246 -0.98676,-2.98688 -0.46875,-3.59375 1.09845,-1.28579 1.04097,-2.89761 -0.3125,-5 -1.3527,-2.10239 -4.0556,-4.70315 -8.34375,-7.96875 -0.17234,-0.13144 -0.30316,-0.24958 -0.46875,-0.375 -3.73468,-2.82781 -5.75661,-4.19645 -6.9375,-4.6875 -1.18136,-0.49106 -1.53757,-0.14886 -2.125,0.6875 -0.79224,1.12792 -2.15609,1.42028 -3.8125,0.71875 -2.45939,-1.04143 -3.04749,-0.45933 -11.40625,11.84375 -7.57475,11.14962 -11.11703,16.42998 -13.25,18.65625 -2.13295,2.22626 -2.91383,1.42816 -5.09375,0.46875 -4.22496,-1.85967 -4.54714,-2.59488 -3.125,-7.25 0.5235,-1.713 0.56283,-3.7063 0.0937,-4.375 -0.74928,-1.07028 -0.39342,-2.30579 1.78125,-6.875 0.9491,-1.99422 -1.38001,-1.06683 -3.75,1.5625 -2.16343,2.40023 -2.44476,2.42317 -6.375,0.46875 -3.25988,-1.62102 -4.17459,-2.4183 -4,-3.8125 0.12234,-0.97778 -0.47955,-2.08909 -1.3125,-2.5 -0.83295,-0.4109 -1.13111,-1.49174 -0.71875,-2.34375 0.4126,-0.85201 0.32878,-1.9961 -0.15625,-2.5625 -0.48604,-0.56644 -1.17812,-0.32552 -1.5625,0.46875 -0.45681,0.94041 -0.83725,0.93012 -1.09375,0.0625 -0.18233,-0.61794 -2.03499,-1.88516 -5.4375,-3.59375 -3.40224,-1.70859 -8.33698,-3.86137 -14.59375,-6 -4.16453,-1.42346 -5.0952,-1.31488 -5.5625,0.0937 -0.40937,1.23436 -1.37353,1.36136 -3.5,0.6875 -2.09724,-0.66454 -2.70416,-1.30863 -2.34375,-2.5 0.27423,-0.90602 0.009,-2.08014 -0.5625,-2.5625 -0.62167,-0.52942 -1.42682,0.48624 -2.03125,2.5625 -0.85218,2.92893 -1.46538,3.40369 -3.96875,3.1875 -0.58619,-0.0507 -1.13221,-0.10031 -1.625,-0.15625 -5.05991,-0.58317 -5.34097,-1.88678 -4,-8.96875 0.86293,-4.55812 1.83878,-7.07565 2.65625,-6.875 1.53928,0.37786 2.95436,-4.42251 1.5,-5.21875 -0.74279,-0.40668 -1.01217,-7.42399 -1.1875,-16 -0.17483,-8.57599 -0.29306,-18.71967 0.15625,-25.4375 0.4281,-6.38417 0.68968,-14.91901 0.625,-18.90625 -0.12482,-7.65077 0.49387,-18.44109 1.40625,-27.46875 0.91237,-9.027667 2.21018,-16.251343 3.4375,-16.6875 3.21543,-1.142541 2.65297,-5.41772 -1.03125,-7.25 -2.38597,-1.186738 -3.61494,-1.254521 -5.90625,-0.25 -3.11254,1.36427 -3.11713,5.320072 -0.0937,6.78125 1.27702,0.617286 0.7929,3.005868 -1.40625,7.8125 -1.73084,3.7827 -2.73812,7.215105 -2.34375,7.65625 0.35765,0.399869 -1.24895,6.60429 -3.03125,12.875 -1.78229,6.2707 -3.71613,12.60747 -4.375,13.4375 -0.61367,0.773 -3.28679,0.48875 -5.9375,-0.25 -2.65072,-0.73899 -5.33533,-1.93088 -5.9375,-3.03125 -0.60817,-1.1113 -1.13516,-7.26461 -1.5625,-14.90625 -0.42759,-7.641643 -0.73189,-16.777927 -0.625,-23.75 0.075,-4.890136 -0.36804,-10.382326 -0.9375,-12.25 -0.74104,-2.430251 -0.24153,-3.700476 1.8125,-4.4375 3.48067,-1.248803 2.8383,-6.483177 -1.03125,-7.5 -3.30933,-0.869601 -6.4152,0.331079 -7.9375,2.03125 -1.52229,1.700172 -1.46711,3.841358 1.5625,4.90625 1.94813,0.684822 2.1039,2.374433 0.6875,7.4375 -1.00553,3.594711 -2.82784,12.233007 -3.96875,19.1875 -1.14091,6.954479 -2.28611,13.64853 -2.65625,14.90625 -0.37015,1.2577 -1.43862,5.51613 -2.34375,9.375 -0.90515,3.85886 -1.79917,7.55706 -1.96875,8.28125 -0.16985,0.72419 -0.56527,3.58064 -0.84375,6.375 -0.27849,2.79435 -0.97088,5.12117 -1.625,5.09375 -0.65387,-0.0274 -2.70988,-3.84001 -4.6875,-8.375 -1.19835,-2.74846 -2.48346,-5.45371 -3.75,-8.1875 -0.67735,1.03595 -1.30463,2.08476 -1.96875,3.125 -1.09596,1.71645 -2.89327,5.35839 -3.96875,8.125 -2.07152,5.32963 -4.41852,6.72244 -4.6875,2.65625 -0.0874,-1.33965 -0.38928,-3.41249 -0.6875,-4.625 -0.29822,-1.21252 -1.10922,-5.9046 -1.875,-10.4375 -0.76576,-4.53295 -1.77683,-9.11214 -2.125,-10.15625 -0.8819,-2.64535 -3.26128,-16.981976 -4.59375,-27 -0.61316,-4.610474 -1.73199,-9.928456 -2.5,-11.78125 -0.9426,-2.273977 -0.73349,-3.621779 0.84375,-4.15625 2.83978,-0.962183 3.53501,-4.44764 1.1875,-6.46875 -0.93859,-0.808155 -2.17477,-1.256923 -3.5,-1.3125 l -0.0312,0 c -0.27608,-0.01159 -0.53195,-0.01911 -0.8125,0 z m -7.4375,68.0625 c 1.11644,-0.10236 1.65011,0.59672 1.25,1.6875 -1.03001,2.80707 -3.34587,3.38282 -3.21875,0.78125 0.0624,-1.25827 0.92475,-2.3731 1.96875,-2.46875 z m 62.53125,0.75 c 1.19186,0.13059 2.82038,1.37712 2.78125,2.75 -0.0299,1.0611 -0.17263,1.89231 -0.3125,1.875 -1.16988,-0.14335 -3.76189,-2.78004 -3.65625,-3.75 0.055,-0.50111 0.30013,-0.76478 0.6875,-0.84375 0.14536,-0.0296 0.32973,-0.0499 0.5,-0.0312 z M 314,126.625 c 0.67859,-0.0796 1.13765,1.46144 1.03125,3.4375 -0.10733,1.97604 -0.44431,3.64731 -0.78125,3.6875 -0.33717,0.0402 -0.85873,-1.50081 -1.09375,-3.4375 -0.23478,-1.9367 0.16514,-3.60795 0.84375,-3.6875 z m 78.84375,0.9375 c 0.68135,0.0967 1.11383,1.13744 0.9375,2.34375 -0.17733,1.20633 -1.0258,2.1509 -1.875,2.03125 -0.84893,-0.11959 -1.28142,-1.2228 -0.9375,-2.40625 0.34417,-1.18341 1.19389,-2.0655 1.875,-1.96875 z m -2.03125,5.78125 c 0.0375,-0.0175 0.0539,-0.0314 0.0937,0 0.0799,0.0627 0.14882,0.24147 0.21875,0.46875 0.2745,0.90919 0.0346,2.12021 -0.46875,2.65625 -0.50351,0.53604 -0.69803,-0.17977 -0.46875,-1.625 0.1149,-0.72262 0.30166,-1.22954 0.46875,-1.40625 0.0424,-0.0442 0.11877,-0.0774 0.15625,-0.0937 z m -54.6875,120.46875 1.78125,11.84375 -9.5,1.40625 -0.71875,-4.75 -8.0625,1.1875 1.375,9.34375 10.1875,-1.53125 1.0625,7.125 -10.15625,1.53125 1,6.84375 5.46875,-0.875 1.09375,7.15625 -19.96875,3 -1.0625,-7.15625 3.34375,-0.46875 -3.53125,-23.28125 -3.3125,0.5 -1.0625,-7.09375 32.0625,-4.78125 z m 23.9375,10.15625 c 0.31764,-0.01 0.65116,-0.008 1,0 l -0.21875,9.71875 c -4.87697,-0.10973 -7.67396,1.07516 -7.78125,5.84375 l -0.125,5.59375 2.6875,0.0625 -0.125,7.125 -15.34375,-0.375 0.15625,-7.09375 2.375,0.0625 0.3125,-12.96875 -2.34375,-0.0625 0.15625,-7.03125 10.1875,0.25 1.5625,3.5 c 1.37571,-2.40876 2.73541,-4.47845 7.5,-4.625 z m 16.65625,3.125 c 0.9713,0.0249 1.96453,0.1483 2.96875,0.34375 6.33126,1.23225 10.51441,5.41807 11.1875,10.1875 0.27602,1.9864 0.0825,6.21608 -1.625,9.03125 L 372.5,283.375 c 0.0396,1.49863 0.15588,4.56768 4.625,5.4375 1.80893,0.35206 4.59851,0.74125 7.9375,-1.09375 l 3.46875,6.03125 c -4.59982,2.63877 -9.0918,3.01441 -14.625,1.9375 -6.59729,-1.28403 -13.23818,-6.94109 -11.25,-17.15625 1.48596,-7.63476 7.26336,-11.61178 14.0625,-11.4375 z m 0.75,7.5 c -2.43077,0.12709 -3.49287,2.41679 -3.8125,3.5625 l 8.0625,1.5625 c 0.34029,-2.0321 0.28005,-4.36852 -3.125,-5.03125 -0.40568,-0.0789 -0.77775,-0.11195 -1.125,-0.0937 z m 27.125,1.15625 c 2.28378,-0.12176 4.69519,0.313 7.0625,1.28125 5.97001,2.44177 9.26873,7.37832 9,12.1875 -0.11615,2.00212 -1.12062,6.07131 -3.34375,8.5 l -15.78125,-6.4375 c -0.253,1.47765 -0.74538,4.4639 3.46875,6.1875 1.70572,0.69765 4.39881,1.64954 8.03125,0.5 l 2.1875,6.59375 c -5.02566,1.69235 -9.50126,1.19648 -14.71875,-0.9375 -6.22085,-2.54436 -11.62715,-9.39895 -7.6875,-19.03125 2.31353,-5.65646 6.75692,-8.57588 11.78125,-8.84375 z m 3,7.8125 c -0.16456,-0.003 -0.31586,0.0126 -0.46875,0.0312 -1.83474,0.22407 -2.97752,1.84013 -3.4375,2.75 l 7.5625,3.125 c 0.72956,-1.92691 1.17951,-4.21803 -2.03125,-5.53125 -0.5738,-0.23465 -1.13133,-0.36526 -1.625,-0.375 z m -142.125,2.8125 c 3.32659,-0.0266 6.52081,1.29914 8.78125,5.03125 l 5.46875,9.03125 2.78125,-1.65625 3.59375,5.9375 -9.90625,6 -2.40625,-1.40625 c -0.28329,3.4034 -2.76849,5.73912 -4.4375,6.75 -4.40434,2.6676 -10.55522,3.15919 -13.8125,-2.21875 -3.17304,-5.23885 -0.7701,-11.20196 4.46875,-14.375 2.73534,-1.65671 5.16222,-1.29401 5.5625,-1.15625 l -0.96875,-1.625 c -1.2636,-2.08632 -3.49647,-1.42257 -6,0.0937 -2.73534,1.65671 -4.45294,4.24062 -5.625,6.28125 l -5.1875,-4.15625 c 1.18055,-2.23587 3.82848,-6.85414 8.09375,-9.4375 2.78169,-1.6848 6.26716,-3.06713 9.59375,-3.09375 z m 194.75,11.40625 c 0.35238,-0.0207 0.68005,-0.0118 1.03125,0 3.61237,0.12143 7.10934,1.91551 9.25,4 3.26195,3.17637 5.53274,7.41873 4.25,11.84375 l 3.5625,-2.90625 6.65625,6.5 L 475.5,327 l -7.03125,-6.875 c 2.79823,-2.87363 2.12455,-6.69677 -0.59375,-9.34375 -1.12615,-1.09661 -3.364,-1.89038 -4.6875,-0.53125 -3.89484,3.99978 12.41753,18.03054 3.53125,27.15625 -5.89897,6.05792 -13.6914,2.7186 -18.3125,-1.78125 -3.92212,-3.81921 -4.88223,-8.28435 -4.65625,-11.46875 l -3.34375,2.5625 -6.78125,-6.625 9.53125,-9.75 7.21875,7 c -3.17637,3.26195 -0.4307,6.99074 1.125,8.65625 1.35915,1.3235 3.59935,2.91227 5.1875,1.28125 2.94949,-3.02896 -13.20505,-16.28514 -3.5625,-26.1875 2.1424,-2.20012 4.62712,-3.16777 7.09375,-3.3125 z M 267.125,303.3125 c -0.53253,0.0385 -1.17606,0.18274 -1.90625,0.625 -1.85445,1.1232 -2.02673,2.65655 -1.15625,4.09375 0.78624,1.29813 2.3904,1.5299 3.78125,0.6875 1.39085,-0.8424 2.00387,-2.36437 2,-3.3125 l -1.03125,-1.75 c -0.17468,-0.0922 -0.79996,-0.40792 -1.6875,-0.34375 z m -29.625,2.71875 c 3.38842,-0.042 6.4012,2.28784 8.875,4.84375 l 6.3125,6.53125 1.8125,-1.78125 4.9375,5.125 -9.8125,9.46875 -10.28125,-10.625 c -1.28167,-1.32422 -3.38964,-3.75534 -5.6875,-1.53125 -1.98631,1.9225 -0.55842,4.32527 1.0625,6 l 5.3125,5.53125 2.8125,-2.6875 4.9375,5.09375 -11.96875,11.59375 -4.9375,-5.09375 1.625,-1.59375 -9,-9.3125 -1.65625,1.625 -4.875,-5.09375 8.28125,-8.03125 3.21875,1.5625 c -0.44751,-3.11218 0.10883,-6.12515 2.5625,-8.5 2.26382,-2.19109 4.4357,-3.09983 6.46875,-3.125 z m -21.3125,27.6875 c 2.74299,-0.0891 5.63736,0.67486 8.5,2.5 7.55855,4.88224 8.17821,13.32127 3.625,20.1875 -4.28361,6.45968 -12.40811,10.04868 -20.34375,4.65625 -7.51385,-5.04771 -7.66507,-13.9537 -3.53125,-20.1875 3.01456,-4.42335 7.17835,-7.00777 11.75,-7.15625 z m 261.28125,1.59375 c 5.17651,-0.15163 9.92846,2.8054 12.71875,7.125 4.55575,7.25247 3.67142,15.38942 -3.84375,20.4375 -7.49906,4.97315 -15.43591,2.17047 -19.90625,-4.75 -4.20565,-6.51069 -4.24252,-15.38546 3.875,-20.5 2.38526,-1.52062 4.80329,-2.24359 7.15625,-2.3125 z m -264.8125,8.15625 c -0.98897,0.0892 -1.79884,0.52756 -2.34375,1.3125 -1.16828,1.76175 0.5774,4.87577 3.875,7.0625 3.70415,2.45633 7.08563,2.616 8.34375,0.71875 1.28808,-1.94242 -0.58081,-4.81585 -3.96875,-7.0625 -2.11747,-1.40415 -4.25797,-2.1799 -5.90625,-2.03125 z M 482.125,345.125 c -0.32042,-0.0294 -0.67135,-0.002 -1.03125,0.0312 -1.43958,0.13139 -3.18193,0.77028 -4.84375,1.84375 -3.73341,2.41163 -5.20397,5.43152 -3.96875,7.34375 1.26464,1.95776 4.61655,1.39326 8.03125,-0.8125 3.4147,-2.20576 5.30549,-5.11196 3.96875,-7.28125 -0.43012,-0.66586 -1.195,-1.0368 -2.15625,-1.125 z m -300.9375,10.5625 30.625,13.65625 1.3125,-2.90625 6.5,2.875 -6.4375,14.46875 -6.5,-2.875 0.9375,-2.15625 -24.25,-10.8125 -0.9375,2.09375 -6.375,-2.875 5.125,-11.46875 z m 327.84375,3.0625 c 2.9827,-0.0363 6.46938,1.36557 8.875,6.96875 1.11193,2.58991 1.99781,6.2708 1.90625,7.84375 l -7,-0.5 c 0.0138,-0.65478 -0.1414,-1.62398 -0.71875,-2.96875 -0.47044,-1.09572 -1.48823,-1.2073 -3.28125,-0.4375 l -4.25,1.8125 L 506.5,376 l -6.46875,2.78125 -1.9375,-4.53125 -11.90625,5.09375 1.25,3 -6.5,2.78125 -6.375,-14.84375 6.53125,-2.78125 0.84375,2 11.9375,-5.125 -0.875,-2.0625 6.46875,-2.78125 0.875,2.0625 4.21875,-1.8125 c 1.0646,-0.45707 2.67913,-1.00947 4.46875,-1.03125 z m -1.125,21.09375 0.78125,2.8125 4.8125,-1.375 5.78125,8.75 -7.875,2.25 1.4375,4.90625 -6.8125,1.9375 -1.40625,-4.9375 -9.28125,2.625 c -1.773,0.50273 -4.26414,0.81003 -3.6875,2.84375 0.19221,0.6779 1.11436,2.19003 1.8125,3.0625 l -6.6875,1.875 c -1.06933,-1.38697 -2.44117,-4.83189 -2.78125,-6.03125 -2.21789,-7.82198 1.9946,-9.29471 8.625,-11.34375 l 9.28125,-2.625 -0.78125,-2.8125 6.78125,-1.9375 z M 193.71875,380 c 2.17829,0.0316 5.70984,0.61844 8.0625,2.28125 l -4.46875,16.5 c 1.49773,0.0653 4.56951,0.14729 5.75,-4.25 0.47781,-1.77986 1.06556,-4.50953 -0.53125,-7.96875 l 6.25,-3.0625 c 2.31036,4.77322 2.39905,9.27449 0.9375,14.71875 -1.74262,6.49124 -7.8553,12.7295 -17.90625,10.03125 -8.58518,-2.30475 -11.99706,-9.84534 -9.875,-17.75 1.67235,-6.22949 6.13266,-10.13112 10.9375,-10.46875 0.2501,-0.017 0.53256,-0.0361 0.84375,-0.0312 z m -1.125,9.0625 c -0.19196,-0.005 -0.3751,0.01 -0.5625,0.0312 -1.24933,0.14197 -2.37536,0.90605 -2.9375,3 -0.85725,3.19327 1.81314,4.66897 3.09375,5.125 l 2.15625,-7.875 c -0.56343,-0.13546 -1.17413,-0.2675 -1.75,-0.28125 z m 322.59375,12.71875 0.84375,14.5625 L 509,416.75 508.90625,414.90625 505,416.3125 c -2.5547,0.90454 -6.15551,1.6155 -7.71875,1.8125 l 0,0.0937 c 2.22793,0.0369 7.39446,0.17956 12.84375,1.5 l 6.1875,1.40625 0.53125,10 -6.90625,2.46875 c -4.09345,1.53448 -9.71194,2.6764 -11.59375,3 l 0,0.0625 c 1.74088,0.0644 5.71095,0.35049 8.625,1 l 3.25,0.75 -0.15625,-2.21875 7.0625,-0.4375 0.75,13.21875 -7.03125,0.40625 -0.125,-2.21875 -20.40625,-5.1875 -0.625,-11.4375 12,-4.40625 -12.4375,-3.21875 -0.625,-11.125 19.65625,-7.25 -0.0937,-2.34375 7,-0.40625 z m -337,7.9375 12.21875,0.875 -0.59375,7.96875 c -2.60277,-0.0788 -5.69581,0.51315 -5.875,3 -0.22982,3.18967 3.04846,4.99682 6.5625,5.25 3.51404,0.25318 6.44664,-1.66893 6.75,-5.125 0.26051,-2.86141 -0.77628,-4.8255 -2.59375,-6.75 l 5.875,-4.375 c 2.57409,2.73957 4.95193,7.81755 4.53125,13.65625 -0.57259,7.94713 -5.8457,14.50584 -15.46875,13.8125 -9.56898,-0.68944 -13.40482,-7.3613 -12.90625,-14.28125 0.26487,-3.67623 2.44629,-5.6901 3.59375,-6.53125 l -2.5625,-1.125 0.46875,-6.375 z m 6.78125,30.71875 c 0.47381,4.85514 1.9715,7.52577 6.71875,7.0625 l 5.5625,-0.53125 -0.25,-2.75 7.0625,-0.65625 1.5,15.25 -7.09375,0.6875 -0.21875,-2.34375 -12.90625,1.21875 0.25,2.34375 -7.03125,0.6875 -1,-10.15625 3.3125,-1.9375 c -2.72629,-1.1499 -5.08275,-2.34983 -5.625,-7.90625 l 9.71875,-0.96875 z m 310.6875,8.6875 c 0.69573,-0.0265 1.3853,0.0347 2.15625,0.1875 6.00806,1.19041 8.78417,6.99195 7.59375,13 -0.62155,3.13695 -2.50331,4.70361 -2.875,4.90625 l 1.875,0.375 c 2.3926,0.47406 3.36863,-1.59764 3.9375,-4.46875 0.62154,-3.13695 -0.15877,-6.16462 -0.875,-8.40625 l 6.625,-1.03125 c 0.85466,2.37958 2.46919,7.45223 1.5,12.34375 -1.26415,6.38023 -5.28361,13.94608 -13.84375,12.25 l -10.34375,-2.0625 -0.625,3.1875 -6.8125,-1.3125 2.25,-11.375 2.65625,-0.84375 c -2.32181,-2.5045 -2.37925,-5.92967 -2,-7.84375 0.87569,-4.41964 3.91109,-8.72066 8.78125,-8.90625 z m 0.1875,10.34375 c -1.24139,0.02 -2.25472,1.01057 -2.53125,2.40625 -0.31604,1.59506 0.35981,3.11343 1.0625,3.75 l 2.03125,0.375 c 0.29744,-0.10683 1.74504,-0.61066 2.1875,-2.84375 0.42138,-2.12674 -0.57053,-3.29842 -2.21875,-3.625 -0.18609,-0.0369 -0.35391,-0.0654 -0.53125,-0.0625 z m -290.40625,1.65625 3.3125,11.09375 -1.96875,1.96875 c 3.2218,1.13287 4.88045,4.12992 5.4375,6 1.46999,4.93492 0.4008,11.04881 -5.625,12.84375 -5.86995,1.74854 -11.06398,-2.13005 -12.8125,-8 -0.91294,-3.06485 0.0782,-5.3037 0.3125,-5.65625 l -1.8125,0.53125 c -2.33759,0.69632 -2.30433,2.97615 -1.46875,5.78125 0.91296,3.06484 3.0086,5.41349 4.6875,7.0625 l -5.34375,3.96875 c -1.86565,-1.70649 -5.63892,-5.43967 -7.0625,-10.21875 -1.85683,-6.23359 -1.8634,-14.78999 6.5,-17.28125 l 10.125,-3.03125 -0.90625,-3.125 6.625,-1.9375 z m -3.40625,15.875 -1.96875,0.59375 c -0.21332,0.2332 -1.24365,1.31824 -0.59375,3.5 0.61895,2.07786 2.01465,2.66718 3.625,2.1875 1.45451,-0.43327 2.12046,-1.91035 1.65625,-3.46875 -0.46425,-1.55836 -1.80029,-2.57709 -2.71875,-2.8125 z m 280.6875,3.40625 6.5625,2.6875 -0.90625,2.21875 11.96875,4.9375 0.875,-2.15625 6.53125,2.65625 -3.90625,9.4375 -3.8125,0.1875 c 1.86915,2.29372 3.40695,4.4627 1.28125,9.625 l -9.0625,-3.71875 c 1.85743,-4.51075 1.78552,-7.55888 -2.625,-9.375 l -5.15625,-2.125 -1.03125,2.5 -6.5625,-2.6875 5.84375,-14.1875 z M 210.5,495.125 c 3.99387,-0.055 7.55934,2.82152 11.1875,9.03125 l 10.375,17.78125 -6.09375,3.5625 -1.5625,-2.71875 -20.59375,12.03125 1.5625,2.71875 -6.03125,3.53125 -10.1875,-17.46875 c -4.53903,-7.76874 -3.78866,-13.14455 1.3125,-16.125 3.93118,-2.29686 6.45149,-2.34592 9.90625,0.34375 -1.03274,-3.91645 -0.16457,-8.19142 4.375,-10.84375 2.06204,-1.20476 3.9346,-1.81878 5.75,-1.84375 z m 267.90625,8.1875 c 0.32743,-0.0141 0.66454,-0.0116 1,0 2.4397,0.0847 5.08823,0.86648 7.84375,2.59375 7.53176,4.72123 8.59697,12.94026 4.25,19.875 -3.42577,5.46512 -8.83868,7.89885 -13.53125,6.8125 -1.95285,-0.45648 -5.83054,-2.17591 -7.84375,-4.78125 l 9.0625,-14.46875 c -1.41271,-0.50173 -4.30056,-1.48273 -6.71875,2.375 -0.9788,1.56146 -2.35584,4.00582 -1.84375,7.78125 l -6.84375,1.09375 c -0.80892,-5.2409 0.44356,-9.59876 3.4375,-14.375 2.30079,-3.67044 6.27607,-6.69406 11.1875,-6.90625 z m -266,3.90625 c -0.68447,0.0667 -1.38298,0.30347 -2.09375,0.71875 -2.38678,1.39452 -3.31639,3.73852 -1.8125,6.3125 l 2.0625,3.59375 8.1875,-4.75 -2.21875,-3.75 c -0.71776,-1.22849 -1.96841,-2.03431 -3.4375,-2.125 -0.22036,-0.0136 -0.45934,-0.0222 -0.6875,0 z M 200.5,516.125 c -0.71615,0.0774 -1.47011,0.38281 -2.3125,0.875 -2.15279,1.2578 -2.66407,3.31536 -1.625,5.09375 l 1.71875,2.96875 7.03125,-4.125 -1.6875,-2.84375 c -0.90576,-1.55024 -1.93142,-2.09783 -3.125,-1.96875 z m 283.1875,0.21875 -4.375,6.9375 c 1.77394,1.04801 3.97008,1.84547 5.8125,-1.09375 1.75607,-2.80145 -0.34695,-5.03221 -1.4375,-5.84375 z"
       id="path3138"
       inkscape:connector-curvature="0" />
    <circle
       style="opacity:0;fill:#c9af28;fill-opacity:1;stroke:none"
       id="path2992"
       transform="matrix(1.2579152,0,0,1.2579152,-108.99857,-79.489066)"
       cx="362.5"
       cy="407.00504"
       r="106.78571" />
    <g
       transform="matrix(-0.77604765,0.72759627,-0.72759627,-0.77604765,930.77094,518.18436)"
       style="font-style:normal;font-weight:normal;font-size:40px;line-height:125%;font-family:Sans;letter-spacing:-0.20604955px;word-spacing:0px;fill:#ffffff;fill-opacity:1;stroke:none"
       id="text3762" />
    <flowRoot
       xml:space="preserve"
       id="flowRoot3984"
       style="font-style:normal;font-weight:normal;font-size:40px;line-height:125%;font-family:Sans;letter-spacing:0px;word-spacing:0px;fill:#000000;fill-opacity:1;stroke:none;stroke-width:1px;stroke-linecap:butt;stroke-linejoin:miter;stroke-opacity:1"><flowRegion
         id="flowRegion3986"><rect
           id="rect3988"
           width="144.45181"
           height="40.406101"
           x="371.73615"
           y="848.31134" /></flowRegion><flowPara
         id="flowPara3990" /></flowRoot>  </g>
</svg>
