<svg xmlns="http://www.w3.org/2000/svg" width="596.972" height="651.324"><path d="M251.16.012c-1.964.133-4 1.012-5.344 2.562-1.72 1.983-1.464 2.866.938 4.594 2.218 1.595 2.737 3.73 2.125 8.062-.454 3.206-1.02 11.263-1.19 17.875-.294 11.513-.98 20.646-1.874 23.938-.23.847-.37 2.786-.312 4.312.095 2.478-.585 2.876-6.25 4.282-2.116.525-4.215 1.088-6.313 1.656-.216-1.058-.406-2.16-.624-3.22-.36-1.744-.887-3.503-1.094-3.968-.207-.465-1.46-5.374-2.875-10.843-.775-3-1.728-6.724-2.656-10.157-.762-2.823-1.505-5.378-2.03-7.25-1.473-5.243-1.57-7.71-.156-7.906 0-.002.05.002.062 0 2.127-.346 2.175-4.586 0-6.626-.247-.232-.6-.398-1-.53-2.365-.787-6.875.142-7.875 1.874-1.405 2.436-.452 5.62 1.72 5.906 1.26.166 2.212 7.87 2.72 17.813.506 9.943.672 22.15.31 31.593-.14 3.74-.156 9.81 0 13.5.158 3.69.087 10.388-.155 14.907-.49 9.05-.627 15.466-.625 20 0 4.533.107 7.2.312 8.812.13 1.02-.807 1.816-2.812 2.28-3.423.793-5.172 1.27-5.688 2.938-.515 1.67.186 4.513 1.625 10 1.423 5.426 1.925 8.885 1.657 10-.268 1.115-1.31-.1-3.125-4.156-1.205-2.69-2.832-4.963-3.533-5.063-.7-.1-1.54-1.1-1.875-2.25-.275-.95-2.42-4.425-4.75-7.595-2.328-3.17-4.823-6.058-5.375-6.218-.287-.084-.648 2.634-.875 5.843-.227 3.21-.35 6.88-.156 8.75.247 2.396-.198 2.958-3.594 4.375-2.15.9-5.672 1.717-7.875 1.782-3.9.114-4.115-.01-6.562-5.844-3.18-7.582-8.245-15.798-8.813-14.28-.237.635-6.602-4.802-14.593-11.658-7.993-6.855-15.467-12.18-16.158-12.25-.69-.07-1.075 9.083-.218 20.157.713 9.218 1.434 17.242 1.468 19.968 0 .55-.01.85-.062.938-.365.526.936 3.928 2.937 7.562 5.373 9.756 5.476 10.902 1.875 15.625-3.91 5.13-6.93 7.43-8.187 5.782-.518-.68-3.95-3.264-7.656-5.625-2.248-1.432-4.496-2.832-6.783-4.22.69 2.574 1.446 5.11 2.188 7.657 1.224 4.203 2.686 8.088 3.187 8.718.502.63-.098 3.035-1.312 5.312-.736 1.38-1.485 2.77-2.188 4.157l7.407 8.812c6.314 7.53 7.29 9.058 6.186 10-.578.492-1.435.064-4.375-3.126s-7.977-9.12-16.78-19.906c-12.87-15.77-19.563-24.98-19.28-26.22.315-1.393-.113-1.74-1.5-1.25-1.375.488-2.978-.853-5.845-4.843-1.32-1.836-2.594-3.627-3.906-5.468-3.047.39-6.153.812-9.22 1.312-3.067.5-6.103 1.044-9.188 1.655-.546 3.002-1.057 5.986-1.5 8.97-.656 4.432-.86 6.723-.375 8.437.485 1.713 1.7 2.897 4.125 5.218 2.692 2.578 4.976 5.67 5.094 6.875.143 1.464.64 1.91 1.563 1.47.88-.42 9.392 7.05 23.467 20.53l22.094 21.157c-1.528 1.468-3.045 2.954-4.53 4.468-1.485 1.515-2.935 3.035-4.375 4.594-2.88-2.316-5.77-4.63-8.656-6.937-12.297-9.834-19.79-14.198-22-13.032-1.826.963 5.044 8.66 13.81 15.594 2.74 2.165 4.84 4.544 4.69 5.218-.12.524-1.214 1.52-2.658 2.594-2.892 2.147-7.14 4.756-7.812 4.28-.255-.18-1.124.62-2.5 2.5-1.376 1.882-3.3 4.83-5.625 8.907-2.316 4.06-4.473 8.217-6.53 12.405-1.654-.605-3.344-1.28-5-1.875-4.562-1.637-13.97-6.214-22.19-10.687-8.217-4.473-15.222-8.814-14.968-9.688.34-1.164-.134-1.48-1.812-1.093-1.267.29-4.595-.867-7.406-2.563-2.48-1.495-3.846-2.227-5.47-2.188-1.624.038-3.564.804-7.188 2.562-4.11 1.995-7.696 3.68-8.03 3.53-1.494-.658-1.95 3.21-.782 11.158.42 2.86.9 5.685 1.406 8.5 2.263.71 4.553 1.376 6.813 2.093 5.038 1.6 6.707 2.672 6.686 4.22-.025 1.657.383 1.87 1.72.874 1.27-.946 8.393 1.49 29.436 9.968 15.29 6.16 27.732 11.39 27.625 11.656-.107.265-1.433 1.91-2.968 3.656-.932 1.06-1.9 2.104-2.814 3.188l-13.656-4.813-13.563-4.843c-1.556 4.385-3.014 8.788-4.312 13.25-.497 1.71-.897 3.278-1.25 4.687-1.487 5.903-1.874 9.067-1.406 9.437.48.38.886 2.793.936 5.25.05 2.457.604 4.554 1.188 4.75.583.195 1.436.55 1.875.718.438.168.4 3.14 0 6.688-.244 2.15-.443 4.345-.626 6.5 3.283.535 6.527 1.037 9.812 1.562 3.285.526 6.557 1.047 9.844 1.563-.16 1.297-.332 2.575-.47 3.875-.226 2.145-.66 3.882-1.093 3.844-.432-.038-4.628-1.366-9.218-3.125-4.592-1.76-8.828-3.365-9.5-3.438-.922-.1-1.52 1.822-1.97 7.875-.392 5.287-.83 7.98-1.47 7.75-.846-.307-1.823 1.94-2.593 6.062-.77 4.12-1.255 10.084-1.156 17.093.086 5.948.176 9.395.064 11.407-.113 2.01-.448 2.606-1.157 2.968-1.025.525-1.4 1.385-.875 6.25.225 2.085.674 4.88 1.344 8.72.82 4.695 1.785 9.418 2.875 14.062l2.126-.532c1.067-.25 1.656-.364 2.25.907.594 1.27 1.198 3.895 2.656 9.062 2.164 7.663 2.973 11.015 2.5 12.655-.25.87-.17 2.213.532 4.75.7 2.538 2.017 6.253 4.312 11.72 2.887 6.874 4.597 10.275 5.688 11.937 1.09 1.66 1.585 1.6 2.5 1.25 1.03-.394 2.416-.962 3.03-1.188.616-.226 1.97.258 3.063 1.03 1.047.742 1.85.965 4.063-.56 2.212-1.527 5.815-4.83 12.875-10.75 2.35-1.972 3.497-2.467 3.97-1.72.366.58 1.637 2.56 2.75 4.375 1.11 1.816 3.222 5.03 4.75 7.093.378.51.677.997 1 1.47 2.144 3.168 3.01 5.47 2.03 6.092-.368.234-2.157-1.956-3.875-4.843l-.094-.063c-1.018-1.704-2-3.42-2.97-5.157l-6.155 3.437c-4.145 2.31-5.978 3.802-5.53 4.594.48.85-1.257 2.135-6.25 4.313-6.662 2.905-6.984 3.035-5.72 5.218.916 1.578.858 2.425-.218 2.72-.634.173-1.288-.103-2.343-1.313-1.057-1.21-2.523-3.332-4.69-6.938-3.69-6.145-5.806-9.943-7.405-12.03-1.6-2.09-2.6-2.45-3.75-1.94-1.334.594-2.326.046-3.344-1.81-1.1-2.01-2.054-2.487-4.218-1.94-.94.24-1.964.453-2.906.69 1.904 4.613 4.02 9.256 6.188 13.75 2.167 4.492 4.417 8.896 6.843 13.25l-4.218 2.343c-3.343 1.862-4.003 2.814-3.345 4.687.395 1.125 1.042 2.73 2.03 4.688 1.93 3.82 4.95 8.986 8.814 14.687 3.86 5.7 8.612 11.97 13.75 17.874 4.618 5.31 9.43 10.357 14.436 15.28 2.322-2.382 4.61-4.715 6.938-7.092 4.162-4.252 7.357-6.79 7.875-6.25.476.497 1.664 1.44 2.655 2.03 1.584.944.516 2.438-9.344 12.813-9.464 9.96-10.985 12.077-9.686 13.407.846.866 2.113 2.556 2.875 3.812.76 1.256 2.156 2.708 3.06 3.22.906.51 2.21 1.313 2.876 1.78.667.467 2.494 1.16 4.063 1.5 2.505.543 4.08-.764 12.81-11l9.907-11.72c1.924 1.63 3.873 3.276 5.844 4.845 1.982 1.576 4.006 2.998 5.407 3.968.9.623 1.523 1.067 1.782 1.187.66.308 3.18 4.24 5.842 8.657 1.614 2.677 3.26 5.323 5 7.968-.955 1.533-1.857 3.06-2.812 4.594-1.576 2.53-4.47 9.544-6.313 15.688-2.856 9.53-4.18 14.572-5.375 17.03-1.195 2.46-2.247 2.338-4.156 1.845-3.906-1.01-4.146-1.76-2.094-8.188.452-1.414.945-2.81 1.407-4.22-1.45 1.088-2.91 2.148-4.376 3.22-3.183 2.326-5.033 2.806-6.625 1.78-5.762-3.71-10.78-6.892-13.533-8.343-.91-.48-1.575-.73-1.937-.782-2.01-.284-2.028.73.156 3.125 1.314 1.44 3.456 3.396 6.406 5.782 2.633 2.128 5.263 4.176 7.97 6.218-1.474 2.8-2.92 5.567-4.376 8.375-2.402 4.634-4.903 10.46-5.562 12.938-.4 1.503-.77 3.023-1.157 4.53 1.144-1.548 2.204-3.04 3.344-4.593 1.882-2.56 4.2-5.437 5.095-6.312.896-.875 3.158-3.64 5.062-6.188 1.154-1.543 2.35-3.14 3.5-4.687 1.937.873 3.833 1.765 5.782 2.594 4.53 1.93 6.737 2.96 8.81-.25 2.075-3.21 3.942-10.708 8.69-25.657 1.597-5.033 2.54-7.708 3.5-9.312.957-1.604 1.97-2.145 3.75-2.97 3.01-1.393 4.97-1.323 10.217 0 3.59.907 6.7 1.277 6.875.94.175-.34.65-.38 1.094-.064.443.315 2.537.876 4.594 1.25 2.057.374 8.426 2.947 14.28 5.375 3.01 1.247 6.02 2.41 9.064 3.53L240.66 484.7c-47.957-12.83-83.28-56.562-83.28-108.563 0-62.073 50.332-112.407 112.405-112.407S382.19 314.064 382.19 376.137c0 53.258-37.084 97.812-86.81 109.406l29.342 65.094c4.063-1.23 8.095-2.542 12.032-4.063-2.752 4.192-5.507 8.34-8.344 12.344l21.22 47.062c2.54-1.523 5.07-3.06 7.56-4.687 3.77-2.46 7.48-5.056 11.157-7.72-.426 1.008-.867 1.98-1.312 2.97-.445.99-.85 1.998-1.313 2.97.708-1.136 1.318-2.277 2-3.44 2.077-3.537 6.065-7.43 5.47-5.06-.178.704.513.122 1.5-1.345 1.492-2.222 2.004-2.63 3.187-2.406.988.186 1.518-.14 1.717-1.094.345-1.643 4.803-5.57 6.157-5.313.526.1 1.39 1.18 1.875 2.344.43 1.034.574 1.594-.314 2.655-.888 1.062-2.785 2.633-6.687 5.532-3.947 2.93-5.993 4.273-6.97 4.687-.977.415-.868-.162-.688-1.344.123-.796.2-1.6.313-2.406-.325.96-.69 1.93-1.03 2.875-.562 1.56-1.715 3.274-2.564 3.843-1.616 1.084-1.583 1.913.064 4.28.752 1.484.992 2.06 1.03 2.25-.202-.17.004.173 0 .032.052.045.112.102.22.22l3.906 7.874 3.844 7.905c1.835-.848 3.713-1.706 5.53-2.593 1.5-.732 5.022-2.544 9.438-5 4.417-2.456 9.71-5.542 14.75-8.813.302-.196.575-.43.875-.626 5.838-3.508 11.542-7.21 17.094-11.156l3.032 4.22c1.698 2.408 2.58 3.654 4.375 3.436 1.795-.218 4.47-1.833 9.688-5.312 2.217-1.48 4.446-2.988 6.625-4.532l12.812 15.625c9.562 11.656 13.338 15.416 14.97 14.907 1.198-.375 7.546-4.085 13.968-8.532 5.72-3.96 8.625-6.17 11.25-8.718 2.624-2.547 4.965-5.45 9.22-11.188 2.893-3.904 5.7-7.83 8.405-11.844l-43.78-36.625L433.22 508.2c.67-.802 1.374-1.628 2.032-2.438.658-.81 1.292-1.587 1.937-2.407 6.113 4.5 12.202 8.948 18.345 13.407 10.136 7.356 28.663 21.24 41.125 30.906l22.656 17.562c.722-.93 1.477-1.873 2.188-2.812 3.918-5.17 7.632-10.446 11.218-15.844 4.24-6.378 8.27-12.895 12.032-19.562-.683-.446-1.35-.9-2.032-1.344-1.125-.734-3.45-1.94-5.156-2.72-3.117-1.426-4.518-6.756-2.344-8.75.583-.533.61-1.163.157-1.405-.512-.27 1.353-4.372 4.467-10.844 2.026-4.21 3.13-6.913 3.657-8.595.526-1.68.488-2.35 0-2.562-.672-.29-.81-1.484-.313-2.656.786-1.848-2.377-3.5-24.03-12.5l-24.97-10.375c1.112-2.673 2.113-5.416 3.126-8.125 1.354-3.62 1.982-5.723 2.156-7.032.175-1.308-.095-1.797-.78-2.343-1.254-.997-1.25-1.95 0-5.282.844-2.25 1.398-4.524 1.25-4.937-.148-.413-3.99-1.912-8.5-3.344s-8.09-2.93-7.97-3.376c.078-.284 3.425.37 8.438 1.563 2.877.684 6.354 1.517 10 2.5 11.928 3.216 18.38 4.53 18.812 3.687.362-.707 1.215-1.2 1.875-1.03.692.177 1.403-.517 2.25-2.407.848-1.89 1.85-5.006 2.97-9.688.53-2.22 1.028-4.392 1.5-6.626 1.913.214 3.773.417 5.687.625 5.512.6 9.785-.683 11.625-3.532.475-.738 1.305-4.402 1.78-8.188.703-5.594 1.082-6.843 2.344-6.718 1.9.187 3.8-3.685 3.906-8.188.042-1.84.19-6.39.25-10.062.1-6.022-.193-6.7-2.125-6.72-1.18-.01-2.305-.8-2.5-1.78-.265-1.33-6.91-1.897-26.438-2.188-8.716-.13-17.44-.312-26.156-.406-.38-2.225-.802-4.424-1.25-6.625-.736-3.632-1.773-8.466-2.25-10.844-.288-1.442-.62-2.945-.936-4.376 17.29-1.92 34.62-3.816 51.906-5.78 17.286-1.967 34.532-3.99 51.812-6-.31-3.2-.688-6.403-1.093-9.595-.802-6.306-1.71-12.567-2.876-18.813-1.754-9.41-3.993-18.714-6.563-27.938l-56.28 16.312-56.344 16.312c-.44-2.928-.342-6.373-.687-8.406.903-.37 24.135-11.686 51.655-23 27.63-11.36 28.668-11.82 32.844-13.72 34.548-14.952 36.343-46.92 29.03-62.905-7.313-15.986-31.314-31.26-60.094-15-6.18 3.515-9.005 4.732-35.5 24.062-16.058 11.716-32.07 23.355-48.156 35.032-.756-1.05-1.568-2.088-2.344-3.125-1.28-1.712-2.183-3.528-2.03-4.125.15-.597-.414-1.943-1.19-2.907-1.337-1.662-.994-1.962 6.19-7.468 7.08-5.43 7.47-5.964 6.06-7.657-1.13-1.36-1.06-2.362.408-4 1.074-1.197 1.467-2.424.843-2.718-.623-.295-.432-.687.407-.875 1.09-.245.97-.86-.313-2.313-.986-1.12-1.802-1.606-1.874-1.032-.095.777-1.89 1.475-3.812 1.812-1.922.337-4.034.322-4.625-.312-.766-.82-2.633.6-7.5 5.594-2.17 2.225-4.294 4.44-6.47 6.656-.787-.837-1.607-1.675-2.406-2.5-1.32-1.36-2.718-2.158-3.063-1.813-.344.346-2.186-.963-4.124-2.812-1.175-1.12-2.3-2.188-3.5-3.28 4.955-5.133 9.92-10.273 14.906-15.376 13.495-13.814 14.85-15.43 13.875-17.313-.62-1.198-.36-2.955.625-4.062 1.116-1.253 1.246-2.807.313-4.438-.79-1.382-.987-2.987-.47-3.594 1.1-1.285 1.042-2.897-.31-5-1.354-2.102-4.057-4.703-8.345-7.968-.172-.132-.303-.25-.47-.375-3.734-2.828-5.755-4.197-6.936-4.688-1.182-.492-1.538-.15-2.125.687-.794 1.128-2.157 1.42-3.814.718-2.46-1.04-3.047-.46-11.406 11.844-7.575 11.15-11.117 16.43-13.25 18.655-2.133 2.227-2.914 1.43-5.094.47-4.225-1.86-4.547-2.596-3.125-7.25.525-1.714.564-3.707.095-4.376-.75-1.07-.394-2.307 1.78-6.876.95-1.994-1.38-1.067-3.75 1.563-2.162 2.4-2.444 2.423-6.374.468-3.26-1.62-4.174-2.418-4-3.812.123-.978-.478-2.09-1.31-2.5-.834-.41-1.133-1.492-.72-2.344.412-.853.33-1.997-.156-2.563-.486-.567-1.18-.326-1.563.468-.456.94-.836.93-1.093.063-.182-.618-2.035-1.885-5.437-3.594-3.402-1.708-8.337-3.86-14.594-6-4.164-1.423-5.095-1.315-5.562.094-.41 1.234-1.374 1.36-3.5.687-2.098-.664-2.705-1.308-2.344-2.5.274-.906.01-2.08-.563-2.562-.62-.53-1.426.486-2.03 2.562-.853 2.93-1.466 3.404-3.97 3.188-.586-.05-1.132-.1-1.625-.156-5.06-.584-5.34-1.887-4-8.97.863-4.557 1.84-7.075 2.657-6.874 1.538.378 2.953-4.423 1.5-5.22-.744-.406-1.014-7.423-1.19-16-.174-8.575-.292-18.72.157-25.436.428-6.385.69-14.92.625-18.907-.124-7.65.494-18.44 1.407-27.468.91-9.028 2.21-16.252 3.436-16.688 3.216-1.142 2.653-5.418-1.03-7.25-2.387-1.187-3.616-1.254-5.907-.25-3.114 1.364-3.12 5.32-.095 6.78 1.277.62.793 3.007-1.406 7.814-1.732 3.783-2.74 7.215-2.345 7.656.358.4-1.25 6.604-3.03 12.875-1.784 6.27-3.718 12.607-4.376 13.437-.615.773-3.288.488-5.94-.25-2.65-.74-5.334-1.93-5.936-3.032-.61-1.11-1.136-7.264-1.563-14.906-.426-7.643-.73-16.78-.624-23.75.075-4.89-.368-10.383-.937-12.25-.742-2.43-.243-3.7 1.81-4.438 3.482-1.25 2.84-6.484-1.03-7.5-3.31-.87-6.415.33-7.938 2.03-1.522 1.7-1.467 3.842 1.563 4.907 1.948.684 2.104 2.374.687 7.437-1.005 3.594-2.827 12.233-3.968 19.187-1.14 6.955-2.286 13.65-2.657 14.906-.37 1.258-1.438 5.517-2.343 9.375-.906 3.86-1.8 7.557-1.97 8.282-.17.724-.564 3.58-.843 6.375-.277 2.794-.97 5.12-1.624 5.093-.654-.027-2.71-3.84-4.687-8.375-1.2-2.748-2.485-5.453-3.75-8.187-.68 1.036-1.306 2.085-1.97 3.125-1.096 1.716-2.893 5.358-3.97 8.125-2.07 5.33-4.417 6.722-4.686 2.656-.088-1.34-.39-3.413-.688-4.626-.298-1.212-1.11-5.904-1.875-10.437-.765-4.533-1.776-9.113-2.124-10.157-.882-2.645-3.26-16.982-4.594-27-.613-4.61-1.732-9.928-2.5-11.78-.942-2.275-.733-3.623.844-4.157 2.84-.962 3.535-4.448 1.188-6.47-.94-.807-2.175-1.256-3.5-1.31h-.032c-.276-.013-.532-.02-.812 0zm-7.438 68.062c1.117-.102 1.65.597 1.25 1.688-1.03 2.807-3.345 3.382-3.218.78.062-1.257.924-2.372 1.968-2.468zm62.532.75c1.19.13 2.82 1.377 2.78 2.75-.03 1.06-.172 1.892-.312 1.875-1.17-.144-3.762-2.78-3.656-3.75.055-.502.3-.766.688-.845.145-.03.33-.05.5-.03zm-70.125.938c.677-.08 1.136 1.46 1.03 3.437-.107 1.975-.444 3.646-.78 3.687-.34.04-.86-1.5-1.095-3.438-.235-1.938.165-3.61.844-3.688zm78.842.937c.682.096 1.114 1.137.938 2.343-.177 1.206-1.026 2.15-1.875 2.03-.85-.118-1.282-1.222-.938-2.405.345-1.183 1.194-2.066 1.875-1.97zm-2.03 5.78c.037-.017.053-.03.093 0 .08.063.15.242.22.47.273.908.033 2.12-.47 2.655-.504.536-.698-.18-.47-1.625.116-.722.303-1.23.47-1.406.042-.044.12-.077.156-.094zm-54.688 120.47l1.78 11.843-9.5 1.406-.718-4.75-8.062 1.187 1.375 9.343 10.186-1.53 1.063 7.124-10.158 1.53 1 6.845 5.47-.876 1.093 7.156-19.97 3-1.06-7.156 3.342-.47-3.53-23.28-3.313.5-1.063-7.094 32.064-4.78zm23.937 10.155c.32-.01.652-.008 1 0l-.218 9.72c-4.877-.11-7.674 1.074-7.78 5.843l-.126 5.594 2.688.062-.125 7.125-15.345-.376.156-7.094 2.376.063.313-12.97-2.345-.06.156-7.033 10.19.25 1.56 3.5c1.377-2.408 2.737-4.478 7.5-4.625zm16.657 3.125c.972.025 1.965.15 2.97.344 6.33 1.232 10.514 5.418 11.187 10.188.276 1.986.082 6.216-1.625 9.03l-16.75-3.28c.038 1.498.155 4.567 4.624 5.437 1.81.35 4.598.74 7.937-1.095l3.47 6.032c-4.6 2.638-9.092 3.014-14.625 1.937-6.597-1.284-13.238-6.94-11.25-17.156 1.486-7.635 7.263-11.612 14.062-11.438zm.75 7.5c-2.43.128-3.492 2.417-3.812 3.563l8.062 1.562c.34-2.032.28-4.368-3.125-5.03-.405-.08-.777-.113-1.125-.095zm27.125 1.157c2.284-.122 4.696.313 7.063 1.28 5.97 2.443 9.27 7.38 9 12.188-.116 2.003-1.12 6.072-3.344 8.5l-15.78-6.437c-.253 1.478-.746 4.464 3.47 6.187 1.704.698 4.397 1.65 8.03.5l2.187 6.594c-5.025 1.692-9.5 1.196-14.718-.938-6.222-2.545-11.63-9.4-7.69-19.032 2.315-5.656 6.758-8.575 11.782-8.843zm3 7.812c-.164-.004-.315.012-.468.03-1.835.224-2.978 1.84-3.438 2.75l7.563 3.125c.728-1.927 1.178-4.218-2.033-5.53-.573-.236-1.13-.366-1.625-.376zm-142.125 2.812c3.327-.027 6.52 1.3 8.782 5.03l5.467 9.032 2.782-1.656 3.592 5.937-9.906 6-2.406-1.406c-.283 3.403-2.77 5.738-4.438 6.75-4.404 2.667-10.555 3.158-13.812-2.22-3.173-5.238-.77-11.202 4.47-14.375 2.734-1.656 5.16-1.294 5.56-1.156l-.968-1.626c-1.263-2.086-3.496-1.422-6 .094-2.735 1.657-4.453 4.24-5.625 6.28l-5.187-4.155c1.18-2.236 3.828-6.854 8.094-9.438 2.78-1.684 6.267-3.067 9.593-3.093zm194.75 11.406c.353-.02.68-.012 1.032 0 3.61.12 7.108 1.915 9.25 4 3.26 3.176 5.53 7.42 4.25 11.844l3.56-2.907 6.657 6.5-9.468 9.782-7.033-6.875c2.8-2.874 2.125-6.697-.593-9.344-1.127-1.097-3.364-1.89-4.688-.53-3.895 3.998 12.418 18.03 3.53 27.155-5.898 6.058-13.69 2.72-18.31-1.78-3.923-3.82-4.883-8.286-4.657-11.47l-3.345 2.562-6.78-6.625 9.53-9.75 7.22 7c-3.178 3.262-.432 6.99 1.124 8.657 1.358 1.323 3.598 2.912 5.186 1.28 2.95-3.028-13.205-16.284-3.562-26.187 2.142-2.2 4.627-3.167 7.093-3.312zm-193.093 5.53c-.533.04-1.176.184-1.907.626-1.854 1.123-2.026 2.657-1.156 4.094.787 1.298 2.392 1.53 3.782.687 1.39-.842 2.004-2.364 2-3.312l-1.03-1.75c-.176-.092-.8-.408-1.688-.344zm-29.625 2.72c3.387-.042 6.4 2.288 8.874 4.844l6.312 6.53 1.813-1.78 4.936 5.125-9.812 9.468-10.282-10.625c-1.28-1.324-3.39-3.755-5.687-1.53-1.986 1.922-.56 4.324 1.062 6l5.313 5.53 2.812-2.687 4.938 5.094-11.97 11.593-4.936-5.093 1.625-1.594-9-9.313-1.658 1.625-4.875-5.093 8.282-8.032 3.217 1.563c-.447-3.112.11-6.125 2.563-8.5 2.264-2.19 4.436-3.1 6.47-3.125zm-21.314 27.687c2.743-.09 5.637.675 8.5 2.5 7.56 4.883 8.178 13.322 3.625 20.188-4.282 6.46-12.407 10.05-20.343 4.656-7.513-5.05-7.665-13.955-3.53-20.188 3.014-4.424 7.177-7.008 11.75-7.157zm261.28 1.594c5.178-.152 9.93 2.805 12.72 7.124 4.556 7.253 3.672 15.39-3.844 20.438-7.5 4.973-15.436 2.17-19.906-4.75-4.206-6.51-4.242-15.386 3.875-20.5 2.386-1.52 4.804-2.244 7.157-2.313zm-264.81 8.155c-.99.09-1.8.528-2.345 1.313-1.167 1.762.58 4.876 3.876 7.062 3.704 2.457 7.086 2.616 8.344.72 1.288-1.943-.58-4.817-3.97-7.063-2.116-1.404-4.257-2.18-5.905-2.032zm269.468 1.657c-.32-.03-.672-.002-1.032.03-1.44.132-3.182.77-4.843 1.845-3.735 2.41-5.205 5.43-3.97 7.343 1.265 1.958 4.616 1.394 8.03-.812 3.416-2.206 5.307-5.112 3.97-7.28-.43-.667-1.195-1.038-2.156-1.126zm-300.938 10.562l30.625 13.656 1.314-2.906 6.5 2.875-6.438 14.468-6.5-2.875.938-2.156-24.25-10.813-.938 2.094-6.375-2.875 5.126-11.47zm327.844 3.063c2.983-.037 6.47 1.365 8.875 6.968 1.112 2.59 1.998 6.27 1.906 7.844l-7-.5c.015-.656-.14-1.625-.718-2.97-.47-1.095-1.488-1.207-3.28-.437l-4.25 1.812 1.937 4.532-6.47 2.78-1.938-4.53-11.906 5.093 1.25 3-6.5 2.782-6.375-14.844 6.532-2.78.844 2 11.938-5.126-.875-2.063 6.467-2.782.875 2.062 4.22-1.812c1.064-.457 2.678-1.01 4.468-1.03zm-1.125 21.093l.78 2.813 4.814-1.375 5.78 8.75-7.875 2.25 1.437 4.906-6.812 1.938-1.406-4.938-9.282 2.625c-1.773.502-4.264.81-3.687 2.843.192.678 1.114 2.19 1.812 3.062l-6.687 1.875c-1.07-1.387-2.44-4.83-2.78-6.03-2.22-7.823 1.993-9.296 8.624-11.345l9.28-2.625-.78-2.812 6.78-1.938zm-314.188.157c2.18.03 5.71.618 8.063 2.28l-4.47 16.5c1.5.066 4.57.148 5.75-4.25.48-1.78 1.067-4.51-.53-7.968l6.25-3.063c2.31 4.773 2.4 9.274.937 14.718-1.742 6.492-7.855 12.73-17.906 10.032-8.584-2.305-11.996-9.846-9.874-17.75 1.672-6.23 6.133-10.13 10.938-10.47.25-.016.532-.035.843-.03zm-1.125 9.062c-.192-.006-.375.01-.562.03-1.25.142-2.375.906-2.938 3-.857 3.194 1.814 4.67 3.094 5.125l2.156-7.875c-.563-.135-1.174-.267-1.75-.28zm322.594 12.718l.844 14.562-7.03.407-.095-1.844-3.906 1.406c-2.556.904-6.157 1.615-7.72 1.812v.093c2.228.037 7.394.18 12.844 1.5l6.187 1.407.532 10-6.906 2.468c-4.093 1.535-9.712 2.677-11.594 3v.063c1.74.064 5.71.35 8.625 1l3.25.75-.156-2.22 7.064-.436.75 13.218-7.032.407-.125-2.22-20.406-5.187-.624-11.437 12-4.406-12.437-3.22-.626-11.124 19.656-7.25-.094-2.344 7-.406zm-337 7.937l12.22.875-.595 7.97c-2.602-.08-5.695.512-5.874 3-.23 3.19 3.05 4.996 6.563 5.25 3.513.252 6.445-1.67 6.75-5.126.26-2.86-.778-4.825-2.595-6.75l5.875-4.375c2.574 2.74 4.952 7.817 4.53 13.655-.57 7.948-5.845 14.506-15.468 13.813-9.57-.69-13.404-7.36-12.906-14.28.265-3.678 2.446-5.69 3.594-6.533l-2.563-1.125.47-6.375zm6.78 30.72c.475 4.854 1.973 7.525 6.72 7.062l5.563-.532-.25-2.75 7.06-.656 1.5 15.25-7.093.687-.218-2.344-12.908 1.22.25 2.342-7.03.688-1-10.156 3.312-1.938c-2.727-1.15-5.083-2.35-5.625-7.907l9.717-.97zm310.69 8.687c.695-.027 1.384.034 2.155.187 6.01 1.19 8.785 6.99 7.595 13-.622 3.136-2.503 4.703-2.875 4.905l1.875.375c2.392.474 3.37-1.597 3.937-4.468.622-3.137-.158-6.165-.875-8.407l6.625-1.03c.855 2.38 2.47 7.45 1.5 12.343-1.264 6.38-5.283 13.946-13.843 12.25l-10.345-2.063-.625 3.188-6.813-1.313 2.25-11.375 2.657-.843c-2.322-2.505-2.38-5.93-2-7.844.875-4.42 3.91-8.72 8.78-8.906zm.186 10.343c-1.24.02-2.254 1.01-2.53 2.407-.317 1.595.36 3.113 1.062 3.75l2.03.375c.298-.107 1.746-.61 2.188-2.844.422-2.127-.57-3.298-2.218-3.625-.186-.037-.354-.065-.532-.063zm-290.406 1.657l3.313 11.093-1.97 1.97c3.222 1.132 4.88 4.13 5.437 6 1.47 4.934.4 11.048-5.625 12.843-5.87 1.748-11.064-2.13-12.812-8-.913-3.065.078-5.304.312-5.656l-1.812.53c-2.338.697-2.304 2.977-1.47 5.782.914 3.065 3.01 5.414 4.69 7.063l-5.345 3.968c-1.866-1.706-5.64-5.44-7.063-10.218-1.856-6.234-1.863-14.79 6.5-17.282l10.125-3.03-.906-3.126 6.626-1.938zm-3.406 15.875l-1.97.593c-.212.234-1.243 1.32-.593 3.5.62 2.078 2.015 2.668 3.625 2.188 1.455-.433 2.12-1.91 1.657-3.47-.466-1.557-1.802-2.576-2.72-2.81zm280.687 3.406l6.563 2.687-.906 2.22 11.968 4.937.875-2.157 6.532 2.657-3.908 9.437-3.812.188c1.87 2.293 3.407 4.462 1.28 9.625l-9.06-3.72c1.856-4.51 1.784-7.558-2.626-9.374l-5.157-2.125-1.03 2.5-6.563-2.688 5.843-14.187zm-272.218 14.72c3.992-.056 7.558 2.82 11.186 9.03l10.375 17.78-6.093 3.564-1.562-2.72-20.594 12.032 1.564 2.718-6.032 3.53-10.187-17.468c-4.54-7.768-3.79-13.144 1.312-16.125 3.932-2.296 6.452-2.345 9.907.344-1.033-3.917-.165-8.192 4.375-10.845 2.06-1.204 3.933-1.818 5.75-1.843zm267.905 8.186c.327-.015.664-.012 1 0 2.44.084 5.088.866 7.844 2.593 7.53 4.72 8.596 12.94 4.25 19.875-3.427 5.465-8.84 7.9-13.533 6.812-1.952-.456-5.83-2.175-7.843-4.78l9.062-14.47c-1.413-.5-4.3-1.482-6.72 2.375-.977 1.562-2.354 4.006-1.842 7.782l-6.844 1.093c-.81-5.24.443-9.598 3.437-14.375 2.3-3.67 6.276-6.694 11.188-6.906zm-266 3.905c-.685.067-1.383.304-2.094.72-2.386 1.394-3.315 3.738-1.81 6.312l2.06 3.593 8.19-4.75-2.22-3.75c-.718-1.228-1.97-2.034-3.438-2.125-.22-.013-.46-.022-.687 0zm-11.906 8.907c-.718.077-1.47.382-2.314.875-2.153 1.257-2.664 3.315-1.625 5.093l1.72 2.97 7.03-4.126-1.686-2.844c-.906-1.55-1.932-2.097-3.125-1.968zm283.186.218l-4.375 6.938c1.775 1.048 3.97 1.845 5.814-1.094 1.756-2.8-.347-5.032-1.438-5.844z" fill="#c94328"/></svg>