<svg xmlns="http://www.w3.org/2000/svg" xmlns:xlink="http://www.w3.org/1999/xlink" width="587" height="76" viewBox="0 0 587 76">
  <defs>
    <polygon id="ilovefs-a" points=".463 75.486 448.179 75.486 448.179 .486 .463 .486"/>
    <polygon id="ilovefs-c" points=".463 75.486 448.179 75.486 448.179 .486 .463 .486"/>
  </defs>
  <g fill="none" fill-rule="evenodd" transform="translate(0 -1)">
    <g transform="matrix(1 0 0 -1 138.224 76.776)">
      <mask id="ilovefs-b" fill="#fff">
        <use xlink:href="#ilovefs-a"/>
      </mask>
      <g mask="url(#ilovefs-b)">
        <g transform="translate(0 -5)">
          <g transform="translate(0 5)">
            <mask id="ilovefs-d" fill="#fff">
              <use xlink:href="#ilovefs-c"/>
            </mask>
            <g mask="url(#ilovefs-d)">
              <g transform="translate(-376.25 -1.25)">
                <polygon fill="#8A0014" points="376.713 76.736 824.429 76.736 824.429 1.736 376.713 1.736"/>
                <path fill="#8A0014" d="M0.642,76.729125 C0.642,118.55925 170.998125,152.46825 381.14925,152.46825 C591.3,152.46825 761.656125,118.55925 761.656125,76.729125 C761.656125,34.898875 591.3,0.98975 381.14925,0.98975 C170.998125,0.98975 0.642,34.898875 0.642,76.729125 Z"/>
                <path fill="#8B0014" d="M5.56875,76.728625 C5.56875,118.015625 173.712125,151.484375 381.133375,151.484375 C588.554375,151.484375 756.697625,118.015625 756.697625,76.728625 C756.697625,35.441625 588.554375,1.973 381.133375,1.973 C173.712125,1.973 5.56875,35.441625 5.56875,76.728625 Z"/>
                <path fill="#8D0115" d="M10.547125,76.728125 C10.547125,117.471875 176.478875,150.500375 381.172125,150.500375 C585.865375,150.500375 751.797375,117.471875 751.797375,76.728125 C751.797375,35.984625 585.865375,2.956125 381.172125,2.956125 C176.478875,2.956125 10.547125,35.984625 10.547125,76.728125 Z"/>
                <path fill="#8E0116" d="M15.473875,76.727875 C15.473875,116.928375 179.19275,149.51625 381.15625,149.51625 C583.11975,149.51625 746.838875,116.928375 746.838875,76.727875 C746.838875,36.527375 583.11975,3.9395 381.15625,3.9395 C179.19275,3.9395 15.473875,36.527375 15.473875,76.727875 Z"/>
                <path fill="#8F0216" d="M20.400625,76.7275 C20.400625,116.384875 181.906625,148.532375 381.140375,148.532375 C580.374125,148.532375 741.880375,116.384875 741.880375,76.7275 C741.880375,37.07025 580.374125,4.92275 381.140375,4.92275 C181.906625,4.92275 20.400625,37.07025 20.400625,76.7275 Z"/>
                <path fill="#910217" d="M25.379,76.727125 C25.379,115.841 184.67375,147.548125 381.1795,147.548125 C577.685125,147.548125 736.979875,115.841 736.979875,76.727125 C736.979875,37.613125 577.685125,5.905875 381.1795,5.905875 C184.67375,5.905875 25.379,37.613125 25.379,76.727125 Z"/>
                <path fill="#920318" d="M30.30575,76.726625 C30.30575,115.297125 187.387625,146.56425 381.163625,146.56425 C574.9395,146.56425 732.021375,115.297125 732.021375,76.726625 C732.021375,38.155875 574.9395,6.889125 381.163625,6.889125 C187.387625,6.889125 30.30575,38.155875 30.30575,76.726625 Z"/>
                <path fill="#930418" d="M35.2325,76.726375 C35.2325,114.753625 190.1015,145.580125 381.14775,145.580125 C572.193875,145.580125 727.062875,114.753625 727.062875,76.726375 C727.062875,38.698875 572.193875,7.87225 381.14775,7.87225 C190.1015,7.87225 35.2325,38.698875 35.2325,76.726375 Z"/>
                <path fill="#950419" d="M40.2105,76.725875 C40.2105,114.210125 192.86825,144.59625 381.1865,144.59625 C569.505,144.59625 722.162375,114.210125 722.162375,76.725875 C722.162375,39.241625 569.505,8.8555 381.1865,8.8555 C192.86825,8.8555 40.2105,39.241625 40.2105,76.725875 Z"/>
                <path fill="#96051A" d="M45.13725,76.725375 C45.13725,113.666375 195.58225,143.612 381.170625,143.612 C566.75925,143.612 717.203875,113.666375 717.203875,76.725375 C717.203875,39.7845 566.75925,9.838625 381.170625,9.838625 C195.58225,9.838625 45.13725,39.7845 45.13725,76.725375 Z"/>
                <path fill="#97051A" d="M50.064375,76.725 C50.064375,113.12275 198.296125,142.628125 381.15475,142.628125 C564.013625,142.628125 712.245375,113.12275 712.245375,76.725 C712.245375,40.32725 564.013625,10.821875 381.15475,10.821875 C198.296125,10.821875 50.064375,40.32725 50.064375,76.725 Z"/>
                <path fill="#99061B" d="M54.991125,76.724625 C54.991125,112.57925 201.010125,141.64425 381.138875,141.64425 C561.268,141.64425 707.286875,112.57925 707.286875,76.724625 C707.286875,40.870125 561.268,11.80525 381.138875,11.80525 C201.010125,11.80525 54.991125,40.870125 54.991125,76.724625 Z"/>
                <path fill="#9A071C" d="M59.969125,76.724125 C59.969125,112.0355 203.77675,140.66 381.177875,140.66 C558.57875,140.66 702.38675,112.0355 702.38675,76.724125 C702.38675,41.412875 558.57875,12.788375 381.177875,12.788375 C203.77675,12.788375 59.969125,41.412875 59.969125,76.724125 Z"/>
                <path fill="#9B071C" d="M64.895875,76.723875 C64.895875,111.491625 206.491,139.676125 381.162,139.676125 C555.833125,139.676125 697.427875,111.491625 697.427875,76.723875 C697.427875,41.95575 555.833125,13.771625 381.162,13.771625 C206.491,13.771625 64.895875,41.95575 64.895875,76.723875 Z"/>
                <path fill="#9C081D" d="M69.822875,76.723375 C69.822875,110.948125 209.204625,138.692 381.146125,138.692 C553.087375,138.692 692.469375,110.948125 692.469375,76.723375 C692.469375,42.498625 553.087375,14.75475 381.146125,14.75475 C209.204625,14.75475 69.822875,42.498625 69.822875,76.723375 Z"/>
                <path fill="#9E081E" d="M74.801,76.723 C74.801,110.4045 211.971625,137.708125 381.184875,137.708125 C550.3985,137.708125 687.56925,110.4045 687.56925,76.723 C687.56925,43.0415 550.3985,15.738 381.184875,15.738 C211.971625,15.738 74.801,43.0415 74.801,76.723 Z"/>
                <path fill="#9F091E" d="M79.72775,76.722625 C79.72775,109.86075 214.685625,136.723875 381.169375,136.723875 C547.652875,136.723875 682.61075,109.86075 682.61075,76.722625 C682.61075,43.584375 547.652875,16.721125 381.169375,16.721125 C214.685625,16.721125 79.72775,43.584375 79.72775,76.722625 Z"/>
                <path fill="#A0091F" d="M84.6545,76.72225 C84.6545,109.31725 217.3995,135.74 381.1535,135.74 C544.907125,135.74 677.65225,109.31725 677.65225,76.72225 C677.65225,44.127125 544.907125,17.704375 381.1535,17.704375 C217.3995,17.704375 84.6545,44.127125 84.6545,76.72225 Z"/>
                <path fill="#A20A20" d="M89.5815,76.72175 C89.5815,108.773625 220.1135,134.75575 381.137625,134.75575 C542.1615,134.75575 672.693375,108.773625 672.693375,76.72175 C672.693375,44.67 542.1615,18.687625 381.137625,18.687625 C220.1135,18.687625 89.5815,44.67 89.5815,76.72175 Z"/>
                <path fill="#A30B20" d="M94.559625,76.721375 C94.559625,108.229875 222.880125,133.771875 381.176375,133.771875 C539.472625,133.771875 667.79325,108.229875 667.79325,76.721375 C667.79325,45.213 539.472625,19.671 381.176375,19.671 C222.880125,19.671 94.559625,45.213 94.559625,76.721375 Z"/>
                <path fill="#A40B21" d="M99.486375,76.721 C99.486375,107.68625 225.594125,132.788 381.1605,132.788 C536.726875,132.788 662.83475,107.68625 662.83475,76.721 C662.83475,45.75575 536.726875,20.654125 381.1605,20.654125 C225.594125,20.654125 99.486375,45.75575 99.486375,76.721 Z"/>
                <path fill="#A60C22" d="M104.413125,76.7205 C104.413125,107.142625 228.308,131.803875 381.144625,131.803875 C533.98125,131.803875 657.87625,107.142625 657.87625,76.7205 C657.87625,46.2985 533.98125,21.637375 381.144625,21.637375 C228.308,21.637375 104.413125,46.2985 104.413125,76.7205 Z"/>
                <path fill="#A70C22" d="M109.391375,76.72025 C109.391375,106.598875 231.075125,130.82 381.183375,130.82 C531.292,130.82 652.97575,106.598875 652.97575,76.72025 C652.97575,46.841375 531.292,22.6205 381.183375,22.6205 C231.075125,22.6205 109.391375,46.841375 109.391375,76.72025 Z"/>
                <path fill="#A80D23" d="M114.318125,76.71975 C114.318125,106.05525 233.789,129.83575 381.167875,129.83575 C528.54675,129.83575 648.01725,106.05525 648.01725,76.71975 C648.01725,47.38425 528.54675,23.60375 381.167875,23.60375 C233.789,23.60375 114.318125,47.38425 114.318125,76.71975 Z"/>
                <path fill="#AA0E24" d="M119.244875,76.71925 C119.244875,105.51175 236.502875,128.851875 381.152,128.851875 C525.801,128.851875 643.05875,105.51175 643.05875,76.71925 C643.05875,47.927 525.801,24.586875 381.152,24.586875 C236.502875,24.586875 119.244875,47.927 119.244875,76.71925 Z"/>
                <path fill="#AB0E24" d="M124.17175,76.719 C124.17175,104.967875 239.216875,127.867625 381.13575,127.867625 C523.055375,127.867625 638.10025,104.967875 638.10025,76.719 C638.10025,48.46975 523.055375,25.570125 381.13575,25.570125 C239.216875,25.570125 124.17175,48.46975 124.17175,76.719 Z"/>
                <path fill="#AC0F25" d="M129.15,76.7185 C129.15,104.424375 241.983625,126.88375 381.174875,126.88375 C520.366125,126.88375 633.2,104.424375 633.2,76.7185 C633.2,49.01275 520.366125,26.553375 381.174875,26.553375 C241.983625,26.553375 129.15,49.01275 129.15,76.7185 Z"/>
                <path fill="#AE0F26" d="M134.07675,76.718125 C134.07675,103.88075 244.6975,125.899625 381.159,125.899625 C517.6205,125.899625 628.24125,103.88075 628.24125,76.718125 C628.24125,49.555625 517.6205,27.5365 381.159,27.5365 C244.6975,27.5365 134.07675,49.555625 134.07675,76.718125 Z"/>
                <path fill="#AF1026" d="M139.0035,76.71775 C139.0035,103.337 247.411375,124.91575 381.143125,124.91575 C514.874875,124.91575 623.28275,103.337 623.28275,76.71775 C623.28275,50.098375 514.874875,28.519875 381.143125,28.519875 C247.411375,28.519875 139.0035,50.098375 139.0035,76.71775 Z"/>
                <path fill="#B01027" d="M143.981875,76.717375 C143.981875,102.793375 250.178125,123.931875 381.18225,123.931875 C512.185875,123.931875 618.3825,102.793375 618.3825,76.717375 C618.3825,50.64125 512.185875,29.503125 381.18225,29.503125 C250.178125,29.503125 143.981875,50.64125 143.981875,76.717375 Z"/>
                <path fill="#B21128" d="M148.908625,76.716875 C148.908625,102.24975 252.892125,122.947625 381.166375,122.947625 C509.44025,122.947625 613.424,102.24975 613.424,76.716875 C613.424,51.184 509.44025,30.48625 381.166375,30.48625 C252.892125,30.48625 148.908625,51.184 148.908625,76.716875 Z"/>
                <path fill="#B31228" d="M153.835375,76.7165 C153.835375,101.706125 255.606,121.9635 381.1505,121.9635 C506.694625,121.9635 608.4655,101.706125 608.4655,76.7165 C608.4655,51.726875 506.694625,31.469375 381.1505,31.469375 C255.606,31.469375 153.835375,51.726875 153.835375,76.7165 Z"/>
                <path fill="#B41229" d="M158.762125,76.716125 C158.762125,101.1625 258.32,120.9795 381.134625,120.9795 C503.948875,120.9795 603.50675,101.1625 603.50675,76.716125 C603.50675,52.269875 503.948875,32.452625 381.134625,32.452625 C258.32,32.452625 158.762125,52.269875 158.762125,76.716125 Z"/>
                <path fill="#B5132A" d="M163.740125,76.71575 C163.740125,100.618875 261.087,119.995625 381.173375,119.995625 C501.26,119.995625 598.6065,100.618875 598.6065,76.71575 C598.6065,52.812625 501.26,33.435875 381.173375,33.435875 C261.087,33.435875 163.740125,52.812625 163.740125,76.71575 Z"/>
                <path fill="#B7132A" d="M168.66725,76.715375 C168.66725,100.075125 263.800875,119.0115 381.1575,119.0115 C498.514375,119.0115 593.648,100.075125 593.648,76.715375 C593.648,53.3555 498.514375,34.41925 381.1575,34.41925 C263.800875,34.41925 168.66725,53.3555 168.66725,76.715375 Z"/>
                <path fill="#B8142B" d="M173.594,76.714875 C173.594,99.5315 266.514875,118.027625 381.141625,118.027625 C495.768625,118.027625 588.6895,99.5315 588.6895,76.714875 C588.6895,53.89825 495.768625,35.40225 381.141625,35.40225 C266.514875,35.40225 173.594,53.89825 173.594,76.714875 Z"/>
                <path fill="#B9152C" d="M178.572,76.714375 C178.572,98.987875 269.2815,117.043375 381.180625,117.043375 C493.0795,117.043375 583.789,98.987875 583.789,76.714375 C583.789,54.441125 493.0795,36.385625 381.180625,36.385625 C269.2815,36.385625 178.572,54.441125 178.572,76.714375 Z"/>
                <path fill="#BB152C" d="M183.49875,76.714125 C183.49875,98.444125 271.9955,116.0595 381.16475,116.0595 C490.33375,116.0595 578.8305,98.444125 578.8305,76.714125 C578.8305,54.984125 490.33375,37.36875 381.16475,37.36875 C271.9955,37.36875 183.49875,54.984125 183.49875,76.714125 Z"/>
                <path fill="#BC162D" d="M188.425875,76.713625 C188.425875,97.900625 274.709375,115.075375 381.148875,115.075375 C487.588125,115.075375 573.872,97.900625 573.872,76.713625 C573.872,55.526875 487.588125,38.352 381.148875,38.352 C274.709375,38.352 188.425875,55.526875 188.425875,76.713625 Z"/>
                <path fill="#BD162E" d="M193.352625,76.71325 C193.352625,97.35675 277.423375,114.091375 381.133,114.091375 C484.8425,114.091375 568.9135,97.35675 568.9135,76.71325 C568.9135,56.069625 484.8425,39.335125 381.133,39.335125 C277.423375,39.335125 193.352625,56.069625 193.352625,76.71325 Z"/>
                <path fill="#BF172E" d="M198.330625,76.712875 C198.330625,96.81325 280.19,113.10725 381.171875,113.10725 C482.153625,113.10725 564.013,96.81325 564.013,76.712875 C564.013,56.6125 482.153625,40.318375 381.171875,40.318375 C280.19,40.318375 198.330625,56.6125 198.330625,76.712875 Z"/>
                <path fill="#C0182F" d="M203.257375,76.712625 C203.257375,96.269625 282.904,112.123375 381.156,112.123375 C479.407875,112.123375 559.0545,96.269625 559.0545,76.712625 C559.0545,57.155375 479.407875,41.301625 381.156,41.301625 C282.904,41.301625 203.257375,57.155375 203.257375,76.712625 Z"/>
                <path fill="#C11830" d="M208.184125,76.712125 C208.184125,95.726 285.617875,111.13925 381.140125,111.13925 C476.66225,111.13925 554.096,95.726 554.096,76.712125 C554.096,57.698125 476.66225,42.28475 381.140125,42.28475 C285.617875,42.28475 208.184125,57.698125 208.184125,76.712125 Z"/>
                <path fill="#C31930" d="M213.1625,76.711625 C213.1625,95.182375 288.385,110.15525 381.179125,110.15525 C473.973375,110.15525 549.19575,95.182375 549.19575,76.711625 C549.19575,58.241 473.973375,43.268125 381.179125,43.268125 C288.385,43.268125 213.1625,58.241 213.1625,76.711625 Z"/>
                <path fill="#C41931" d="M218.08925,76.711375 C218.08925,94.638625 291.098875,109.171375 381.16325,109.171375 C471.227625,109.171375 544.23725,94.638625 544.23725,76.711375 C544.23725,58.78375 471.227625,44.251375 381.16325,44.251375 C291.098875,44.251375 218.08925,58.78375 218.08925,76.711375 Z"/>
                <path fill="#C51A31" d="M223.016,76.710875 C223.016,94.095125 293.81275,108.18725 381.147375,108.18725 C468.482,108.18725 539.2785,94.095125 539.2785,76.710875 C539.2785,59.32675 468.482,45.2345 381.147375,45.2345 C293.81275,45.2345 223.016,59.32675 223.016,76.710875 Z"/>
                <path fill="#C71A32" d="M227.994375,76.7105 C227.994375,93.551375 296.5795,107.20325 381.186125,107.20325 C465.793125,107.20325 534.37825,93.551375 534.37825,76.7105 C534.37825,59.8695 465.793125,46.21775 381.186125,46.21775 C296.5795,46.21775 227.994375,59.8695 227.994375,76.7105 Z"/>
                <path fill="#C81B33" d="M232.921125,76.71 C232.921125,93.00775 299.2935,106.21925 381.17025,106.21925 C463.047375,106.21925 529.41975,93.00775 529.41975,76.71 C529.41975,60.412375 463.047375,47.200875 381.17025,47.200875 C299.2935,47.200875 232.921125,60.412375 232.921125,76.71 Z"/>
                <path fill="#C91C33" d="M237.847875,76.709625 C237.847875,92.464125 302.007375,105.23525 381.154375,105.23525 C460.30175,105.23525 524.46125,92.464125 524.46125,76.709625 C524.46125,60.95525 460.30175,48.184125 381.154375,48.184125 C302.007375,48.184125 237.847875,60.95525 237.847875,76.709625 Z"/>
                <path fill="#CB1C34" d="M242.774625,76.70925 C242.774625,91.920375 304.72125,104.25125 381.1385,104.25125 C457.556125,104.25125 519.50275,91.920375 519.50275,76.70925 C519.50275,61.498 457.556125,49.167375 381.1385,49.167375 C304.72125,49.167375 242.774625,61.498 242.774625,76.70925 Z"/>
                <path fill="#CC1D35" d="M247.752875,76.708875 C247.752875,91.37675 307.488375,103.267125 381.177625,103.267125 C454.866875,103.267125 514.60225,91.37675 514.60225,76.708875 C514.60225,62.041 454.866875,50.1505 381.177625,50.1505 C307.488375,50.1505 247.752875,62.041 247.752875,76.708875 Z"/>
                <path fill="#CD1D35" d="M252.679625,76.7085 C252.679625,90.833125 310.202,102.283125 381.16175,102.283125 C452.12125,102.283125 509.64375,90.833125 509.64375,76.7085 C509.64375,62.583875 452.12125,51.133875 381.16175,51.133875 C310.202,51.133875 252.679625,62.583875 252.679625,76.7085 Z"/>
                <path fill="#CF1E36" d="M257.6065,76.708 C257.6065,90.2895 312.915875,101.299125 381.145875,101.299125 C449.3755,101.299125 504.68525,90.2895 504.68525,76.708 C504.68525,63.126625 449.3755,52.117 381.145875,52.117 C312.915875,52.117 257.6065,63.126625 257.6065,76.708 Z"/>
                <path fill="#D01F37" d="M262.58475,76.70775 C262.58475,89.745875 315.682875,100.315 381.184875,100.315 C446.686625,100.315 499.785125,89.745875 499.785125,76.70775 C499.785125,63.669375 446.686625,53.10025 381.184875,53.10025 C315.682875,53.10025 262.58475,63.669375 262.58475,76.70775 Z"/>
                <path fill="#D11F37" d="M267.5115,76.70725 C267.5115,89.20225 318.396875,99.331 381.16875,99.331 C443.941,99.331 494.82625,89.20225 494.82625,76.70725 C494.82625,64.21225 443.941,54.0835 381.16875,54.0835 C318.396875,54.0835 267.5115,64.21225 267.5115,76.70725 Z"/>
                <path fill="#D22038" d="M272.43825,76.70675 C272.43825,88.6585 321.11075,98.347125 381.152875,98.347125 C441.19525,98.347125 489.86775,88.6585 489.86775,76.70675 C489.86775,64.755125 441.19525,55.066625 381.152875,55.066625 C321.11075,55.066625 272.43825,64.755125 272.43825,76.70675 Z"/>
                <path fill="#D42039" d="M277.365,76.7065 C277.365,88.114875 323.82475,97.363125 381.137,97.363125 C438.449625,97.363125 484.90925,88.114875 484.90925,76.7065 C484.90925,65.298 438.449625,56.049875 381.137,56.049875 C323.82475,56.049875 277.365,65.298 277.365,76.7065 Z"/>
                <path fill="#D52139" d="M282.343125,76.706 C282.343125,87.57125 326.591375,96.379 381.176125,96.379 C435.76075,96.379 480.009125,87.57125 480.009125,76.706 C480.009125,65.840875 435.76075,57.033 381.176125,57.033 C326.591375,57.033 282.343125,65.840875 282.343125,76.706 Z"/>
                <path fill="#D6223A" d="M287.270125,76.705625 C287.270125,87.0275 329.305375,95.395 381.16025,95.395 C433.015125,95.395 475.050625,87.0275 475.050625,76.705625 C475.050625,66.383625 433.015125,58.01625 381.16025,58.01625 C329.305375,58.01625 287.270125,66.383625 287.270125,76.705625 Z"/>
                <path fill="#D8223B" d="M292.196875,76.70525 C292.196875,86.484 332.01925,94.411 381.144375,94.411 C430.269375,94.411 470.092125,86.484 470.092125,76.70525 C470.092125,66.9265 430.269375,58.999625 381.144375,58.999625 C332.01925,58.999625 292.196875,66.9265 292.196875,76.70525 Z"/>
                <path fill="#D9233B" d="M297.174875,76.70475 C297.174875,85.940375 334.786,93.426875 381.183375,93.426875 C427.5805,93.426875 465.191625,85.940375 465.191625,76.70475 C465.191625,67.46925 427.5805,59.98275 381.183375,59.98275 C334.786,59.98275 297.174875,67.46925 297.174875,76.70475 Z"/>
                <path fill="#DA233C" d="M302.101625,76.704375 C302.101625,85.396625 337.50025,92.442875 381.1675,92.442875 C424.834875,92.442875 460.233125,85.396625 460.233125,76.704375 C460.233125,68.012125 424.834875,60.966 381.1675,60.966 C337.50025,60.966 302.101625,68.012125 302.101625,76.704375 Z"/>
                <path fill="#DC243D" d="M307.0285,76.704 C307.0285,84.853 340.214125,91.458875 381.151625,91.458875 C422.089125,91.458875 455.274625,84.853 455.274625,76.704 C455.274625,68.555125 422.089125,61.949125 381.151625,61.949125 C340.214125,61.949125 307.0285,68.555125 307.0285,76.704 Z"/>
                <path fill="#DD243D" d="M311.9555,76.703625 C311.9555,84.309375 342.928125,90.475 381.13575,90.475 C419.3435,90.475 450.316125,84.309375 450.316125,76.703625 C450.316125,69.097875 419.3435,62.932375 381.13575,62.932375 C342.928125,62.932375 311.9555,69.097875 311.9555,76.703625 Z"/>
                <path fill="#DE253E" d="M316.9335,76.703125 C316.9335,83.765625 345.694875,89.490875 381.1745,89.490875 C416.65425,89.490875 445.415625,83.765625 445.415625,76.703125 C445.415625,69.64075 416.65425,63.915625 381.1745,63.915625 C345.694875,63.915625 316.9335,69.64075 316.9335,76.703125 Z"/>
                <path fill="#E0263F" d="M321.86025,76.702875 C321.86025,83.222 348.40875,88.506875 381.15875,88.506875 C413.908625,88.506875 440.457125,83.222 440.457125,76.702875 C440.457125,70.183625 413.908625,64.89875 381.15875,64.89875 C348.40875,64.89875 321.86025,70.183625 321.86025,76.702875 Z"/>
                <path fill="#E1263F" d="M326.787,76.702375 C326.787,82.6785 351.122625,87.522875 381.142875,87.522875 C411.163,87.522875 435.498625,82.6785 435.498625,76.702375 C435.498625,70.726375 411.163,65.882 381.142875,65.882 C351.122625,65.882 326.787,70.726375 326.787,76.702375 Z"/>
                <path fill="#E22740" d="M331.765375,76.701875 C331.765375,82.13475 353.889375,86.53875 381.181875,86.53875 C408.474,86.53875 430.598125,82.13475 430.598125,76.701875 C430.598125,71.269125 408.474,66.865125 381.181875,66.865125 C353.889375,66.865125 331.765375,71.269125 331.765375,76.701875 Z"/>
                <path fill="#E42741" d="M336.692125,76.701625 C336.692125,81.591125 356.603375,85.55475 381.166,85.55475 C405.728375,85.55475 425.639625,81.591125 425.639625,76.701625 C425.639625,71.812125 405.728375,67.8485 381.166,67.8485 C356.603375,67.8485 336.692125,71.812125 336.692125,76.701625 Z"/>
                <path fill="#E52841" d="M341.618875,76.701125 C341.618875,81.0475 359.31725,84.57075 381.150125,84.57075 C402.98275,84.57075 420.681125,81.0475 420.681125,76.701125 C420.681125,72.355 402.98275,68.83175 381.150125,68.83175 C359.31725,68.83175 341.618875,72.355 341.618875,76.701125 Z"/>
                <path fill="#E62942" d="M346.545625,76.700875 C346.545625,80.50375 362.03125,83.586625 381.13425,83.586625 C400.237,83.586625 415.722625,80.50375 415.722625,76.700875 C415.722625,72.89775 400.237,69.814875 381.13425,69.814875 C362.03125,69.814875 346.545625,72.89775 346.545625,76.700875 Z"/>
                <path fill="#E82943" d="M351.524,76.700375 C351.524,79.960125 364.79825,82.602625 381.173,82.602625 C397.548125,82.602625 410.822375,79.960125 410.822375,76.700375 C410.822375,73.440625 397.548125,70.798125 381.173,70.798125 C364.79825,70.798125 351.524,73.440625 351.524,76.700375 Z"/>
                <path fill="#E92A43" d="M356.45075,76.699875 C356.45075,79.4165 367.512125,81.618625 381.157125,81.618625 C394.8025,81.618625 405.863875,79.4165 405.863875,76.699875 C405.863875,73.983375 394.8025,71.78125 381.157125,71.78125 C367.512125,71.78125 356.45075,73.983375 356.45075,76.699875 Z"/>
                <path fill="#EA2A44" d="M361.3775,76.699625 C361.3775,78.872875 370.226125,80.63475 381.14125,80.63475 C392.056875,80.63475 400.905125,78.872875 400.905125,76.699625 C400.905125,74.52625 392.056875,72.7645 381.14125,72.7645 C370.226125,72.7645 361.3775,74.52625 361.3775,76.699625 Z"/>
                <path fill="#EB2B45" d="M366.355875,76.699125 C366.355875,78.32925 372.99275,79.650625 381.180375,79.650625 C389.367875,79.650625 396.004875,78.32925 396.004875,76.699125 C396.004875,75.069 389.367875,73.74775 381.180375,73.74775 C372.99275,73.74775 366.355875,75.069 366.355875,76.699125 Z"/>
                <path fill="#ED2B45" d="M371.282625,76.69875 C371.282625,77.785625 375.70675,78.666625 381.1645,78.666625 C386.62225,78.666625 391.046375,77.785625 391.046375,76.69875 C391.046375,75.612 386.62225,74.730875 381.1645,74.730875 C375.70675,74.730875 371.282625,75.612 371.282625,76.69875 Z"/>
                <path fill="#EE2C46" d="M376.209375,76.698375 C376.209375,77.241875 378.420625,77.682625 381.148625,77.682625 C383.876625,77.682625 386.087875,77.241875 386.087875,76.698375 C386.087875,76.15475 383.876625,75.71425 381.148625,75.71425 C378.420625,75.71425 376.209375,76.15475 376.209375,76.698375 Z"/>
              </g>
            </g>
          </g>
          <path fill="#A80018" d="M100.692125,1.15775 C103.096,1.824625 105.048125,2.318 107.56,2.403375 C107.907625,4.893 108.609875,6.7895 109.5245,9.11 C110.44825,11.4545 111.1275,14.204375 109.200375,16.421125 C106.43425,19.603 103.188125,19.265125 100.48825,16.918 C98.8595,15.50225 98.504875,13.882125 98.98675,11.94025 C97.105375,12.622 95.44975,12.432 93.87175,10.960625 C91.255125,8.52075 90.57975,5.32775 93.455125,2.24425 C95.45825,0.09575 98.264125,0.484 100.692125,1.15775 Z"/>
          <path fill="#FF7A8E" d="M83.727625,49.8275 C83.02975,50.700875 82.401625,51.704 81.912125,52.8575 C77.70075,62.779 82.115375,69.85875 90.53425,73.43225 C95.61125,75.587125 99.75425,74.596 103.677625,71.31325 C104.218375,76.399125 106.487375,79.981375 111.636875,81.958125 C120.175125,85.235875 128.268625,83.2095 132.13125,73.14725 C134.822625,66.13675 130.786625,60.125375 126.51725,55.301 C122.29175,50.525875 118.946125,46.584125 115.935,40.90725 C111.614625,42.3155 107.788625,42.9885 103.67025,43.438625 L83.727625,49.8275 Z"/>
          <path fill="#EF2D47" d="M103.6935,43.438625 C104.717625,39.117875 102.616875,34.878 100.3115,31.260125 C97.536,26.904375 95.359125,23.327125 93.669375,18.404 C88.529625,19.223 84.36675,18.991125 79.2175,18.5855 C74.01575,18.1755 68.15975,18.494625 64.9365,23.652875 C60.31025,31.056625 62.944625,37.279875 69.226875,41.2055 C73.015625,43.57275 76.455625,43.304875 80.010375,41.17575 C79.82475,44.8005 80.8465,47.669875 83.7045,49.8275 L103.6935,43.438625 Z"/>
          <path fill="#DE1638" d="M103.67025,43.438625 C103.44875,44.37325 103.08225,45.311875 102.5415,46.248625 C98.175875,53.809 91.444375,54.4045 85.028875,50.700375 C84.5495,50.4235 84.108875,50.13275 83.7045,49.8275 C87.189875,45.466 92.99675,44.34025 98.347375,43.91975 C100.20925,43.773375 101.965,43.625125 103.67025,43.438625 Z"/>
          <polygon fill="#FFF" points="51.496 48.719 45.121 48.719 45.121 17.736 51.496 17.736"/>
          <polygon fill="#FFF" points="134.668 31.081 148.226 31.081 148.226 36.394 134.668 36.394 134.668 43.407 150.053 43.407 150.053 48.719 128.294 48.719 128.294 17.736 134.668 17.736"/>
          <path fill="#FFF" d="M153.79325 40.686125L153.79325 17.7365 159.74325 17.7365 159.74325 29.934C159.74325 33.419125 161.485875 35.161625 164.971 35.161625 165.608125 35.161625 166.033 35.11875 166.8405 34.99175L166.8405 41.02675C166.5005 41.068875 166.28775 41.068875 166.118125 41.068875 163.398125 41.068875 161.01825 39.284125 159.74325 36.18175L159.74325 40.686125 153.79325 40.686125zM189.917875 27.341375C189.96 27.85175 189.96 28.06375 189.96 28.3615 189.96 30.6565 189.62025 32.781625 189.067625 34.3965 187.53775 38.561625 183.84025 41.068875 179.208 41.068875 172.6205 41.068875 168.583 36.308875 168.583 28.61625 168.583 21.263625 172.57775 16.759125 179.080125 16.759125 184.222625 16.759125 188.388 19.69175 189.705125 24.196125L183.84025 24.196125C183.117625 22.36875 181.46025 21.306375 179.292875 21.306375 177.592375 21.306375 176.2325 22.028875 175.38325 23.30375 174.830625 24.154 174.617875 25.174 174.533 27.341375L189.917875 27.341375zM174.617875 31.294C175.0005 34.779 176.487375 36.5215 179.122875 36.5215 180.61 36.5215 181.9705 35.799 182.820125 34.609125 183.37275 33.759 183.628125 32.866625 183.755125 31.294L174.617875 31.294zM213.547875 27.341375C213.59 27.85175 213.59 28.06375 213.59 28.3615 213.59 30.6565 213.250375 32.781625 212.69775 34.3965 211.167875 38.561625 207.47 41.068875 202.838125 41.068875 196.2505 41.068875 192.213125 36.308875 192.213125 28.61625 192.213125 21.263625 196.207875 16.759125 202.71025 16.759125 207.85275 16.759125 212.018125 19.69175 213.33525 24.196125L207.47 24.196125C206.747625 22.36875 205.09025 21.306375 202.922875 21.306375 201.2225 21.306375 199.862625 22.028875 199.013 23.30375 198.460625 24.154 198.247875 25.174 198.16275 27.341375L213.547875 27.341375zM198.247875 31.294C198.630625 34.779 200.117375 36.5215 202.752875 36.5215 204.24 36.5215 205.6005 35.799 206.450125 34.609125 207.0025 33.759 207.25825 32.866625 207.38525 31.294L198.247875 31.294zM252.520125 39.284125C252.520125 42.13175 251.882625 44.00125 250.35275 45.70175 248.2705 47.99675 244.8275 49.228875 240.36525 49.228875 232.9275 49.228875 228.63525 45.74375 228.63525 39.709 228.63525 34.90675 231.058 32.568875 237.347625 31.378875L241.683 30.52875C245.9325 29.72125 247.505125 28.531375 247.505125 26.02425 247.505125 23.431625 245.125375 21.858875 241.257625 21.858875 236.923125 21.858875 234.500375 23.6865 234.287625 27.001625L228.082875 27.001625C228.46525 20.371375 233.012625 16.759125 240.917875 16.759125 248.908 16.759125 253.625125 20.499 253.625125 26.788875 253.625125 31.676625 251.16025 34.2265 245.422875 35.3315L240.578 36.26675C236.029875 37.159 234.713125 38.051375 234.713125 40.30425 234.713125 42.641375 236.79525 44.129125 240.067625 44.129125 244.105125 44.129125 246.358 42.428625 246.570125 39.284125L252.520125 39.284125zM267.862125 41.068875C260.850125 41.068875 256.5575 36.4365 256.5575 28.914 256.5575 21.34925 260.850125 16.759125 267.904875 16.759125 274.875125 16.759125 279.2525 21.391375 279.2525 28.744125 279.2525 36.5215 275.045125 41.068875 267.862125 41.068875zM267.904875 36.26675C271.17725 36.26675 273.3025 33.334125 273.3025 28.829 273.3025 24.536625 271.0925 21.561375 267.904875 21.561375 264.674875 21.561375 262.507625 24.536625 262.507625 28.914 262.507625 33.291375 264.674875 36.26675 267.904875 36.26675zM294.339875 40.21925L290.812 40.21925 290.812 42.4715C290.812 43.661375 291.32225 44.25625 292.42725 44.25625 292.937 44.25625 293.6175 44.214 294.127125 44.129125L294.127125 48.591375C293.022125 48.676375 291.534375 48.719125 290.726875 48.719125 286.7745 48.719125 284.862 46.848875 284.862 42.98125L284.862 40.21925 281.632375 40.21925 281.632375 36.26675 284.862 36.26675 284.862 17.7365 290.812 17.7365 290.812 36.26675 294.339875 36.26675 294.339875 40.21925zM307.9815 40.21925L304.667 40.21925 304.667 46.381375 298.716375 46.381375 298.716375 40.21925 295.7845 40.21925 295.7845 36.26675 298.716375 36.26675 298.716375 22.156625C298.716375 18.54375 300.6295 16.759125 304.539375 16.759125 305.857125 16.759125 306.9195 16.88625 307.9815 17.22675L307.9815 21.391375C307.387 21.306375 307.047 21.263625 306.621625 21.263625 305.049125 21.263625 304.667 21.73125 304.667 23.7715L304.667 36.26675 307.9815 36.26675 307.9815 40.21925z"/>
          <polygon fill="#FFF" points="335.394 17.736 341.897 40.686 335.734 40.686 332.249 24.622 328.806 40.686 322.856 40.686 319.371 24.622 315.716 40.686 309.554 40.686 316.014 17.736 322.134 17.736 325.789 33.929 329.231 17.736"/>
          <path fill="#FFF" d="M364.6765 18.459C363.613875 19.436125 363.316625 20.073625 363.316625 21.263625L363.316625 34.01375C363.316625 38.68875 360.129375 41.068875 353.923875 41.068875 347.719 41.068875 344.48875 38.433875 344.106125 33.121375L349.844 33.121375C350.141875 35.5015 351.119 36.26675 354.0515 36.26675 356.346625 36.26675 357.493875 35.5015 357.493875 33.971625 357.493875 33.206375 357.111125 32.52675 356.473625 32.186375 355.6665 31.761625 355.6665 31.761625 352.73375 31.294L350.354 30.86925C345.8065 30.104 343.596375 27.76625 343.596375 23.644375 343.596375 21.689125 344.149125 20.073625 345.211125 18.9265 346.528875 17.566625 348.52625 16.759125 350.566625 16.759125 353.116375 16.759125 355.454375 17.864125 357.5365 20.0315 357.5365 18.8415 357.663875 18.416625 358.216125 17.7365L364.6765 17.7365 364.6765 18.459zM357.493875 26.95875C357.493875 23.5165 355.794 21.561375 352.77675 21.561375 350.779375 21.561375 349.5465 22.624125 349.5465 24.324 349.5465 26.10925 350.4815 26.95875 352.946375 27.469125L354.986875 27.85175C356.55875 28.14875 356.81425 28.23375 357.493875 28.574125L357.493875 26.95875zM368.71425 40.686125L368.71425 17.7365 374.66425 17.7365 374.66425 29.934C374.66425 33.419125 376.4065 35.161625 379.891625 35.161625 380.529125 35.161625 380.953875 35.11875 381.761375 34.99175L381.761375 41.02675C381.4215 41.068875 381.20875 41.068875 381.03875 41.068875 378.319 41.068875 375.939 39.284125 374.66425 36.18175L374.66425 40.686125 368.71425 40.686125zM404.83875 27.341375C404.880875 27.85175 404.880875 28.06375 404.880875 28.3615 404.880875 30.6565 404.541 32.781625 403.988625 34.3965 402.45875 38.561625 398.760875 41.068875 394.128625 41.068875 387.5415 41.068875 383.503625 36.308875 383.503625 28.61625 383.503625 21.263625 387.498375 16.759125 394.001125 16.759125 399.143625 16.759125 403.309 19.69175 404.626125 24.196125L398.760875 24.196125C398.038625 22.36875 396.381125 21.306375 394.21375 21.306375 392.513375 21.306375 391.1535 22.028875 390.303875 23.30375 389.7515 24.154 389.538875 25.174 389.453625 27.341375L404.83875 27.341375zM389.538875 31.294C389.92125 34.779 391.408375 36.5215 394.043875 36.5215 395.531 36.5215 396.891375 35.799 397.741 34.609125 398.293375 33.759 398.548875 32.866625 398.676125 31.294L389.538875 31.294z"/>
        </g>
      </g>
    </g>
    <polygon fill="#FFF" points=".74 1.29 138.023 1.29 138.023 76.29 .74 76.29"/>
    <polygon fill="#FFF" points="159.511 24.29 163.573 12.444 161.119 12.444 158.536 21.365 155.903 12.444 153.449 12.444 157.447 24.29"/>
    <path fill="#FFF" d="M172.41308,24.01372 C172.00657,23.63998 171.89308,23.39635 171.89308,22.94135 L171.89308,18.06635 C171.89308,16.27873 170.6742,15.36873 168.30183,15.36873 C165.92932,15.36873 164.69395,16.37622 164.54783,18.40748 L166.7417,18.40748 C166.85558,17.49748 167.22907,17.20498 168.35058,17.20498 C169.22795,17.20498 169.66645,17.49748 169.66645,18.08235 C169.66645,18.37498 169.52033,18.63485 169.27645,18.76498 C168.96795,18.92735 168.96795,18.92735 167.8467,19.10622 L166.9367,19.26847 C165.19783,19.56122 164.35283,20.4551 164.35283,22.0311 C164.35283,22.77873 164.56433,23.39635 164.97045,23.83485 C165.47433,24.35485 166.23783,24.6636 167.01795,24.6636 C167.99295,24.6636 168.88683,24.2411 169.68295,23.41248 C169.68295,23.86735 169.73145,24.02985 169.9427,24.28985 L172.41308,24.28985 L172.41308,24.01372 Z M169.66645,20.76373 C169.66645,22.07998 169.01683,22.82748 167.86295,22.82748 C167.09933,22.82748 166.62783,22.4211 166.62783,21.77122 C166.62783,21.0886 166.98558,20.76373 167.92795,20.5686 L168.70795,20.42235 C169.3092,20.30873 169.40683,20.27623 169.66645,20.1461 L169.66645,20.76373 Z"/>
    <polygon fill="#FFF" points="176.297 12.444 174.022 12.444 174.022 24.29 176.297 24.29"/>
    <path fill="#FFF" d="M185.96533 20.61735C185.98145 20.42235 185.98145 20.34123 185.98145 20.22735 185.98145 19.34998 185.85145 18.53735 185.64033 17.91998 185.05533 16.32735 183.6417 15.36873 181.87045 15.36873 179.35183 15.36873 177.80795 17.18872 177.80795 20.1301 177.80795 22.94135 179.33545 24.6636 181.8217 24.6636 183.78795 24.6636 185.38058 23.54235 185.8842 21.8201L183.6417 21.8201C183.3652 22.51885 182.7317 22.92497 181.90283 22.92497 181.25283 22.92497 180.73283 22.6486 180.40807 22.16135 180.19695 21.8361 180.11545 21.4461 180.08308 20.61735L185.96533 20.61735zM180.11545 19.10622C180.26158 17.7736 180.83045 17.10748 181.8382 17.10748 182.4067 17.10748 182.9267 17.3836 183.2517 17.8386 183.46295 18.16385 183.56057 18.50497 183.60908 19.10622L180.11545 19.10622zM187.5092 15.51498L187.5092 24.28985 189.78432 24.28985 189.78432 19.02485C189.78432 17.98498 190.51545 17.3026 191.6202 17.3026 192.59558 17.3026 193.08295 17.8386 193.08295 18.87885L193.08295 24.28985 195.35808 24.28985 195.35808 18.40748C195.35808 16.47372 194.28533 15.36873 192.4167 15.36873 191.23058 15.36873 190.43407 15.80735 189.78432 16.78247L189.78432 15.51498 187.5092 15.51498zM201.30533 15.6936L200.03795 15.6936 200.03795 13.33748 197.76283 13.33748 197.76283 15.6936 196.64158 15.6936 196.64158 17.20498 197.76283 17.20498 197.76283 22.59985C197.76283 23.98122 198.49408 24.6636 199.98908 24.6636 200.49295 24.6636 200.89907 24.6151 201.30533 24.48485L201.30533 22.89248C201.07795 22.92497 200.94795 22.94135 200.78533 22.94135 200.18407 22.94135 200.03795 22.76247 200.03795 21.98248L200.03795 17.20498 201.30533 17.20498 201.30533 15.6936zM205.18895 15.51498L202.91383 15.51498 202.91383 24.28985 205.18895 24.28985 205.18895 15.51498zM205.18895 12.4436L202.91383 12.4436 202.91383 14.47485 205.18895 14.47485 205.18895 12.4436zM207.36645 15.51498L207.36645 24.28985 209.64145 24.28985 209.64145 19.02485C209.64145 17.98498 210.3727 17.3026 211.47745 17.3026 212.45283 17.3026 212.94008 17.8386 212.94008 18.87885L212.94008 24.28985 215.2152 24.28985 215.2152 18.40748C215.2152 16.47372 214.14258 15.36873 212.27395 15.36873 211.0877 15.36873 210.29145 15.80735 209.64145 16.78247L209.64145 15.51498 207.36645 15.51498zM224.78645 20.61735C224.80232 20.42235 224.80232 20.34123 224.80232 20.22735 224.80232 19.34998 224.67258 18.53735 224.46108 17.91998 223.87645 16.32735 222.46258 15.36873 220.69133 15.36873 218.1727 15.36873 216.62882 17.18872 216.62882 20.1301 216.62882 22.94135 218.1562 24.6636 220.64245 24.6636 222.6087 24.6636 224.20145 23.54235 224.70495 21.8201L222.46258 21.8201C222.18633 22.51885 221.55245 22.92497 220.72395 22.92497 220.07358 22.92497 219.55358 22.6486 219.22883 22.16135 219.0177 21.8361 218.9362 21.4461 218.90382 20.61735L224.78645 20.61735zM218.9362 19.10622C219.0827 17.7736 219.6512 17.10748 220.65895 17.10748 221.22745 17.10748 221.74745 17.3836 222.07258 17.8386 222.2837 18.16385 222.38133 18.50497 222.42983 19.10622L218.9362 19.10622zM226.37858 12.4436L226.37858 14.47485 227.67858 14.47485C227.7112 15.28748 227.28858 15.75885 226.37858 15.92123L226.37858 16.66872C226.93158 16.63635 227.4512 16.44123 227.8412 16.1161 228.36133 15.67747 228.5727 15.14122 228.5727 14.21497L228.5727 12.4436 226.37858 12.4436zM238.0302 18.34247C237.99745 16.4901 236.56745 15.36873 234.21145 15.36873 231.98495 15.36873 230.60395 16.4901 230.60395 18.2936 230.60395 18.87885 230.78258 19.38235 231.09132 19.7236 231.39995 20.0326 231.67645 20.1786 232.52145 20.4551L235.23508 21.29973C235.80358 21.4786 235.99895 21.65748 235.99895 22.01498 235.99895 22.55135 235.36508 22.87622 234.30883 22.87622 233.72383 22.87622 233.25258 22.76247 232.95995 22.56747 232.71608 22.3886 232.61883 22.20985 232.52145 21.73873L230.2952 21.73873C230.3602 23.65622 231.7737 24.6636 234.43883 24.6636 235.65745 24.6636 236.58395 24.40373 237.2337 23.88385 237.8837 23.36348 238.27395 22.55135 238.27395 21.68998 238.27395 20.5526 237.7052 19.82135 236.55132 19.47985L233.67495 18.6511C233.0412 18.45635 232.87882 18.3261 232.87882 17.9686 232.87882 17.4811 233.39883 17.15623 234.19495 17.15623 235.28382 17.15623 235.82008 17.54623 235.8362 18.34247L238.0302 18.34247zM244.62745 24.28985L249.25883 24.28985C251.0627 24.28985 252.20008 23.86735 252.99633 22.90873 253.9387 21.8036 254.44245 20.1951 254.44245 18.3586 254.44245 16.5386 253.9387 14.92985 252.99633 13.8086 252.20008 12.8501 251.07883 12.4436 249.25883 12.4436L244.62745 12.4436 244.62745 24.28985zM247.0652 22.2586L247.0652 14.47485 249.25883 14.47485C251.09508 14.47485 252.00508 15.75885 252.00508 18.37498 252.00508 20.9751 251.09508 22.2586 249.25883 22.2586L247.0652 22.2586zM263.62345 24.01372C263.2172 23.63998 263.1037 23.39635 263.1037 22.94135L263.1037 18.06635C263.1037 16.27873 261.88482 15.36873 259.51208 15.36873 257.1397 15.36873 255.90458 16.37622 255.75845 18.40748L257.95232 18.40748C258.0662 17.49748 258.4397 17.20498 259.56095 17.20498 260.43858 17.20498 260.8772 17.49748 260.8772 18.08235 260.8772 18.37498 260.73095 18.63485 260.48708 18.76498 260.17858 18.92735 260.17858 18.92735 259.05732 19.10622L258.14733 19.26847C256.40845 19.56122 255.56345 20.4551 255.56345 22.0311 255.56345 22.77873 255.77495 23.39635 256.18083 23.83485 256.68495 24.35485 257.44845 24.6636 258.22858 24.6636 259.20358 24.6636 260.09745 24.2411 260.89358 23.41248 260.89358 23.86735 260.9422 24.02985 261.15333 24.28985L263.62345 24.28985 263.62345 24.01372zM260.8772 20.76373C260.8772 22.07998 260.22745 22.82748 259.07357 22.82748 258.30995 22.82748 257.83845 22.4211 257.83845 21.77122 257.83845 21.0886 258.1962 20.76373 259.13858 20.5686L259.91858 20.42235C260.51983 20.30873 260.61745 20.27623 260.8772 20.1461L260.8772 20.76373zM270.54608 15.51498L268.72595 21.9011 266.79208 15.51498 264.28995 15.51498 267.5562 24.6476 267.5562 24.6636 267.5562 24.71235C267.5562 25.5411 266.93858 26.17497 266.14233 26.17497 265.96345 26.17497 265.83345 26.15885 265.5412 26.07748L265.5412 27.78373C265.88232 27.83248 266.07732 27.8486 266.35358 27.8486 266.92233 27.8486 267.6047 27.73498 267.9947 27.57235 268.62858 27.31248 268.90483 26.93872 269.27833 25.8986L272.88582 15.51498 270.54608 15.51498zM290.20545 21.26647C289.1267 21.80422 288.26608 22.25835 287.3362 23.03985 286.40632 22.25823 285.54083 21.80422 284.46208 21.26647 283.3722 20.7231 282.2392 19.95547 282.21408 18.5361 282.1787 16.49872 283.4537 15.5706 285.18258 15.54035 286.22508 15.52223 286.87658 15.98948 287.33132 16.8426 287.78658 15.98923 288.44245 15.52223 289.48495 15.54035 291.2137 15.5706 292.48883 16.49872 292.45333 18.5361 292.4287 19.95547 291.29558 20.7231 290.20545 21.26647zM311.85245 16.0511C311.85245 14.96235 311.60895 14.24748 311.02395 13.59748 310.2277 12.71997 308.91145 12.24873 307.20533 12.24873 304.36133 12.24873 302.72008 13.58122 302.72008 15.88872 302.72008 17.72485 303.64658 18.6186 306.05145 19.07373L307.70907 19.39885C309.33383 19.70748 309.93508 20.1626 309.93508 21.1211 309.93508 22.11247 309.02508 22.7136 307.54645 22.7136 305.88908 22.7136 304.96258 22.01498 304.88133 20.74748L302.50895 20.74748C302.65508 23.28247 304.39395 24.6636 307.41645 24.6636 310.47158 24.6636 312.2752 23.23373 312.2752 20.82872 312.2752 18.95985 311.33283 17.98498 309.13883 17.56248L307.28645 17.20498C305.54758 16.86373 305.04395 16.5226 305.04395 15.6611 305.04395 14.76748 305.8402 14.1986 307.09145 14.1986 308.63508 14.1986 309.49658 14.84885 309.5777 16.0511L311.85245 16.0511zM313.91633 12.4436L313.91633 24.28985 316.1912 24.28985 316.1912 19.02485C316.1912 18.01748 316.9227 17.3026 317.9462 17.3026 318.43395 17.3026 318.82395 17.4811 319.08358 17.8386 319.27895 18.13135 319.34395 18.3586 319.34395 18.92735L319.34395 24.28985 321.6187 24.28985 321.6187 18.40748C321.6187 17.31873 321.32633 16.5386 320.72482 16.0351 320.22132 15.61247 319.49008 15.36873 318.75895 15.36873 317.6377 15.36873 316.82508 15.82373 316.1912 16.78247L316.1912 12.4436 313.91633 12.4436zM327.64745 15.36873C324.9662 15.36873 323.32495 17.13998 323.32495 20.01622 323.32495 22.90873 324.9662 24.6636 327.6637 24.6636 330.3287 24.6636 332.00232 22.89248 332.00232 20.08122 332.00232 17.10748 330.3937 15.36873 327.64745 15.36873zM327.6637 17.20498C328.91483 17.20498 329.72758 18.3261 329.72758 20.04873 329.72758 21.68998 328.88245 22.82748 327.6637 22.82748 326.42858 22.82748 325.60008 21.68998 325.60008 20.01622 325.60008 18.34247 326.42858 17.20498 327.6637 17.20498z"/>
    <polygon fill="#FFF" points="342.646 24.29 345.132 15.515 342.776 15.515 341.444 21.657 340.127 15.515 337.852 15.515 336.52 21.657 335.122 15.515 332.766 15.515 335.236 24.29 337.576 24.29 338.973 18.099 340.29 24.29"/>
    <polygon fill="#FFF" points="356.654 19.902 360.407 12.444 357.677 12.444 355.418 17.676 352.997 12.444 350.284 12.444 354.216 19.902 354.216 24.29 356.654 24.29"/>
    <path fill="#FFF" d="M365.5747 15.36873C362.89345 15.36873 361.2522 17.13998 361.2522 20.01622 361.2522 22.90873 362.89345 24.6636 365.59083 24.6636 368.25595 24.6636 369.92958 22.89248 369.92958 20.08122 369.92958 17.10748 368.32095 15.36873 365.5747 15.36873zM365.59083 17.20498C366.84208 17.20498 367.65483 18.3261 367.65483 20.04873 367.65483 21.68998 366.8097 22.82748 365.59083 22.82748 364.35583 22.82748 363.52732 21.68998 363.52732 20.01622 363.52732 18.34247 364.35583 17.20498 365.59083 17.20498zM379.40345 24.28985L379.40345 15.51498 377.12833 15.51498 377.12833 21.0076C377.12833 22.04748 376.3972 22.7301 375.29207 22.7301 374.31708 22.7301 373.82945 22.20985 373.82945 21.15373L373.82945 15.51498 371.55457 15.51498 371.55457 21.62498C371.55457 23.55873 372.62707 24.6636 374.49595 24.6636 375.68208 24.6636 376.47808 24.2251 377.12833 23.24998L377.12833 24.28985 379.40345 24.28985zM381.56445 15.51498L381.56445 24.28985 383.83945 24.28985 383.83945 19.62622C383.83945 18.2936 384.5057 17.62748 385.83833 17.62748 386.08195 17.62748 386.24433 17.64372 386.55308 17.69235L386.55308 15.38485C386.42308 15.36873 386.34195 15.36873 386.27695 15.36873 385.23683 15.36873 384.32683 16.0511 383.83945 17.23723L383.83945 15.51498 381.56445 15.51498z"/>
    <polygon fill="#FFF" points="395.117 12.444 392.679 12.444 392.679 24.29 400.788 24.29 400.788 22.259 395.117 22.259"/>
    <path fill="#FFF" d="M406.19908,15.36873 C403.51783,15.36873 401.87658,17.13998 401.87658,20.01622 C401.87658,22.90873 403.51783,24.6636 406.21558,24.6636 C408.88033,24.6636 410.55433,22.89248 410.55433,20.08122 C410.55433,17.10748 408.94533,15.36873 406.19908,15.36873 Z M406.21558,17.20498 C407.46683,17.20498 408.2792,18.3261 408.2792,20.04873 C408.2792,21.68998 407.4342,22.82748 406.21558,22.82748 C404.98058,22.82748 404.1517,21.68998 404.1517,20.01622 C404.1517,18.34247 404.98058,17.20498 406.21558,17.20498 Z"/>
    <polygon fill="#FFF" points="416.924 24.29 419.946 15.515 417.542 15.515 415.77 21.934 413.869 15.515 411.464 15.515 414.535 24.29"/>
    <path fill="#FFF" d="M428.7867,20.61735 C428.80283,20.42235 428.80283,20.34123 428.80283,20.22735 C428.80283,19.34998 428.67283,18.53735 428.4617,17.91998 C427.8767,16.32735 426.46283,15.36873 424.69158,15.36873 C422.17295,15.36873 420.62908,17.18872 420.62908,20.1301 C420.62908,22.94135 422.15645,24.6636 424.6427,24.6636 C426.60895,24.6636 428.2017,23.54235 428.7052,21.8201 L426.46283,21.8201 C426.18658,22.51885 425.5527,22.92497 424.7242,22.92497 C424.07382,22.92497 423.55382,22.6486 423.22908,22.16135 C423.01795,21.8361 422.93645,21.4461 422.90407,20.61735 L428.7867,20.61735 Z M422.93645,19.10622 C423.08295,17.7736 423.65145,17.10748 424.6592,17.10748 C425.2277,17.10748 425.74808,17.3836 426.0727,17.8386 C426.28395,18.16385 426.38157,18.50497 426.43045,19.10622 L422.93645,19.10622 Z"/>
    <polygon fill="#FFF" points="437.464 19.187 442.648 19.187 442.648 17.156 437.464 17.156 437.464 14.475 443.347 14.475 443.347 12.444 435.027 12.444 435.027 24.29 437.464 24.29"/>
    <path fill="#FFF" d="M448.64383 15.36873C445.96258 15.36873 444.32133 17.13998 444.32133 20.01622 444.32133 22.90873 445.96258 24.6636 448.66033 24.6636 451.3252 24.6636 452.99908 22.89248 452.99908 20.08122 452.99908 17.10748 451.3902 15.36873 448.64383 15.36873zM448.66033 17.20498C449.9112 17.20498 450.72395 18.3261 450.72395 20.04873 450.72395 21.68998 449.87895 22.82748 448.66033 22.82748 447.42533 22.82748 446.59645 21.68998 446.59645 20.01622 446.59645 18.34247 447.42533 17.20498 448.66033 17.20498zM454.70495 15.51498L454.70495 24.28985 456.98008 24.28985 456.98008 19.62622C456.98008 18.2936 457.6462 17.62748 458.97895 17.62748 459.22245 17.62748 459.38508 17.64372 459.6937 17.69235L459.6937 15.38485C459.5637 15.36873 459.48245 15.36873 459.41745 15.36873 458.37745 15.36873 457.4677 16.0511 456.98008 17.23723L456.98008 15.51498 454.70495 15.51498z"/>
    <polygon fill="#FFF" points="468.16 19.187 473.344 19.187 473.344 17.156 468.16 17.156 468.16 14.475 474.042 14.475 474.042 12.444 465.722 12.444 465.722 24.29 468.16 24.29"/>
    <path fill="#FFF" d="M475.47245 15.51498L475.47245 24.28985 477.7472 24.28985 477.7472 19.62622C477.7472 18.2936 478.41345 17.62748 479.7462 17.62748 479.98995 17.62748 480.15233 17.64372 480.46082 17.69235L480.46082 15.38485C480.3312 15.36873 480.2497 15.36873 480.1847 15.36873 479.14495 15.36873 478.23495 16.0511 477.7472 17.23723L477.7472 15.51498 475.47245 15.51498zM489.2847 20.61735C489.30095 20.42235 489.30095 20.34123 489.30095 20.22735 489.30095 19.34998 489.17095 18.53735 488.9597 17.91998 488.3747 16.32735 486.96083 15.36873 485.18958 15.36873 482.67095 15.36873 481.12708 17.18872 481.12708 20.1301 481.12708 22.94135 482.65483 24.6636 485.1407 24.6636 487.10732 24.6636 488.6997 23.54235 489.2032 21.8201L486.96083 21.8201C486.68457 22.51885 486.05082 22.92497 485.2222 22.92497 484.5722 22.92497 484.0522 22.6486 483.7272 22.16135 483.51595 21.8361 483.43482 21.4461 483.4022 20.61735L489.2847 20.61735zM483.43482 19.10622C483.58095 17.7736 484.14957 17.10748 485.1572 17.10748 485.72583 17.10748 486.24608 17.3836 486.57083 17.8386 486.78195 18.16385 486.8797 18.50497 486.92845 19.10622L483.43482 19.10622zM498.31983 20.61735C498.33595 20.42235 498.33595 20.34123 498.33595 20.22735 498.33595 19.34998 498.20595 18.53735 497.9947 17.91998 497.4097 16.32735 495.99583 15.36873 494.22458 15.36873 491.70595 15.36873 490.16208 17.18872 490.16208 20.1301 490.16208 22.94135 491.68957 24.6636 494.17582 24.6636 496.14208 24.6636 497.7347 23.54235 498.23833 21.8201L495.99583 21.8201C495.7197 22.51885 495.08583 22.92497 494.25733 22.92497 493.60695 22.92497 493.0872 22.6486 492.7622 22.16135 492.55108 21.8361 492.46983 21.4461 492.4372 20.61735L498.31983 20.61735zM492.46983 19.10622C492.61608 17.7736 493.18457 17.10748 494.19232 17.10748 494.76082 17.10748 495.28107 17.3836 495.60583 17.8386 495.81708 18.16385 495.9147 18.50497 495.96345 19.10622L492.46983 19.10622zM513.22095 16.0511C513.22095 14.96235 512.97708 14.24748 512.39208 13.59748 511.59583 12.71997 510.27958 12.24873 508.57332 12.24873 505.7297 12.24873 504.08845 13.58122 504.08845 15.88872 504.08845 17.72485 505.0147 18.6186 507.41983 19.07373L509.0772 19.39885C510.70195 19.70748 511.30345 20.1626 511.30345 21.1211 511.30345 22.11247 510.39345 22.7136 508.91458 22.7136 507.2572 22.7136 506.33095 22.01498 506.24945 20.74748L503.87707 20.74748C504.02345 23.28247 505.76208 24.6636 508.78458 24.6636 511.8397 24.6636 513.6432 23.23373 513.6432 20.82872 513.6432 18.95985 512.70083 17.98498 510.50733 17.56248L508.65483 17.20498C506.91595 16.86373 506.41208 16.5226 506.41208 15.6611 506.41208 14.76748 507.20833 14.1986 508.45957 14.1986 510.00345 14.1986 510.86458 14.84885 510.94583 16.0511L513.22095 16.0511zM519.08695 15.36873C516.4057 15.36873 514.76445 17.13998 514.76445 20.01622 514.76445 22.90873 516.4057 24.6636 519.10345 24.6636 521.7682 24.6636 523.4422 22.89248 523.4422 20.08122 523.4422 17.10748 521.8332 15.36873 519.08695 15.36873zM519.10345 17.20498C520.35432 17.20498 521.16708 18.3261 521.16708 20.04873 521.16708 21.68998 520.32208 22.82748 519.10345 22.82748 517.86845 22.82748 517.03958 21.68998 517.03958 20.01622 517.03958 18.34247 517.86845 17.20498 519.10345 17.20498zM529.21057 15.6936L527.8617 15.6936 527.8617 14.83248C527.8617 14.37747 528.05695 14.1501 528.47932 14.1501 528.67433 14.1501 528.93445 14.1661 529.12945 14.1986L529.12945 12.49235C528.70707 12.4601 528.1382 12.4436 527.82932 12.4436 526.31808 12.4436 525.58695 13.15873 525.58695 14.63747L525.58695 15.6936 524.3522 15.6936 524.3522 17.20498 525.58695 17.20498 525.58695 24.28985 527.8617 24.28985 527.8617 17.20498 529.21057 17.20498 529.21057 15.6936zM534.4267 15.6936L533.15958 15.6936 533.15958 13.33748 530.8842 13.33748 530.8842 15.6936 529.7632 15.6936 529.7632 17.20498 530.8842 17.20498 530.8842 22.59985C530.8842 23.98122 531.6157 24.6636 533.1107 24.6636 533.61433 24.6636 534.02045 24.6151 534.4267 24.48485L534.4267 22.89248C534.19933 22.92497 534.06932 22.94135 533.90657 22.94135 533.30545 22.94135 533.15958 22.76247 533.15958 21.98248L533.15958 17.20498 534.4267 17.20498 534.4267 15.6936z"/>
    <polygon fill="#FFF" points="544.908 24.29 547.394 15.515 545.038 15.515 543.705 21.657 542.389 15.515 540.114 15.515 538.781 21.657 537.384 15.515 535.028 15.515 537.498 24.29 539.838 24.29 541.235 18.099 542.552 24.29"/>
    <path fill="#FFF" d="M556.1042 24.01372C555.6977 23.63998 555.5842 23.39635 555.5842 22.94135L555.5842 18.06635C555.5842 16.27873 554.36558 15.36873 551.99283 15.36873 549.62045 15.36873 548.38533 16.37622 548.2392 18.40748L550.43307 18.40748C550.54658 17.49748 550.92045 17.20498 552.0417 17.20498 552.91908 17.20498 553.35795 17.49748 553.35795 18.08235 553.35795 18.37498 553.21145 18.63485 552.96795 18.76498 552.65908 18.92735 552.65908 18.92735 551.53783 19.10622L550.62783 19.26847C548.8892 19.56122 548.0442 20.4551 548.0442 22.0311 548.0442 22.77873 548.25533 23.39635 548.66158 23.83485 549.16545 24.35485 549.92933 24.6636 550.70932 24.6636 551.68407 24.6636 552.57783 24.2411 553.37408 23.41248 553.37408 23.86735 553.42295 24.02985 553.63408 24.28985L556.1042 24.28985 556.1042 24.01372zM553.35795 20.76373C553.35795 22.07998 552.70795 22.82748 551.55432 22.82748 550.79045 22.82748 550.31932 22.4211 550.31932 21.77122 550.31932 21.0886 550.6767 20.76373 551.61933 20.5686L552.39933 20.42235C553.0002 20.30873 553.09795 20.27623 553.35795 20.1461L553.35795 20.76373zM557.64808 15.51498L557.64808 24.28985 559.92283 24.28985 559.92283 19.62622C559.92283 18.2936 560.58933 17.62748 561.9217 17.62748 562.16558 17.62748 562.32795 17.64372 562.63645 17.69235L562.63645 15.38485C562.50682 15.36873 562.42533 15.36873 562.36033 15.36873 561.32058 15.36873 560.41057 16.0511 559.92283 17.23723L559.92283 15.51498 557.64808 15.51498zM571.46033 20.61735C571.47645 20.42235 571.47645 20.34123 571.47645 20.22735 571.47645 19.34998 571.34645 18.53735 571.13533 17.91998 570.55033 16.32735 569.13645 15.36873 567.36545 15.36873 564.84658 15.36873 563.30295 17.18872 563.30295 20.1301 563.30295 22.94135 564.83045 24.6636 567.3167 24.6636 569.28295 24.6636 570.87533 23.54235 571.3792 21.8201L569.13645 21.8201C568.8602 22.51885 568.22633 22.92497 567.39783 22.92497 566.74783 22.92497 566.22783 22.6486 565.90283 22.16135 565.69158 21.8361 565.61045 21.4461 565.57783 20.61735L571.46033 20.61735zM565.61045 19.10622C565.75657 17.7736 566.3252 17.10748 567.33282 17.10748 567.90132 17.10748 568.4217 17.3836 568.74645 17.8386 568.95758 18.16385 569.05557 18.50497 569.10407 19.10622L565.61045 19.10622z"/>
    <path fill="#A80018" d="M33.27033,56.62448 C34.5667,56.26485 35.61933,55.99873 36.97395,55.9526 C37.16133,54.61022 37.54033,53.58735 38.0332,52.33585 C38.53157,51.07148 38.89783,49.5886 37.8587,48.3931 C36.36695,46.67723 34.61645,46.85948 33.1602,48.12535 C32.2822,48.88873 32.09083,49.76247 32.35058,50.80973 C31.33608,50.44198 30.4432,50.54448 29.59233,51.33797 C28.1812,52.65373 27.81683,54.3756 29.36745,56.0386 C30.4477,57.1971 31.96083,56.98785 33.27033,56.62448 Z"/>
    <path fill="#FF7A8E" d="M24.121825,30.37785 C23.74545,29.90685 23.4067,29.36585 23.142825,28.74397 C20.8717,23.39347 23.252325,19.57535 27.79245,17.64835 C30.53045,16.48623 32.7647,17.02073 34.88045,18.7911 C35.17182,16.04835 36.39558,14.1166 39.17245,13.0506 C43.7772,11.28285 48.14183,12.37573 50.22495,17.80198 C51.67607,21.58273 49.49958,24.82435 47.19732,27.42623 C44.91858,30.00122 43.11433,32.12698 41.49058,35.18835 C39.16057,34.42885 37.09758,34.0661 34.87645,33.82323 L24.121825,30.37785 Z"/>
    <path fill="#EF2D47" d="M34.88895,33.82323 C35.44108,36.15348 34.3082,38.43985 33.06495,40.39085 C31.56833,42.73972 30.39432,44.66898 29.48308,47.32398 C26.7112,46.88222 24.466325,47.00722 21.689575,47.2261 C18.884325,47.44722 15.726075,47.27498 13.988075,44.49335 C11.493325,40.50073 12.913825,37.14448 16.30195,35.02748 C18.345075,33.75097 20.2002,33.89535 22.117075,35.04347 C22.01695,33.08885 22.568075,31.54147 24.1092,30.37785 L34.88895,33.82323 Z"/>
    <path fill="#DE1638" d="M34.87645,33.82323 C34.75682,33.3191 34.55907,32.8131 34.2677,32.30798 C31.91358,28.23073 28.2832,27.9096 24.823325,29.9071 C24.564825,30.05647 24.3272,30.21335 24.1092,30.37785 C25.98883,32.72997 29.1202,33.33698 32.00595,33.56372 C33.01008,33.64272 33.9567,33.72273 34.87645,33.82323 Z"/>
    <path fill="#8A0014" d="M53.58195 37.28973L53.5642 41.04498 58.4287 41.04485C59.27495 41.04485 59.96095 41.73085 59.96095 42.5771 59.96095 43.42323 59.27495 44.10923 58.4287 44.10923L53.5642 44.10923 53.5642 63.2636C53.5642 64.20372 52.8022 64.96585 51.86195 64.96585 50.9217 64.96585 50.1597 64.20372 50.1597 63.2636L50.1597 44.10923 47.20982 44.10923C46.36358 44.10923 45.67783 43.42323 45.67783 42.5771 45.67783 41.73085 46.36358 41.04485 47.20982 41.04485L50.11758 41.04498 50.11758 37.68998C50.11758 33.5621 52.71308 31.47698 56.62845 31.47698L58.4287 31.47698C59.27495 31.47698 59.96095 32.16298 59.96095 33.0091 59.96095 33.85535 59.27495 34.54135 58.4287 34.54135L56.62845 34.54135C54.3162 34.54135 53.58195 35.37123 53.58195 37.28973zM89.57895 37.28973L89.56095 41.04498 94.42545 41.04485C95.2717 41.04485 95.9577 41.73085 95.9577 42.5771 95.9577 43.42323 95.2717 44.10923 94.42545 44.10923L89.56095 44.10923 89.5612 63.2636C89.5612 64.20372 88.79895 64.96585 87.8587 64.96585 86.9187 64.96585 86.15633 64.20372 86.15633 63.2636L86.15633 44.10923 83.20658 44.10923C82.36058 44.10923 81.67457 43.42323 81.67457 42.5771 81.67457 41.73085 82.36058 41.04485 83.20658 41.04485L86.11433 41.04498 86.11433 37.68998C86.11433 33.5621 88.70982 31.47698 92.62545 31.47698L94.42545 31.47698C95.2717 31.47698 95.9577 32.16298 95.9577 33.0091 95.9577 33.85535 95.2717 34.54135 94.42545 34.54135L92.62545 34.54135C90.31283 34.54135 89.57895 35.37123 89.57895 37.28973z"/>
    <path fill="#8A0014" fill-rule="nonzero" d="M99.48558,51.02335 L113.42108,51.02335 C112.84495,46.34247 110.20183,44.31473 106.9212,44.31473 C102.8287,44.31473 100.1642,46.86135 99.48558,51.02335 Z M106.98158,61.73873 C110.67445,61.73873 112.2602,59.7756 112.86045,59.0011 C112.86045,59.0011 113.59683,58.0376 114.00583,57.9171 C114.37933,57.80885 114.79345,57.84035 115.1637,58.03735 C115.83595,58.3946 116.13683,59.17672 115.9122,59.87685 C115.81458,60.25022 115.6202,60.7226 115.29758,61.23573 C114.19133,62.90873 111.73345,64.94322 106.9212,64.94322 C100.34458,64.94322 96.13133,60.71198 96.13133,53.42473 C96.13133,47.10823 99.45232,41.13098 106.9212,41.13098 C112.5837,41.13098 116.23058,45.1206 116.67545,51.56898 C116.67545,53.99397 115.66658,54.08773 112.94258,54.08773 L99.33783,54.08773 C99.64883,60.9836 104.4257,61.73873 106.98158,61.73873 Z"/>
    <path fill="#8A0014" d="M61.8617,47.94798 C61.8617,44.2121 65.18195,41.26672 70.51858,41.26672 L70.64645,41.26723 C75.23658,41.26573 77.56908,43.2741 78.6192,44.9256 C78.9252,45.43185 79.10957,45.89822 79.20207,46.26685 C79.4157,46.95785 79.12995,47.72973 78.49183,48.08248 C78.14058,48.27685 77.7472,48.30785 77.39295,48.20123 C77.00482,48.0821 76.3062,47.1311 76.3062,47.1311 C75.8942,46.5786 74.99308,45.41223 73.2017,44.8086 C72.42595,44.56248 71.55245,44.4306 70.51858,44.4306 C67.19857,44.4306 65.22345,45.7881 65.22345,47.8641 C65.22345,49.3516 66.27445,50.55323 68.08145,50.9316 L73.79558,52.14985 C76.90558,52.82248 79.63695,54.42998 79.63695,58.11735 C79.63695,62.0286 76.23358,64.94097 70.68645,64.94097 L70.44407,64.94322 C65.63207,64.94322 63.1742,62.90873 62.06758,61.23573 C61.74508,60.7226 61.5507,60.25022 61.45332,59.87685 C61.22845,59.17672 61.52958,58.3946 62.20158,58.03735 C62.57208,57.84035 62.9862,57.80885 63.3597,57.9171 C63.7687,58.0376 64.50482,59.0011 64.50482,59.0011 C64.94183,59.56473 65.9007,60.75785 67.81345,61.36585 C68.65733,61.6336 69.61795,61.77297 70.68645,61.77297 C74.3842,61.77297 76.23358,60.29823 76.23358,58.2431 C76.23358,56.83585 75.18258,55.63785 73.45982,55.2596 L67.5767,54.04135 C64.46695,53.41035 61.8617,51.54423 61.8617,47.94798 Z"/>
  </g>
</svg>
