<?xml version="1.0" encoding="utf-8"?>
<!-- Generator: Adobe Illustrator 18.0.0, SVG Export Plug-In . SVG Version: 6.00 Build 0)  -->
<!DOCTYPE svg PUBLIC "-//W3C//DTD SVG 1.1//EN" "http://www.w3.org/Graphics/SVG/1.1/DTD/svg11.dtd">
<svg version="1.1"
	 id="svg2" xmlns:dc="http://purl.org/dc/elements/1.1/" xmlns:cc="http://creativecommons.org/ns#" xmlns:rdf="http://www.w3.org/1999/02/22-rdf-syntax-ns#" xmlns:svg="http://www.w3.org/2000/svg" xmlns:sodipodi="http://sodipodi.sourceforge.net/DTD/sodipodi-0.dtd" xmlns:inkscape="http://www.inkscape.org/namespaces/inkscape" sodipodi:docname="kde.svg" inkscape:version="0.91+devel r"
	 xmlns="http://www.w3.org/2000/svg" xmlns:xlink="http://www.w3.org/1999/xlink" x="0px" y="0px" viewBox="3 3 325.1 325.1"
	 enable-background="new 3 3 325.1 325.1" xml:space="preserve">
<sodipodi:namedview  showguides="true" units="px" showgrid="true" inkscape:cy="9.3171986" inkscape:cx="7.3679769" inkscape:zoom="25.212092" borderopacity="1.0" bordercolor="#666666" pagecolor="#ffffff" id="base" inkscape:window-maximized="1" inkscape:window-y="29" inkscape:window-x="-4" inkscape:current-layer="layer1" inkscape:document-units="px" inkscape:pageopacity="0.0" inkscape:window-width="1366" inkscape:window-height="670" inkscape:showpageshadow="false" inkscape:pageshadow="2">
	<inkscape:grid  type="xygrid" id="grid4101"></inkscape:grid>
	<sodipodi:guide  orientation="18,0" position="2,20.000017" id="guide4107"></sodipodi:guide>
	<sodipodi:guide  orientation="0,18" position="2,2.0000174" id="guide4109"></sodipodi:guide>
	<sodipodi:guide  orientation="-18,0" position="20,2.0000174" id="guide4111"></sodipodi:guide>
	<sodipodi:guide  orientation="0,-18" position="20,20.000017" id="guide4113"></sodipodi:guide>
	<sodipodi:guide  orientation="16,0" position="3,19.000017" id="guide4115"></sodipodi:guide>
	<sodipodi:guide  orientation="0,16" position="3,3.0000174" id="guide4117"></sodipodi:guide>
	<sodipodi:guide  orientation="-16,0" position="19,3.0000174" id="guide4119"></sodipodi:guide>
	<sodipodi:guide  orientation="0,-16" position="19,19.000017" id="guide4121"></sodipodi:guide>
	<sodipodi:guide  orientation="-7,0" position="10,6.0000174" id="guide4162"></sodipodi:guide>
	<sodipodi:guide  orientation="5,0" position="11,12.000017" id="guide4280"></sodipodi:guide>
	<sodipodi:guide  orientation="0,5" position="11,7.0000174" id="guide4282"></sodipodi:guide>
	<sodipodi:guide  orientation="-5,0" position="16,7.0000174" id="guide4284"></sodipodi:guide>
	<sodipodi:guide  orientation="0,-5" position="16,12.000017" id="guide4286"></sodipodi:guide>
	<sodipodi:guide  orientation="6,0" position="5,13.000017" id="guide4294"></sodipodi:guide>
	<sodipodi:guide  orientation="0,6" position="5,7.0000174" id="guide4296"></sodipodi:guide>
	<sodipodi:guide  orientation="-6,0" position="11,7.0000174" id="guide4298"></sodipodi:guide>
</sodipodi:namedview>
<g id="layer1" transform="translate(0,-1030.3622)" inkscape:groupmode="layer" inkscape:label="Capa 1">
	<path id="path5692_2_-3-2" inkscape:connector-curvature="0" fill="#4D4D4D" d="M192.8,1033.4l-57.6,5.4v222.3l56.9-7.8v-95
		l75.9,105.2l59.5-17.9l-77.8-101l78.4-95.6l-60.7-13.1l-75.3,95.6L192.8,1033.4L192.8,1033.4z M63.1,1087.7c-0.6,0-1.4,0.3-1.9,0.6
		l-22.1,21.5c-0.9,0.9-1.3,2.5-0.6,3.6l25.9,40.6c-4.7,7.4-8.1,15.5-10.8,23.9l-48.1,9.6c-1.3,0.3-2.5,1.1-2.5,2.4v29.9
		c0,1.3,1.2,2.7,2.5,3l46.8,10.8c2.5,9.7,6.3,19,11.4,27.5l-27.2,38.9c-0.8,1.1-0.4,2.7,0.6,3.6l22.1,20.9c0.9,0.9,2.6,1.3,3.8,0.6
		l42.4-24.5c8.3,4.5,17.1,8.3,26.6,10.8l10.1,44.8c0.3,1.3,1.2,2.4,2.5,2.4h31.6c1.3,0,2.8-1.2,3.2-2.4l11.4-44.8
		c9.8-2.5,19.3-6.6,27.8-11.4l41.7,26.3c1.1,0.7,2.8,0.3,3.8-0.6l22.1-20.9c0.9-0.9,1.3-2.5,0.6-3.6l-15.2-23.9l-5.1,1.8
		c-0.7,0.3-1.5,0-1.9-0.6c0,0-9.6-13.7-22.1-31.1c-15,27.8-45.7,46.6-81,46.6c-50.2,0-91.1-38.1-91.1-85.5
		c0-34.9,22.2-64.9,53.8-78.3v-22.1c-5.8,1.9-11.2,3.9-16.4,6.6c0,0-0.6,0-0.6,0L65,1088.3C64.4,1088,63.7,1087.7,63.1,1087.7
		L63.1,1087.7z"/>
</g>
</svg>
