<?xml version="1.0" encoding="UTF-8"?>
<!-- Generator: Adobe Illustrator 25.1.0, SVG Export Plug-In . SVG Version: 6.00 Build 0)  -->
<svg version="1.1" id="Layer_1" xmlns="http://www.w3.org/2000/svg" xmlns:xlink="http://www.w3.org/1999/xlink" x="0px" y="0px" viewBox="0 0 984.5 382.8" style="enable-background:new 0 0 984.5 382.8;" xml:space="preserve">
<style type="text/css">
	.st0{clip-path:url(#SVGID_2_);fill:#75DD31;}
	.st1{clip-path:url(#SVGID_2_);}
	.st2{fill:#51B1D5;}
	.st3{fill:#6FEEC9;}
	.st4{clip-path:url(#SVGID_2_);fill:#FFF200;}
	.st5{clip-path:url(#SVGID_2_);fill:#6FEEC9;}
	.st6{fill:#FFF200;}
	.st7{display:none;clip-path:url(#SVGID_2_);}
	.st8{display:inline;}
	.st9{clip-path:url(#SVGID_4_);fill:#75DD31;}
	.st10{clip-path:url(#SVGID_4_);}
	.st11{clip-path:url(#SVGID_4_);fill:#FFF200;}
	.st12{clip-path:url(#SVGID_4_);fill:#6FEEC9;}
	.st13{display:none;clip-path:url(#SVGID_4_);}
	.st14{fill:#121B86;}
	.st15{fill:#982C7E;}
	.st16{clip-path:url(#SVGID_6_);}
	.st17{clip-path:url(#SVGID_8_);}
	.st18{fill:none;stroke:#51B1D5;stroke-width:2;stroke-miterlimit:10;}
	.st19{clip-path:url(#SVGID_10_);}
	.st20{fill:none;}
	.st21{clip-path:url(#SVGID_12_);}
	.st22{fill:#DD324B;}
	.st23{opacity:0.998;fill:none;stroke:#FFF200;stroke-width:3;enable-background:new    ;}
	.st24{fill:#FFFFFF;}
	.st25{fill:#121B86;stroke:#FFF200;stroke-width:3;stroke-miterlimit:10;}
	.st26{fill:#121B86;stroke:#6FEEC9;stroke-width:5;stroke-miterlimit:10;}
	.st27{fill:none;stroke:#FFF200;stroke-width:3;stroke-miterlimit:10;}
	.st28{fill:#FF4E00;}
	.st29{fill:#DF36C5;}
	.st30{clip-path:url(#SVGID_14_);}
	.st31{fill:none;stroke:#121B86;stroke-width:3;stroke-miterlimit:10;}
	.st32{clip-path:url(#SVGID_16_);}
	.st33{clip-path:url(#SVGID_18_);fill:#982C7E;}
	.st34{display:none;}
	.st35{clip-path:url(#SVGID_20_);fill:#75DD31;}
	.st36{clip-path:url(#SVGID_20_);}
	.st37{clip-path:url(#SVGID_20_);fill:#FFF200;}
	.st38{clip-path:url(#SVGID_20_);fill:#6FEEC9;}
	.st39{display:none;clip-path:url(#SVGID_20_);}
	.st40{fill:#FFFFFF;stroke:#51B1D5;stroke-miterlimit:10;}
	.st41{fill:#75DD31;}
</style>
<g>
	<defs>
		<rect id="SVGID_1_" x="-1196.4" y="-9" width="1010.6" height="408"/>
	</defs>
	<clipPath id="SVGID_2_">
		<use xlink:href="#SVGID_1_" style="overflow:visible;"/>
	</clipPath>
	<g class="st1">
		<path class="st6" d="M-129,40.3c0,17.4,0,34.8,0,52.2c9.1,5.2,18.1,10.5,27.2,15.7c8.4,4.8,16.8,9.7,25.2,14.5    c0.6,0.4,1.2,0.7,1.8,1.1c2.1,1.2,2.8,3.4,2.8,5.6c0,3.2,0,6.4,0,9.6c0,17.4,0,34.8,0,52.2c1.9,1.1,3.7,2.1,5.6,3.2l0,0    c0.2,0.1,0.4,0.3,0.7,0.4c15.1,8.7,30.1,17.4,45.2,26.1c2.1-1.2,4.1-2.4,6.2-3.6c13.2-7.6,26.5-15.3,39.7-22.9    c0.5-0.3,0.9-0.5,1.4-0.8c1.4-0.8,2.8-1.6,4.2-2.4c0-18.2,0-36.4,0-54.6c0-2.6,0-5.2,0-7.8c0-3.9,3.1-5.2,5.9-6.8    c8.9-5.2,17.9-10.3,26.8-15.5c8.1-4.7,16.2-9.4,24.3-14c0-2.4,0-4.8,0-7.1c0-17.4,0-34.8,0-52.2c-2.1-1.2-4.1-2.4-6.2-3.6    C66.5,20.9,51.4,12.2,36.4,3.5c-9,5.2-18.1,10.4-27.1,15.7C0.8,24-7.6,28.9-16,33.7c-0.6,0.4-1.2,0.7-1.8,1.1    c-2.1,1.2-4.3,0.8-6.3-0.4c-2.8-1.6-5.5-3.2-8.3-4.8c-15.1-8.7-30.1-17.4-45.2-26.1c-2.1,1.2-4.1,2.4-6.2,3.6    C-98.9,15.8-114,24.5-129,33.2C-129,35.6-129,38-129,40.3z M-125.9,71.9c0-10.5,0-21.1,0-31.6c0-0.7,0-1.4,0-2.1    c0-2.9,1.9-4.3,4.1-5.6c3.7-2.1,7.3-4.2,11-6.4c9.3-5.4,18.6-10.8,28-16.1c0.8-0.5,1.6-0.9,2.4-1.4c2.1-1.2,4.4-0.8,6.3,0.4    c2.8,1.6,5.5,3.2,8.3,4.8c15.1,8.7,30.1,17.4,45.2,26.1c2.1-1.2,4.1-2.4,6.2-3.6c16-9.2,32-18.5,48-27.7C34.5,8.2,35.4,8,36.2,8    c0,0,0.1,0,0.1,0c0,0,0.1,0,0.1,0c0.9,0,1.8,0.2,2.7,0.8c4.5,2.6,9,5.2,13.5,7.8c9.1,5.3,18.3,10.5,27.4,15.8    c0.6,0.4,1.2,0.7,1.8,1.1c2.5,1.4,2.8,3.9,2.8,6.3c0,4.2,0,8.5,0,12.7c0,10.8,0,21.5,0,32.3c0,0.9,0,1.8,0,2.8    c0,2.4-1.5,4.1-3.4,5.2c-2.8,1.6-5.5,3.2-8.3,4.8c-15.1,8.7-30.2,17.4-45.3,26.1c0,2.4,0,4.8,0,7.1c0,18.5,0,37,0,55.5    c0,1.9-1.1,3.8-2.8,4.8c0,0,0,0-0.1,0c-2,1.1-3.9,2.3-5.9,3.4h0c-12.3,7.1-24.5,14.2-36.8,21.2c-1.7,1-3.9,1-5.6,0    c-12.3-7.1-24.5-14.2-36.8-21.2h0c-2-1.1-4-2.3-5.9-3.4c-1.7-1-2.8-2.8-2.8-4.8c0-3.5,0-6.9,0-10.4c0-17.4,0-34.8,0-52.2    c-2.1-1.2-4.1-2.4-6.2-3.6c-16-9.2-32-18.5-48-27.7c-1.7-1-2.8-2.8-2.8-4.8C-125.9,82.4-125.9,77.2-125.9,71.9z"/>
		<path class="st6" d="M-62.4,114.6c0.6,0.4,1.2,0.7,1.8,1.1c2.1,1.2,2.8,3.4,2.8,5.6c0,3.2,0,6.4,0,9.6c0,17.4,0,34.8,0,52.2    c6.6,3.8,13.2,7.6,19.8,11.4h0c5.8,3.3,11.6,6.7,17.4,10c5.8-3.3,11.6-6.7,17.4-10h0c6.6-3.8,13.2-7.6,19.8-11.4    c0-10.5,0-20.9,0-31.4c0-9.7,0-19.4,0-29.1c0-0.7,0-1.4,0-2.1c0-2.4,1.5-4.1,3.4-5.2c2.8-1.6,5.5-3.2,8.3-4.8    c15.1-8.7,30.2-17.4,45.3-26.1c0-14.3,0-28.6,0-42.9C61.1,34.3,48.7,27.1,36.4,20c-9,5.2-18.1,10.4-27.1,15.7    C0.8,40.5-7.6,45.3-16,50.2c-0.6,0.4-1.2,0.7-1.8,1.1c-2.1,1.2-4.3,0.8-6.3-0.4c-2.8-1.6-5.5-3.2-8.3-4.8    C-47.5,37.4-62.5,28.7-77.6,20c-12.4,7.2-24.8,14.3-37.2,21.5c0,14.3,0,28.6,0,42.9c9.1,5.2,18.1,10.5,27.2,15.7    C-79.2,104.9-70.8,109.7-62.4,114.6z M-111.7,79.3c0-6.1,0-12.2,0-18.3c0-3.8,0-7.6,0-11.4c0-3.1-0.3-6.3,2.9-8.1    c8.3-4.8,16.6-9.6,25-14.4c1.1-0.6,2.2-1.3,3.4-1.9c2.1-1.2,4.4-0.8,6.3,0.3c2.8,1.6,5.5,3.2,8.3,4.8    c15.1,8.7,30.1,17.4,45.2,26.1c2.1-1.2,4.1-2.4,6.2-3.6c16-9.2,32-18.5,48-27.7c0.9-0.5,1.8-0.8,2.7-0.8c0,0,0.1,0,0.1,0    c0,0,0.1,0,0.1,0c0.9,0,1.8,0.3,2.7,0.8c5.3,3,10.6,6.1,15.8,9.1c4,2.3,8,4.6,12,6.9c2.1,1.2,3.4,3.1,3.4,5.6c0,1.6,0,3.2,0,4.9    c0,9.2,0,18.4,0,27.6c0,1.9-1.1,3.8-2.8,4.8c-3,1.7-6,3.5-9,5.2c-15.1,8.7-30.2,17.4-45.3,26.1c0,2.4,0,4.8,0,7.1    c0,18.5,0,37,0,55.5c0,1.9-1.1,3.8-2.8,4.8c-5.3,3-10.6,6.1-15.8,9.1c-1.4,0.8-2.9,1.7-4.3,2.5h0c-2.8,1.6-5.5,3.2-8.3,4.8    c-1.7,1-3.9,1-5.6,0c-2.8-1.6-5.5-3.2-8.3-4.8h0c-6.7-3.9-13.5-7.8-20.2-11.7c-1.7-1-2.8-2.8-2.8-4.8c0-3.5,0-6.9,0-10.4    c0-17.4,0-34.8,0-52.2c-2.1-1.2-4.1-2.4-6.2-3.6c-16-9.2-32-18.5-48-27.7C-110.6,83.2-111.7,81.3-111.7,79.3z"/>
		<path class="st6" d="M-20.6,23.6c2.1-1.2,4.1-2.4,6.2-3.6C-1.2,12.4,12,4.7,25.2-2.9H19C6.7,4.2-5.6,11.2-17.8,18.3    c-1.7,1-3.9,1-5.6,0C-35.7,11.2-48,4.2-60.2-2.9h-6.3c0.2,0.1,0.4,0.3,0.7,0.4C-50.8,6.2-35.7,14.9-20.6,23.6z"/>
		<path class="st6" d="M-32.1,99.2c2.1,1.2,2.8,3.4,2.8,5.6c0,3.2,0,6.4,0,9.6c0,17.4,0,34.8,0,52.2c2.9,1.7,5.8,3.3,8.7,5    c2.9-1.7,5.8-3.3,8.7-5c0-2.4,0-4.8,0-7.1c0-18.5,0-37,0-55.5c0-1.9,1.1-3.8,2.8-4.8c3-1.7,6-3.5,9-5.2C14.9,85.3,30,76.6,45,67.9    c0-3.3,0-6.7,0-10c-2.9-1.7-5.8-3.3-8.7-5c-2.1,1.2-4.1,2.4-6.2,3.6c-16,9.2-32,18.5-48,27.7c-1.7,1-3.9,1-5.6,0    c-3-1.7-6-3.5-9-5.2c-15.1-8.7-30.1-17.4-45.2-26.1c-2.9,1.7-5.8,3.3-8.7,5c0,3.3,0,6.7,0,10c9.1,5.2,18.1,10.5,27.2,15.7    c8.4,4.8,16.8,9.7,25.2,14.5C-33.3,98.5-32.7,98.8-32.1,99.2z M-80.4,67.7c-2.9-1.7-3.2-4.7-2.1-7c1.3-2.7,4.4-4.5,7.7-2.6    c3,1.7,6,3.4,9,5.2c15.1,8.7,30.1,17.4,45.2,26.1c2.1-1.2,4.1-2.4,6.2-3.6c1.3-0.8,2.7-1.5,4-2.3c14.7-8.5,29.3-16.9,44-25.4    c5.6-3.3,10.8,4.3,7.1,8.4c-0.4,0.4-0.9,0.8-1.4,1.2c-3,1.7-6,3.5-9,5.2C19,79.3,7.8,85.8-3.5,92.3c-3.9,2.2-7.7,4.5-11.6,6.7    c0,2.4,0,4.8,0,7.1c0,18.5,0,37,0,55.5c0,6.5-9.1,7.1-10.8,1.8c-0.2-0.5-0.3-1.2-0.3-1.8c0-3.5,0-6.9,0-10.4c0-17.4,0-34.8,0-52.2    c-2.1-1.2-4.1-2.4-6.2-3.6C-48.4,86.2-64.4,76.9-80.4,67.7z"/>
		<path class="st6" d="M-43.6,112.2c0,3.5,0,6.9,0,10.4c0,17.4,0,34.8,0,52.2c7.6,4.4,15.3,8.8,22.9,13.2    c7.6-4.4,15.3-8.8,22.9-13.2c0-10.5,0-20.9,0-31.4c0-9.7,0-19.4,0-29.1c0-0.7,0-1.4,0-2.1c0-2.4,1.5-4.1,3.4-5.2    c2.8-1.6,5.5-3.2,8.3-4.8c15.1-8.7,30.2-17.4,45.3-26.1c0-8.8,0-17.7,0-26.5c-7.6-4.4-15.3-8.8-22.9-13.2    c-9,5.2-18.1,10.4-27.1,15.7C0.8,56.9-7.6,61.8-16,66.6c-0.6,0.4-1.2,0.7-1.8,1.1c-2.1,1.2-4.3,0.8-6.3-0.4    c-2.8-1.6-5.5-3.2-8.3-4.8c-15.1-8.7-30.1-17.4-45.2-26.1c-7.6,4.4-15.3,8.8-22.9,13.2c0,8.8,0,17.7,0,26.5    c2.1,1.2,4.1,2.4,6.2,3.6c16,9.2,32,18.5,48,27.7C-44.6,108.4-43.6,110.3-43.6,112.2z M-94.7,75.9c-1.7-1-2.8-2.8-2.8-4.8    c0-2.9,0-5.9,0-8.8c0-1.9,0-3.7,0-5.6c0-1.7-0.1-3.4,0.8-4.9c0.9-1.6,2.5-2.3,4-3.2c1.6-0.9,3.3-1.9,4.9-2.8    c2.4-1.4,4.9-2.8,7.3-4.2c1.7-1,3.9-1,5.6,0c3,1.7,6,3.5,9,5.2c15.1,8.7,30.1,17.4,45.2,26.1c2.1-1.2,4.1-2.4,6.2-3.6    c16-9.2,32-18.5,48-27.7c0.9-0.5,1.8-0.8,2.7-0.8c0.1,0,0.1,0,0.2,0c0,0,0,0,0.1,0c0.9,0,1.8,0.2,2.7,0.8c0.2,0.1,0.5,0.3,0.7,0.4    c4.3,2.5,8.7,5,13,7.5c1.9,1.1,3.3,2.8,3.3,5.1c0,0.5,0,1.1,0,1.6c0,2.8,0,5.5,0,8.3c0,2.1,0,4.3,0,6.4c0,2.5-1.4,4.2-3.4,5.3    c-2.8,1.6-5.5,3.2-8.3,4.8c-15.1,8.7-30.2,17.4-45.3,26.1c0,2.4,0,4.8,0,7.1c0,18.5,0,37,0,55.5c0,1.9-1.1,3.8-2.8,4.8    c-2.5,1.5-5.1,2.9-7.6,4.4c-1.6,0.9-3.2,1.9-4.8,2.8c-1.5,0.8-2.9,1.8-4.6,1.8c-1.8,0-3.3-1.1-4.9-1.9c-1.6-0.9-3.3-1.9-4.9-2.8    c-2.4-1.4-4.9-2.8-7.3-4.2c-1.7-1-2.8-2.8-2.8-4.8c0-3.5,0-6.9,0-10.4c0-17.4,0-34.8,0-52.2c-2.1-1.2-4.1-2.4-6.2-3.6    C-62.7,94.4-78.7,85.2-94.7,75.9z"/>
	</g>
</g>
<g>
	<defs>
		<rect id="SVGID_13_" x="1097.7" y="-801.8" width="464.7" height="233.4"/>
	</defs>
	<clipPath id="SVGID_4_">
		<use xlink:href="#SVGID_13_" style="overflow:visible;"/>
	</clipPath>
	<g class="st10">
	</g>
	<use xlink:href="#SVGID_13_" style="overflow:visible;fill:none;stroke:#121B86;stroke-width:3;stroke-miterlimit:10;"/>
</g>
<g>
	<defs>
		<rect id="SVGID_19_" x="-13.4" y="-9" width="1010.6" height="408"/>
	</defs>
	<clipPath id="SVGID_6_">
		<use xlink:href="#SVGID_19_" style="overflow:visible;"/>
	</clipPath>
	<rect x="-13.4" y="-9" style="clip-path:url(#SVGID_6_);fill:#75DD31;" width="1010.7" height="400.8"/>
	<g class="st16">
		<g>
			<path class="st2" d="M10.6,242.2c0-9.7,0-19.4,0-29.1c0-0.7,0-1.4,0-2.1c0-2.4,1.5-4.1,3.4-5.2c2.8-1.6,5.5-3.2,8.3-4.8     c3.7-2.2,7.5-4.3,11.2-6.5l0,0c11.4-6.6,22.7-13.1,34.1-19.7c0-8.8,0-17.7,0-26.5c-7.6-4.4-15.3-8.8-22.9-13.2     c-9,5.2-18.1,10.4-27.1,15.7c-8.4,4.8-16.8,9.7-25.2,14.5c-0.6,0.4-1.2,0.7-1.8,1.1c-0.9,0.5-1.9,0.8-2.8,0.7v4.5c0,0,0,0,0,0     c2.1-1.2,4.1-2.4,6.2-3.6c16-9.2,32-18.5,48-27.7c1.7-1,3.9-1,5.6,0c2.5,1.5,5.1,2.9,7.6,4.4c1.6,0.9,3.2,1.9,4.8,2.8     c1.4,0.8,2.9,1.5,3.8,3c0.9,1.6,0.8,3.4,0.8,5.2c0,1.9,0,3.8,0,5.7c0,2.8,0,5.6,0,8.4c0,1.9-1.1,3.8-2.8,4.8c-3,1.7-6,3.5-9,5.2     c-8.5,4.9-17,9.8-25.5,14.7h0c-6.6,3.8-13.2,7.6-19.8,11.4c0,2.4,0,4.8,0,7.1c0,18.5,0,37,0,55.5c0,1.9-1.1,3.8-2.8,4.8     c-2.5,1.5-5.1,2.9-7.6,4.4c-1.6,0.9-3.2,1.9-4.8,2.8c-1.5,0.8-2.9,1.8-4.6,1.8v4.5c7.6-4.4,15.3-8.8,22.9-13.2     C10.6,263.1,10.6,252.6,10.6,242.2z"/>
			<path class="st2" d="M24.9,250.4c0-9.7,0-19.4,0-29.1c0-0.7,0-1.4,0-2.1c0-2.4,1.5-4.1,3.4-5.2c2.8-1.6,5.5-3.2,8.3-4.8     c8.5-4.9,17-9.8,25.5-14.7c6.6-3.8,13.2-7.6,19.8-11.4c0-14.3,0-28.6,0-42.9c-12.4-7.2-24.8-14.3-37.2-21.5     c-9,5.2-18.1,10.4-27.1,15.7c-8.4,4.8-16.8,9.7-25.2,14.5c-0.6,0.4-1.2,0.7-1.8,1.1c-0.9,0.5-1.9,0.8-2.8,0.7v4.5     c9.6-5.5,19.1-11.1,28.7-16.6c8.1-4.6,16.1-9.3,24.2-13.9c0.8-0.5,1.7-1.1,2.6-1.3c2.5-0.7,4.4,0.6,6.3,1.7     c4.6,2.7,9.2,5.3,13.8,8c4,2.3,8,4.6,12,6.9c2.1,1.2,3.4,3.1,3.4,5.6c0,1.6,0,3.2,0,4.9c0,9.2,0,18.4,0,27.6     c0,1.9-1.1,3.8-2.8,4.8c-3,1.7-6,3.5-9,5.2c-3.7,2.2-7.5,4.3-11.2,6.5l0,0c-11.4,6.6-22.7,13.1-34.1,19.7c0,2.4,0,4.8,0,7.1     c0,18.5,0,37,0,55.5c0,1.9-1.1,3.8-2.8,4.8c-5.3,3-10.6,6.1-15.8,9.1c-4,2.3-8,4.6-12,6.9c-1.1,0.6-2.3,1-3.4,1v4.6     c12.4-7.2,24.8-14.3,37.2-21.5C24.9,271.3,24.9,260.9,24.9,250.4z"/>
			<path class="st2" d="M44.7,316.1c-9,5.2-18.1,10.4-27.1,15.7c-8.4,4.8-16.8,9.7-25.2,14.5c-0.6,0.4-1.2,0.7-1.8,1.1     c-0.9,0.5-1.9,0.8-2.8,0.7v4.5c9.6-5.5,19.1-11.1,28.7-16.6c8.1-4.6,16.1-9.3,24.2-13.9c0.8-0.5,1.7-1.1,2.6-1.3     c2.5-0.7,4.4,0.6,6.3,1.7c4.6,2.7,9.2,5.3,13.8,8c4,2.3,8,4.6,12,6.9c2.1,1.2,3.4,3.1,3.4,5.6c0,1.6,0,3.2,0,4.9     c0,9.2,0,18.4,0,27.6c0,2-1.1,3.8-2.8,4.8c-3,1.7-6,3.4-9,5.2c-3.7,2.2-7.5,4.3-11.2,6.5h6.3c6.6-3.8,13.2-7.6,19.8-11.4     c0-14.3,0-28.6,0-42.9C69.5,330.4,57.1,323.2,44.7,316.1z"/>
			<path class="st2" d="M53.4,354c-2.9-1.7-5.8-3.3-8.7-5c-2.1,1.2-4.1,2.4-6.2,3.6c-16,9.2-32,18.5-48,27.7     c-0.9,0.5-1.8,0.7-2.8,0.7v4.5c0.2-0.1,0.5-0.3,0.7-0.4c1.8-1,3.6-2.1,5.4-3.1c4.6-2.7,9.2-5.3,13.9-8     c11.4-6.6,22.8-13.1,34.2-19.7c5.2-3,10,3.3,7.7,7.5c-0.4,0.8-1.1,1.5-2.1,2c-3,1.7-6,3.5-9,5.2c-13.2,7.6-26.5,15.3-39.7,22.9     h6.3c1-0.6,2-1.2,3-1.7c15.1-8.7,30.2-17.4,45.3-26.1C53.4,360.7,53.4,357.3,53.4,354z"/>
			<path class="st2" d="M67.6,345.8c-7.6-4.4-15.3-8.8-22.9-13.2c-9,5.2-18.1,10.4-27.1,15.7c-8.4,4.8-16.8,9.7-25.2,14.5     c-0.6,0.4-1.2,0.7-1.8,1.1c-0.9,0.5-1.9,0.8-2.8,0.7v4.5v0c2.1-1.2,4.1-2.4,6.2-3.6c16-9.2,32-18.5,48-27.7c1.7-1,3.9-1,5.6,0     c2.5,1.5,5.1,2.9,7.6,4.4c1.6,0.9,3.2,1.9,4.8,2.8c1.4,0.8,2.9,1.5,3.8,3c0.9,1.6,0.8,3.4,0.8,5.2c0,1.9,0,3.8,0,5.7     c0,2.8,0,5.6,0,8.4c0,1.9-1.1,3.8-2.8,4.8c-3,1.7-6,3.4-9,5.2c-8.5,4.9-17,9.8-25.5,14.7h6.3c11.4-6.6,22.7-13.1,34.1-19.7     C67.6,363.4,67.6,354.6,67.6,345.8z"/>
			<path class="st2" d="M267.1,290c0-2.4,0-4.8,0-7.1c0-17.4,0-34.8,0-52.2c-2.1-1.2-4.1-2.4-6.2-3.6c-15.1-8.7-30.1-17.4-45.2-26.1     c-9,5.2-18.1,10.4-27.1,15.7c-8.4,4.8-16.8,9.7-25.2,14.5c-0.6,0.4-1.2,0.7-1.8,1.1c-2.1,1.2-4.3,0.8-6.3-0.4     c-2.8-1.6-5.5-3.2-8.3-4.8c-15.1-8.7-30.1-17.4-45.2-26.1c-2.1,1.2-4.1,2.4-6.2,3.6c-15.1,8.7-30.2,17.4-45.3,26.1     c0,2.4,0,4.8,0,7.1c0,17.4,0,34.8,0,52.2c9.1,5.2,18.1,10.5,27.2,15.7c8.4,4.8,16.8,9.7,25.2,14.5c0.6,0.4,1.2,0.7,1.8,1.1     c2.1,1.2,2.8,3.4,2.8,5.6c0,3.2,0,6.4,0,9.6c0,17.4,0,34.8,0,52.2c1.9,1.1,3.7,2.1,5.6,3.2h6.3c-2-1.1-4-2.3-5.9-3.4     c-1.7-1-2.8-2.8-2.8-4.8c0-3.5,0-6.9,0-10.4c0-17.4,0-34.8,0-52.2c-2.1-1.2-4.1-2.4-6.2-3.6c-16-9.2-32-18.5-48-27.7     c-1.7-1-2.8-2.8-2.8-4.8c0-5.2,0-10.4,0-15.6c0-10.5,0-21.1,0-31.6c0-0.7,0-1.4,0-2.1c0-2.9,1.9-4.3,4.1-5.6     c3.7-2.1,7.3-4.2,11-6.4c9.3-5.4,18.6-10.8,28-16.1c0.8-0.5,1.6-0.9,2.4-1.4c2.1-1.2,4.4-0.8,6.3,0.4c2.8,1.6,5.5,3.2,8.3,4.8     c15.1,8.7,30.1,17.4,45.2,26.1c2.1-1.2,4.1-2.4,6.2-3.6c16-9.2,32-18.5,48-27.7c0.9-0.5,1.8-0.8,2.7-0.8c0,0,0.1,0,0.1,0     c0,0,0.1,0,0.1,0c0.9,0,1.8,0.2,2.7,0.8c4.5,2.6,9,5.2,13.5,7.8c9.1,5.3,18.3,10.5,27.4,15.8c0.6,0.4,1.2,0.7,1.8,1.1     c2.5,1.4,2.8,3.9,2.8,6.3c0,4.2,0,8.5,0,12.7c0,10.8,0,21.5,0,32.3c0,0.9,0,1.8,0,2.8c0,2.4-1.5,4.1-3.4,5.2     c-2.8,1.6-5.5,3.2-8.3,4.8c-15.1,8.7-30.2,17.4-45.3,26.1c0,2.4,0,4.8,0,7.1c0,18.5,0,37,0,55.5c0,1.9-1.1,3.8-2.8,4.8     c0,0,0,0-0.1,0c-2,1.1-3.9,2.3-5.9,3.4h6.3c0.5-0.3,0.9-0.5,1.4-0.8c1.4-0.8,2.8-1.6,4.2-2.4c0-18.2,0-36.4,0-54.6     c0-2.6,0-5.2,0-7.8c0-3.9,3.1-5.2,5.9-6.8c8.9-5.2,17.9-10.3,26.8-15.5C250.9,299.3,259,294.7,267.1,290z"/>
			<path class="st2" d="M96.1,329.3c-2.1-1.2-4.1-2.4-6.2-3.6c-15.1-8.7-30.1-17.4-45.2-26.1c-9,5.2-18.1,10.4-27.1,15.7     c-8.4,4.8-16.8,9.7-25.2,14.5c-0.6,0.4-1.2,0.7-1.8,1.1c-0.9,0.5-1.9,0.8-2.8,0.7v4.5c2.7-1.6,5.4-3.1,8.2-4.7     c10.1-5.8,20.3-11.7,30.4-17.5c3.9-2.3,7.9-4.6,11.8-6.8c2.9-1.7,6-4.1,9.4-2.2c7.5,4.3,15.1,8.7,22.6,13     c4.8,2.8,9.6,5.5,14.3,8.3c3.2,1.8,8.5,3.8,8.5,8.1c0,16.4,0,32.9,0,49.3c0,2-1.1,3.8-2.8,4.8c-2,1.1-4,2.3-5.9,3.4h6.3     c1.9-1.1,3.7-2.1,5.6-3.2c0-2.4,0-4.8,0-7.1C96.1,364.1,96.1,346.7,96.1,329.3z"/>
			<path class="st2" d="M39.1,290c0-10.5,0-20.9,0-31.4c0-9.7,0-19.4,0-29.1c0-0.7,0-1.4,0-2.1c0-2.4,1.5-4.1,3.4-5.2     c2.8-1.6,5.5-3.2,8.3-4.8c13.2-7.6,26.5-15.3,39.7-22.9h0c1.9-1.1,3.7-2.1,5.6-3.2c0-2.4,0-4.8,0-7.1c0-17.4,0-34.8,0-52.2     c-2.1-1.2-4.1-2.4-6.2-3.6c-15.1-8.7-30.1-17.4-45.2-26.1c-9,5.2-18.1,10.4-27.1,15.7c-8.4,4.8-16.8,9.7-25.2,14.5     c-0.6,0.4-1.2,0.7-1.8,1.1c-0.9,0.5-1.9,0.8-2.8,0.7v4.5c2.7-1.6,5.4-3.1,8.2-4.7c10.1-5.8,20.3-11.7,30.4-17.5     c3.9-2.3,7.9-4.6,11.8-6.8c2.9-1.7,6-4.1,9.4-2.2c7.5,4.3,15.1,8.7,22.6,13c4.8,2.8,9.6,5.5,14.3,8.3c3.2,1.8,8.5,3.8,8.5,8.1     c0,16.4,0,32.9,0,49.4c0,1.9-1.1,3.8-2.8,4.8c-2,1.1-4,2.3-5.9,3.4c-1,0.6-2,1.2-3,1.7C66.2,205,51.1,213.7,36,222.4     c0,2.4,0,4.8,0,7.1c0,18.5,0,37,0,55.5c0,1.9-1.1,3.8-2.8,4.8c0,0,0,0-0.1,0c-7.5,4.3-15.1,8.7-22.6,13     c-4.8,2.8-9.6,5.5-14.3,8.3c-2.4,1.4-5.5,3.8-8.5,4v4.6c2.1-1.2,4.1-2.4,6.2-3.6C9,307.4,24,298.7,39.1,290z"/>
			<path class="st2" d="M207.6,307.9c15.1-8.7,30.2-17.4,45.3-26.1c0-14.3,0-28.6,0-42.9c-12.4-7.2-24.8-14.3-37.2-21.5     c-9,5.2-18.1,10.4-27.1,15.7c-8.4,4.8-16.8,9.7-25.2,14.5c-0.6,0.4-1.2,0.7-1.8,1.1c-2.1,1.2-4.3,0.8-6.3-0.4     c-2.8-1.6-5.5-3.2-8.3-4.8c-15.1-8.7-30.1-17.4-45.2-26.1c-12.4,7.2-24.8,14.3-37.2,21.5c0,14.3,0,28.6,0,42.9     c9.1,5.2,18.1,10.5,27.2,15.7c8.4,4.8,16.8,9.7,25.2,14.5c0.6,0.4,1.2,0.7,1.8,1.1c2.1,1.2,2.8,3.4,2.8,5.6c0,3.2,0,6.4,0,9.6     c0,17.4,0,34.8,0,52.2c6.6,3.8,13.2,7.6,19.8,11.4h6.3c-6.7-3.9-13.5-7.8-20.2-11.7c-1.7-1-2.8-2.8-2.8-4.8c0-3.4,0-6.9,0-10.4     c0-17.4,0-34.8,0-52.2c-2.1-1.2-4.1-2.4-6.2-3.6c-16-9.2-32-18.5-48-27.7c-1.7-1-2.8-2.8-2.8-4.8c0-6.1,0-12.2,0-18.3     c0-3.8,0-7.6,0-11.4c0-3.1-0.3-6.3,2.9-8.1c8.3-4.8,16.6-9.6,25-14.4c1.1-0.6,2.2-1.3,3.4-1.9c2.1-1.2,4.4-0.8,6.3,0.3     c2.8,1.6,5.5,3.2,8.3,4.8c15.1,8.7,30.1,17.4,45.2,26.1c2.1-1.2,4.1-2.4,6.2-3.6c16-9.2,32-18.5,48-27.7c0.9-0.5,1.8-0.8,2.7-0.8     c0,0,0.1,0,0.1,0c0,0,0.1,0,0.1,0c0.9,0,1.8,0.3,2.7,0.8c5.3,3,10.6,6.1,15.8,9.1c4,2.3,8,4.6,12,6.9c2.1,1.2,3.4,3.1,3.4,5.6     c0,1.6,0,3.2,0,4.9c0,9.2,0,18.4,0,27.6c0,1.9-1.1,3.8-2.8,4.8c-3,1.7-6,3.4-9,5.2c-15.1,8.7-30.2,17.4-45.3,26.1     c0,2.4,0,4.8,0,7.1c0,18.5,0,37,0,55.5c0,1.9-1.1,3.8-2.8,4.8c-5.3,3-10.6,6.1-15.8,9.1c-1.4,0.8-2.9,1.7-4.3,2.5h6.3     c6.6-3.8,13.2-7.6,19.8-11.4c0-10.5,0-20.9,0-31.4c0-9.7,0-19.4,0-29.1c0-0.7,0-1.4,0-2.1c0-2.4,1.5-4.1,3.4-5.2     C202,311.1,204.8,309.5,207.6,307.9z"/>
			<path class="st2" d="M147.2,296.6c2.1,1.2,2.8,3.4,2.8,5.6c0,3.2,0,6.4,0,9.6c0,17.4,0,34.8,0,52.2c2.9,1.7,5.8,3.3,8.7,5     c2.9-1.7,5.8-3.3,8.7-5c0-2.4,0-4.8,0-7.1c0-18.5,0-37,0-55.5c0-2,1.1-3.8,2.8-4.8c3-1.7,6-3.4,9-5.2     c15.1-8.7,30.2-17.4,45.3-26.1c0-3.3,0-6.7,0-10c-2.9-1.7-5.8-3.3-8.7-5c-2.1,1.2-4.1,2.4-6.2,3.6c-16,9.2-32,18.5-48,27.7     c-1.7,1-3.9,1-5.6,0c-3-1.7-6-3.5-9-5.2c-15.1-8.7-30.1-17.4-45.2-26.1c-2.9,1.7-5.8,3.3-8.7,5c0,3.3,0,6.7,0,10     c9.1,5.2,18.1,10.5,27.2,15.7c8.4,4.8,16.8,9.7,25.2,14.5C146,295.9,146.6,296.2,147.2,296.6z M98.9,265.1     c-2.9-1.7-3.2-4.7-2.1-7c1.3-2.7,4.4-4.5,7.7-2.6c3,1.7,6,3.5,9,5.2c15.1,8.7,30.1,17.4,45.2,26.1c2.1-1.2,4.1-2.4,6.2-3.6     c1.3-0.8,2.7-1.5,4-2.3c14.7-8.5,29.3-16.9,44-25.4c5.6-3.3,10.8,4.3,7.1,8.4c-0.4,0.4-0.9,0.8-1.4,1.2c-3,1.7-6,3.4-9,5.2     c-11.2,6.5-22.4,13-33.7,19.4c-3.9,2.2-7.7,4.5-11.6,6.7c0,2.4,0,4.8,0,7.1c0,18.5,0,37,0,55.5c0,6.5-9.1,7.1-10.8,1.8     c-0.2-0.5-0.3-1.2-0.3-1.8c0-3.5,0-6.9,0-10.4c0-17.4,0-34.8,0-52.2c-2.1-1.2-4.1-2.4-6.2-3.6     C130.9,283.6,114.9,274.3,98.9,265.1z"/>
			<path class="st2" d="M135.7,372.2c7.6,4.4,15.3,8.8,22.9,13.2c7.6-4.4,15.3-8.8,22.9-13.2c0-10.5,0-20.9,0-31.4     c0-9.7,0-19.4,0-29.1c0-0.7,0-1.4,0-2.1c0-2.4,1.5-4.1,3.4-5.2c2.8-1.6,5.5-3.2,8.3-4.8c15.1-8.7,30.2-17.4,45.3-26.1     c0-8.8,0-17.7,0-26.5c-7.6-4.4-15.3-8.8-22.9-13.2c-9,5.2-18.1,10.4-27.1,15.7c-8.4,4.8-16.8,9.7-25.2,14.5     c-0.6,0.4-1.2,0.7-1.8,1.1c-2.1,1.2-4.3,0.8-6.3-0.4c-2.8-1.6-5.5-3.2-8.3-4.8c-15.1-8.7-30.1-17.4-45.2-26.1     c-7.6,4.4-15.3,8.8-22.9,13.2c0,8.8,0,17.7,0,26.5c2.1,1.2,4.1,2.4,6.2,3.6c16,9.2,32,18.5,48,27.7c1.7,1,2.8,2.8,2.8,4.8     c0,3.4,0,6.9,0,10.4C135.7,337.4,135.7,354.8,135.7,372.2z M132.7,301c-16-9.2-32-18.5-48-27.7c-1.7-1-2.8-2.8-2.8-4.8     c0-2.9,0-5.9,0-8.8c0-1.9,0-3.7,0-5.6c0-1.7-0.1-3.4,0.8-4.9c0.9-1.6,2.5-2.3,4-3.2c1.6-0.9,3.3-1.9,4.9-2.8     c2.4-1.4,4.9-2.8,7.3-4.2c1.7-1,3.9-1,5.6,0c3,1.7,6,3.5,9,5.2c15.1,8.7,30.1,17.4,45.2,26.1c2.1-1.2,4.1-2.4,6.2-3.6     c16-9.2,32-18.5,48-27.7c0.9-0.5,1.8-0.8,2.7-0.8c0.1,0,0.1,0,0.2,0c0,0,0,0,0.1,0c0.9,0,1.8,0.2,2.7,0.8     c0.2,0.1,0.5,0.3,0.7,0.4c4.3,2.5,8.7,5,13,7.5c1.9,1.1,3.3,2.8,3.3,5.1c0,0.5,0,1.1,0,1.6c0,2.8,0,5.5,0,8.3c0,2.1,0,4.3,0,6.4     c0,2.5-1.4,4.2-3.4,5.3c-2.8,1.6-5.5,3.2-8.3,4.8c-15.1,8.7-30.2,17.4-45.3,26.1c0,2.4,0,4.8,0,7.1c0,18.5,0,37,0,55.5     c0,1.9-1.1,3.8-2.8,4.8c-2.5,1.5-5.1,2.9-7.6,4.4c-1.6,0.9-3.2,1.9-4.8,2.8c-1.5,0.8-2.9,1.8-4.6,1.8c-1.8,0-3.3-1.1-4.9-1.9     c-1.6-0.9-3.3-1.9-4.9-2.8c-2.4-1.4-4.9-2.8-7.3-4.2c-1.7-1-2.8-2.8-2.8-4.8c0-3.4,0-6.9,0-10.4c0-17.4,0-34.8,0-52.2     C136.8,303.4,134.7,302.2,132.7,301z"/>
			<path class="st2" d="M-3.6,258.2c0-18.5,0-37,0-55.5c0-2,1.1-3.8,2.8-4.8c2-1.1,4-2.3,5.9-3.4c1-0.6,2-1.2,3-1.7     c15.1-8.7,30.2-17.4,45.3-26.1c0-3.3,0-6.7,0-10c-2.9-1.7-5.8-3.3-8.7-5c-2.1,1.2-4.1,2.4-6.2,3.6c-16,9.2-32,18.5-48,27.7     c-0.9,0.5-1.8,0.7-2.8,0.7v4.5c0.2-0.1,0.5-0.3,0.7-0.4c1.8-1,3.6-2.1,5.4-3.1c4.6-2.7,9.2-5.3,13.9-8     c11.4-6.6,22.8-13.1,34.2-19.7c5.2-3,10,3.3,7.7,7.5c-0.4,0.8-1.1,1.5-2.1,2c-3,1.7-6,3.5-9,5.2c-13.2,7.6-26.5,15.3-39.7,22.9     c-1.9,1.1-3.7,2.1-5.6,3.2c0,2.4,0,4.8,0,7.1c0,18.5,0,37,0,55.5c0,0.9-0.2,1.7-0.5,2.4c-0.9,2-3,3-5.1,3v4.7     c2.9-1.7,5.8-3.3,8.7-5C-3.6,262.9-3.6,260.5-3.6,258.2z"/>
			<path class="st2" d="M319.9,80.1c-2.4-1.4-4.9-2.8-7.3-4.2c-1.7-1-2.8-2.8-2.8-4.8c0-3.5,0-6.9,0-10.4c0-17.4,0-34.8,0-52.2     c-2.1-1.2-4.1-2.4-6.2-3.6c-4.5-2.6-9.1-5.2-13.6-7.8h-6.3c6.7,3.9,13.5,7.8,20.2,11.7c1.7,1,2.8,2.8,2.8,4.8c0,3.5,0,6.9,0,10.4     c0,17.4,0,34.8,0,52.2c7.6,4.4,15.3,8.8,22.9,13.2l0,0v-4.5c-1.8,0-3.3-1.1-4.9-1.9C323.1,82,321.5,81.1,319.9,80.1z"/>
			<path class="st3" d="M10.6,44.8c0-9.7,0-19.4,0-29.1c0-0.7,0-1.4,0-2.1c0-2.4,1.5-4.1,3.4-5.2c2.8-1.6,5.5-3.2,8.3-4.8     c3.7-2.2,7.5-4.3,11.2-6.5h-6.3C20.7,0.9,14.1,4.7,7.5,8.5c0,2.4,0,4.8,0,7.1c0,18.5,0,37,0,55.5c0,1.9-1.1,3.8-2.8,4.8     c-2.5,1.5-5.1,2.9-7.6,4.4c-1.6,0.9-3.2,1.9-4.8,2.8c-1.5,0.8-2.9,1.8-4.6,1.8v4.5C-4.6,85,3,80.5,10.6,76.1     C10.6,65.7,10.6,55.2,10.6,44.8z"/>
			<path class="st3" d="M24.9,53c0-9.7,0-19.4,0-29.1c0-0.7,0-1.4,0-2.1c0-2.4,1.5-4.1,3.4-5.2c2.8-1.6,5.5-3.2,8.3-4.8     c8.5-4.9,17-9.8,25.5-14.7h-6.3C44.5,3.6,33.1,10.2,21.8,16.7c0,2.4,0,4.8,0,7.1c0,18.5,0,37,0,55.5c0,1.9-1.1,3.8-2.8,4.8     c-5.3,3-10.6,6.1-15.8,9.1c-4,2.3-8,4.6-12,6.9c-1.1,0.6-2.3,1-3.4,1v4.6c12.4-7.2,24.8-14.3,37.2-21.5     C24.9,73.9,24.9,63.5,24.9,53z"/>
			<path class="st2" d="M324.1,62.9C324.1,62.9,324.1,62.9,324.1,62.9c0-3.5,0-6.9,0-10.4c0,0,0,0,0,0c0-17.4,0-34.8,0-52.2     c-1.9-1.1-3.7-2.1-5.6-3.2h-6.3c1.4,0.8,2.7,1.6,4.1,2.3c0.6,0.4,1.2,0.7,1.8,1.1c2.1,1.2,2.8,3.4,2.8,5.6c0,3.2,0,6.4,0,9.6     c0,17.4,0,34.8,0,52.2c2.9,1.7,5.8,3.3,8.7,5c0,0,0,0,0,0v-4.7C326.8,68.3,324.1,66.5,324.1,62.9z"/>
			<path class="st2" d="M317.9,128.3c-15.1-8.7-30.1-17.4-45.2-26.1c-2.1,1.2-4.1,2.4-6.2,3.6c-15.1,8.7-30.2,17.4-45.3,26.1     c0,2.4,0,4.8,0,7.1c0,17.4,0,34.8,0,52.2c0.1,0.1,0.3,0.1,0.4,0.2c1.7,1,3.4,2,5.2,3c7.2,4.2,14.4,8.3,21.6,12.5     c8.4,4.8,16.8,9.7,25.2,14.5c0.6,0.4,1.2,0.7,1.8,1.1c2.1,1.2,2.8,3.4,2.8,5.6c0,3.2,0,6.4,0,9.6c0,17.4,0,34.8,0,52.2     c2.1,1.2,4.1,2.4,6.2,3.6c15.1,8.7,30.1,17.4,45.2,26.1v-4.6c-1,0-1.9-0.1-2.8-0.7c-14.2-8.2-28.5-16.4-42.7-24.7     c-1.7-1-2.8-2.8-2.8-4.8c0-3.4,0-6.9,0-10.4c0-17.4,0-34.8,0-52.2c-2.1-1.2-4.1-2.4-6.2-3.6c-14-8.1-28.1-16.2-42.1-24.3h0     c-0.5-0.3-1-0.6-1.4-0.8c-3-1.7-7.2-3.3-7.2-7.4c0-16.5,0-32.9,0-49.4c0-1.9,1.1-3.8,2.8-4.8c4.1-2.4,8.2-4.7,12.3-7.1     c9.3-5.4,18.6-10.8,28-16.1c0.8-0.5,1.6-0.9,2.4-1.4c2.1-1.2,4.4-0.8,6.3,0.4c2.8,1.6,5.5,3.2,8.3,4.8     c15.1,8.7,30.1,17.4,45.2,26.1v-4.5c-1.2,0-2.4-0.5-3.5-1.1C323.4,131.5,320.6,129.9,317.9,128.3z"/>
			<path class="st2" d="M322.2,97.9c-8-4.6-15.9-9.2-23.9-13.8c-1.7-1-2.8-2.8-2.8-4.8c0-3.5,0-6.9,0-10.4c0-17.4,0-34.8,0-52.2     c-2.1-1.2-4.1-2.4-6.2-3.6c-9.3-5.4-18.6-10.7-27.8-16.1h-6.3c2.5,1.4,4.9,2.8,7.4,4.3c8.4,4.8,16.8,9.7,25.2,14.5     c0.6,0.4,1.2,0.7,1.8,1.1c2.1,1.2,2.8,3.4,2.8,5.6c0,3.2,0,6.4,0,9.6c0,17.4,0,34.8,0,52.2c12.4,7.2,24.8,14.3,37.2,21.5     c0,0,0,0,0,0v-4.6c-1.1,0-2.1-0.3-3.2-0.9C325.1,99.6,323.6,98.8,322.2,97.9z"/>
			<path class="st2" d="M50.3,40.3c0,17.4,0,34.8,0,52.2c9.1,5.2,18.1,10.5,27.2,15.7c8.4,4.8,16.8,9.7,25.2,14.5     c0.6,0.4,1.2,0.7,1.8,1.1c2.1,1.2,2.8,3.4,2.8,5.6c0,3.2,0,6.4,0,9.6c0,17.4,0,34.8,0,52.2c1.9,1.1,3.7,2.1,5.6,3.2l0,0     c0.2,0.1,0.4,0.3,0.7,0.4c15.1,8.7,30.1,17.4,45.2,26.1c2.1-1.2,4.1-2.4,6.2-3.6c13.2-7.6,26.5-15.3,39.7-22.9     c0.5-0.3,0.9-0.5,1.4-0.8c1.4-0.8,2.8-1.6,4.2-2.4c0-18.2,0-36.4,0-54.6c0-2.6,0-5.2,0-7.8c0-3.9,3.1-5.2,5.9-6.8     c8.9-5.2,17.9-10.3,26.8-15.5c8.1-4.7,16.2-9.4,24.3-14c0-2.4,0-4.8,0-7.1c0-17.4,0-34.8,0-52.2c-2.1-1.2-4.1-2.4-6.2-3.6     c-15.1-8.7-30.1-17.4-45.2-26.1c-9,5.2-18.1,10.4-27.1,15.7c-8.4,4.8-16.8,9.7-25.2,14.5c-0.6,0.4-1.2,0.7-1.8,1.1     c-2.1,1.2-4.3,0.8-6.3-0.4c-2.8-1.6-5.5-3.2-8.3-4.8c-15.1-8.7-30.1-17.4-45.2-26.1c-2.1,1.2-4.1,2.4-6.2,3.6     c-15.1,8.7-30.2,17.4-45.3,26.1C50.3,35.6,50.3,38,50.3,40.3z M53.4,71.9c0-10.5,0-21.1,0-31.6c0-0.7,0-1.4,0-2.1     c0-2.9,1.9-4.3,4.1-5.6c3.7-2.1,7.3-4.2,11-6.4c9.3-5.4,18.6-10.8,28-16.1c0.8-0.5,1.6-0.9,2.4-1.4c2.1-1.2,4.4-0.8,6.3,0.4     c2.8,1.6,5.5,3.2,8.3,4.8c15.1,8.7,30.1,17.4,45.2,26.1c2.1-1.2,4.1-2.4,6.2-3.6c16-9.2,32-18.5,48-27.7c0.9-0.5,1.8-0.8,2.7-0.8     c0,0,0.1,0,0.1,0c0,0,0.1,0,0.1,0c0.9,0,1.8,0.2,2.7,0.8c4.5,2.6,9,5.2,13.5,7.8c9.1,5.3,18.3,10.5,27.4,15.8     c0.6,0.4,1.2,0.7,1.8,1.1c2.5,1.4,2.8,3.9,2.8,6.3c0,4.2,0,8.5,0,12.7c0,10.8,0,21.5,0,32.3c0,0.9,0,1.8,0,2.8     c0,2.4-1.5,4.1-3.4,5.2c-2.8,1.6-5.5,3.2-8.3,4.8c-15.1,8.7-30.2,17.4-45.3,26.1c0,2.4,0,4.8,0,7.1c0,18.5,0,37,0,55.5     c0,1.9-1.1,3.8-2.8,4.8c0,0,0,0-0.1,0c-2,1.1-3.9,2.3-5.9,3.4h0c-12.3,7.1-24.5,14.2-36.8,21.2c-1.7,1-3.9,1-5.6,0     c-12.3-7.1-24.5-14.2-36.8-21.2h0c-2-1.1-4-2.3-5.9-3.4c-1.7-1-2.8-2.8-2.8-4.8c0-3.5,0-6.9,0-10.4c0-17.4,0-34.8,0-52.2     c-2.1-1.2-4.1-2.4-6.2-3.6c-16-9.2-32-18.5-48-27.7c-1.7-1-2.8-2.8-2.8-4.8C53.4,82.4,53.4,77.2,53.4,71.9z"/>
			<path class="st3" d="M39.1,92.6c0-10.5,0-20.9,0-31.4c0-9.7,0-19.4,0-29.1c0-0.7,0-1.4,0-2.1c0-2.4,1.5-4.1,3.4-5.2     c2.8-1.6,5.5-3.2,8.3-4.8C64.1,12.4,77.3,4.7,90.6-2.9h-6.3c-1,0.6-2,1.2-3,1.7C66.2,7.5,51.1,16.3,36,25c0,2.4,0,4.8,0,7.1     c0,18.5,0,37,0,55.5c0,1.9-1.1,3.8-2.8,4.8c0,0,0,0-0.1,0c-7.5,4.3-15.1,8.7-22.6,13c-4.8,2.8-9.6,5.5-14.3,8.3     c-2.4,1.4-5.5,3.8-8.5,4v4.6c2.1-1.2,4.1-2.4,6.2-3.6C9,110,24,101.3,39.1,92.6z"/>
			<path class="st2" d="M116.9,114.6c0.6,0.4,1.2,0.7,1.8,1.1c2.1,1.2,2.8,3.4,2.8,5.6c0,3.2,0,6.4,0,9.6c0,17.4,0,34.8,0,52.2     c6.6,3.8,13.2,7.6,19.8,11.4h0c5.8,3.3,11.6,6.7,17.4,10c5.8-3.3,11.6-6.7,17.4-10h0c6.6-3.8,13.2-7.6,19.8-11.4     c0-10.5,0-20.9,0-31.4c0-9.7,0-19.4,0-29.1c0-0.7,0-1.4,0-2.1c0-2.4,1.5-4.1,3.4-5.2c2.8-1.6,5.5-3.2,8.3-4.8     c15.1-8.7,30.2-17.4,45.3-26.1c0-14.3,0-28.6,0-42.9C240.4,34.3,228,27.1,215.7,20c-9,5.2-18.1,10.4-27.1,15.7     c-8.4,4.8-16.8,9.7-25.2,14.5c-0.6,0.4-1.2,0.7-1.8,1.1c-2.1,1.2-4.3,0.8-6.3-0.4c-2.8-1.6-5.5-3.2-8.3-4.8     c-15.1-8.7-30.1-17.4-45.2-26.1c-12.4,7.2-24.8,14.3-37.2,21.5c0,14.3,0,28.6,0,42.9c9.1,5.2,18.1,10.5,27.2,15.7     C100.1,104.9,108.5,109.7,116.9,114.6z M67.6,79.3c0-6.1,0-12.2,0-18.3c0-3.8,0-7.6,0-11.4c0-3.1-0.3-6.3,2.9-8.1     c8.3-4.8,16.6-9.6,25-14.4c1.1-0.6,2.2-1.3,3.4-1.9c2.1-1.2,4.4-0.8,6.3,0.3c2.8,1.6,5.5,3.2,8.3,4.8     c15.1,8.7,30.1,17.4,45.2,26.1c2.1-1.2,4.1-2.4,6.2-3.6c16-9.2,32-18.5,48-27.7c0.9-0.5,1.8-0.8,2.7-0.8c0,0,0.1,0,0.1,0     c0,0,0.1,0,0.1,0c0.9,0,1.8,0.3,2.7,0.8c5.3,3,10.6,6.1,15.8,9.1c4,2.3,8,4.6,12,6.9c2.1,1.2,3.4,3.1,3.4,5.6c0,1.6,0,3.2,0,4.9     c0,9.2,0,18.4,0,27.6c0,1.9-1.1,3.8-2.8,4.8c-3,1.7-6,3.5-9,5.2c-15.1,8.7-30.2,17.4-45.3,26.1c0,2.4,0,4.8,0,7.1     c0,18.5,0,37,0,55.5c0,1.9-1.1,3.8-2.8,4.8c-5.3,3-10.6,6.1-15.8,9.1c-1.4,0.8-2.9,1.7-4.3,2.5h0c-2.8,1.6-5.5,3.2-8.3,4.8     c-1.7,1-3.9,1-5.6,0c-2.8-1.6-5.5-3.2-8.3-4.8h0c-6.7-3.9-13.5-7.8-20.2-11.7c-1.7-1-2.8-2.8-2.8-4.8c0-3.5,0-6.9,0-10.4     c0-17.4,0-34.8,0-52.2c-2.1-1.2-4.1-2.4-6.2-3.6c-16-9.2-32-18.5-48-27.7C68.7,83.2,67.6,81.3,67.6,79.3z"/>
			<path class="st2" d="M158.7,23.6c2.1-1.2,4.1-2.4,6.2-3.6c13.2-7.6,26.5-15.3,39.7-22.9h-6.3c-12.3,7.1-24.5,14.2-36.8,21.2     c-1.7,1-3.9,1-5.6,0c-12.3-7.1-24.5-14.2-36.8-21.2h-6.3c0.2,0.1,0.4,0.3,0.7,0.4C128.5,6.2,143.6,14.9,158.7,23.6z"/>
			<path class="st2" d="M317.9,177.7c-15.1-8.7-30.1-17.4-45.2-26.1c-2.9,1.7-5.8,3.3-8.7,5c0,3.3,0,6.7,0,10     c9.1,5.2,18.1,10.5,27.2,15.7c7,4.1,14.1,8.1,21.1,12.2h0c1.4,0.8,2.7,1.6,4.1,2.3c0.6,0.4,1.2,0.7,1.8,1.1     c2.1,1.2,2.8,3.4,2.8,5.6c0,3.2,0,6.4,0,9.6c0,17.4,0,34.8,0,52.2c2.9,1.7,5.8,3.3,8.7,5c0,0,0,0,0,0v-4.7     c-2.8,0-5.6-1.8-5.6-5.4c0,0,0,0,0,0c0-3.4,0-6.9,0-10.4c0,0,0,0,0,0c0-17.4,0-34.8,0-52.2c-1.9-1.1-3.7-2.1-5.6-3.2h0     c-0.2-0.1-0.4-0.3-0.7-0.4c-16-9.2-32-18.5-48-27.7c-1.9-1.1-2.7-2.8-2.7-4.5c0.1-3.8,4-7.5,8.3-5.1c3,1.7,6,3.5,9,5.2     c15.1,8.7,30.1,17.4,45.2,26.1v-4.5c-1,0-1.9-0.2-2.8-0.7C323.8,181.1,320.8,179.4,317.9,177.7z"/>
			<path class="st2" d="M326.8,117c-14.2-8.2-28.5-16.4-42.7-24.7c-1.7-1-2.8-2.8-2.8-4.8c0-3.5,0-6.9,0-10.4c0-17.4,0-34.8,0-52.2     c-2.1-1.2-4.1-2.4-6.2-3.6c-14-8.1-28.1-16.2-42.1-24.3h-6.3c7.2,4.2,14.4,8.3,21.6,12.5c8.4,4.8,16.8,9.7,25.2,14.5     c0.6,0.4,1.2,0.7,1.8,1.1c2.1,1.2,2.8,3.4,2.8,5.6c0,3.2,0,6.4,0,9.6c0,17.4,0,34.8,0,52.2c2.1,1.2,4.1,2.4,6.2,3.6     c15.1,8.7,30.1,17.4,45.2,26.1v-4.6C328.7,117.7,327.7,117.6,326.8,117z"/>
			<path class="st2" d="M176-2.9h-6.3c-2.8,1.6-5.5,3.2-8.3,4.8c-1.7,1-3.9,1-5.6,0c-2.8-1.6-5.5-3.2-8.3-4.8h-6.3     c5.8,3.3,11.6,6.7,17.4,10C164.5,3.8,170.2,0.4,176-2.9z"/>
			<path class="st2" d="M317.9,144.8c-15.1-8.7-30.1-17.4-45.2-26.1c-12.4,7.2-24.8,14.3-37.2,21.5c0,14.3,0,28.6,0,42.9     c6.6,3.8,13.2,7.6,19.8,11.4h0c2.5,1.4,4.9,2.8,7.4,4.3c8.4,4.8,16.8,9.7,25.2,14.5c0.6,0.4,1.2,0.7,1.8,1.1     c2.1,1.2,2.8,3.4,2.8,5.6c0,3.2,0,6.4,0,9.6c0,17.4,0,34.8,0,52.2c12.4,7.2,24.8,14.3,37.2,21.5v0v-4.6c-1.1,0-2.1-0.3-3.2-0.9     c-1.4-0.8-2.8-1.6-4.2-2.4c-8-4.6-15.9-9.2-23.9-13.8c-1.7-1-2.8-2.8-2.8-4.8c0-3.4,0-6.9,0-10.4c0-17.4,0-34.8,0-52.2     c-2.1-1.2-4.1-2.4-6.2-3.6c-9.3-5.4-18.6-10.7-27.8-16.1h0c-4.1-2.4-8.3-4.8-12.4-7.2c-2.5-1.4-5-2.9-7.5-4.3     c-3.8-2.2-3.1-6.6-3.1-10.3c0-9.2,0-18.4,0-27.6c0-1.9,1.1-3.8,2.8-4.8c0,0,0.1,0,0.1-0.1c8.3-4.8,16.6-9.6,25-14.4     c1.1-0.6,2.2-1.3,3.4-1.9c2.1-1.2,4.4-0.8,6.3,0.3c2.8,1.6,5.5,3.2,8.3,4.8c15.1,8.7,30.1,17.4,45.2,26.1v-4.5     c-1.2,0-2.4-0.5-3.5-1.1C323.4,148,320.6,146.4,317.9,144.8z"/>
			<path class="st2" d="M317.9,161.2c-15.1-8.7-30.1-17.4-45.2-26.1c-7.6,4.4-15.3,8.8-22.9,13.2c0,8.8,0,17.7,0,26.5     c9.1,5.2,18.1,10.5,27.2,15.7c2.3,1.3,4.6,2.6,6.9,4l0,0c6.7,3.9,13.5,7.8,20.2,11.7c1.7,1,2.8,2.8,2.8,4.8c0,3.5,0,6.9,0,10.4     c0,17.4,0,34.8,0,52.2c7.6,4.4,15.3,8.8,22.9,13.2l0,0v-4.5c-1.8,0-3.3-1.1-4.9-1.9c-1.6-0.9-3.3-1.9-4.9-2.8     c-2.4-1.4-4.9-2.8-7.3-4.2c-1.7-1-2.8-2.8-2.8-4.8c0-3.5,0-6.9,0-10.4c0-17.4,0-34.8,0-52.2c-2.1-1.2-4.1-2.4-6.2-3.6     c-4.5-2.6-9.1-5.2-13.6-7.8h0c-9.2-5.3-18.4-10.6-27.5-15.9c-2.2-1.3-4.5-2.6-6.7-3.9c-2.6-1.5-2.9-3.9-2.9-6.5     c0-2.8,0-5.5,0-8.3c0-2.1,0-4.3,0-6.4c0-3.5,2.5-4.8,5-6.3c4-2.3,8-4.6,12-6.9c1.7-1,3.9-1,5.6,0c3,1.7,6,3.5,9,5.2     c15.1,8.7,30.1,17.4,45.2,26.1v-4.5c-1,0-1.9-0.2-2.8-0.7C323.8,164.7,320.8,162.9,317.9,161.2z"/>
			<path class="st2" d="M147.2,99.2c2.1,1.2,2.8,3.4,2.8,5.6c0,3.2,0,6.4,0,9.6c0,17.4,0,34.8,0,52.2c2.9,1.7,5.8,3.3,8.7,5     c2.9-1.7,5.8-3.3,8.7-5c0-2.4,0-4.8,0-7.1c0-18.5,0-37,0-55.5c0-1.9,1.1-3.8,2.8-4.8c3-1.7,6-3.5,9-5.2     c15.1-8.7,30.2-17.4,45.3-26.1c0-3.3,0-6.7,0-10c-2.9-1.7-5.8-3.3-8.7-5c-2.1,1.2-4.1,2.4-6.2,3.6c-16,9.2-32,18.5-48,27.7     c-1.7,1-3.9,1-5.6,0c-3-1.7-6-3.5-9-5.2c-15.1-8.7-30.1-17.4-45.2-26.1c-2.9,1.7-5.8,3.3-8.7,5c0,3.3,0,6.7,0,10     c9.1,5.2,18.1,10.5,27.2,15.7c8.4,4.8,16.8,9.7,25.2,14.5C146,98.5,146.6,98.8,147.2,99.2z M98.9,67.7c-2.9-1.7-3.2-4.7-2.1-7     c1.3-2.7,4.4-4.5,7.7-2.6c3,1.7,6,3.4,9,5.2c15.1,8.7,30.1,17.4,45.2,26.1c2.1-1.2,4.1-2.4,6.2-3.6c1.3-0.8,2.7-1.5,4-2.3     c14.7-8.5,29.3-16.9,44-25.4c5.6-3.3,10.8,4.3,7.1,8.4c-0.4,0.4-0.9,0.8-1.4,1.2c-3,1.7-6,3.5-9,5.2c-11.2,6.5-22.4,13-33.7,19.4     c-3.9,2.2-7.7,4.5-11.6,6.7c0,2.4,0,4.8,0,7.1c0,18.5,0,37,0,55.5c0,6.5-9.1,7.1-10.8,1.8c-0.2-0.5-0.3-1.2-0.3-1.8     c0-3.5,0-6.9,0-10.4c0-17.4,0-34.8,0-52.2c-2.1-1.2-4.1-2.4-6.2-3.6C130.9,86.2,114.9,76.9,98.9,67.7z"/>
			<path class="st2" d="M135.7,112.2c0,3.5,0,6.9,0,10.4c0,17.4,0,34.8,0,52.2c7.6,4.4,15.3,8.8,22.9,13.2     c7.6-4.4,15.3-8.8,22.9-13.2c0-10.5,0-20.9,0-31.4c0-9.7,0-19.4,0-29.1c0-0.7,0-1.4,0-2.1c0-2.4,1.5-4.1,3.4-5.2     c2.8-1.6,5.5-3.2,8.3-4.8c15.1-8.7,30.2-17.4,45.3-26.1c0-8.8,0-17.7,0-26.5c-7.6-4.4-15.3-8.8-22.9-13.2     c-9,5.2-18.1,10.4-27.1,15.7c-8.4,4.8-16.8,9.7-25.2,14.5c-0.6,0.4-1.2,0.7-1.8,1.1c-2.1,1.2-4.3,0.8-6.3-0.4     c-2.8-1.6-5.5-3.2-8.3-4.8c-15.1-8.7-30.1-17.4-45.2-26.1c-7.6,4.4-15.3,8.8-22.9,13.2c0,8.8,0,17.7,0,26.5     c2.1,1.2,4.1,2.4,6.2,3.6c16,9.2,32,18.5,48,27.7C134.7,108.4,135.7,110.3,135.7,112.2z M84.6,75.9c-1.7-1-2.8-2.8-2.8-4.8     c0-2.9,0-5.9,0-8.8c0-1.9,0-3.7,0-5.6c0-1.7-0.1-3.4,0.8-4.9c0.9-1.6,2.5-2.3,4-3.2c1.6-0.9,3.3-1.9,4.9-2.8     c2.4-1.4,4.9-2.8,7.3-4.2c1.7-1,3.9-1,5.6,0c3,1.7,6,3.5,9,5.2c15.1,8.7,30.1,17.4,45.2,26.1c2.1-1.2,4.1-2.4,6.2-3.6     c16-9.2,32-18.5,48-27.7c0.9-0.5,1.8-0.8,2.7-0.8c0.1,0,0.1,0,0.2,0c0,0,0,0,0.1,0c0.9,0,1.8,0.2,2.7,0.8     c0.2,0.1,0.5,0.3,0.7,0.4c4.3,2.5,8.7,5,13,7.5c1.9,1.1,3.3,2.8,3.3,5.1c0,0.5,0,1.1,0,1.6c0,2.8,0,5.5,0,8.3c0,2.1,0,4.3,0,6.4     c0,2.5-1.4,4.2-3.4,5.3c-2.8,1.6-5.5,3.2-8.3,4.8c-15.1,8.7-30.2,17.4-45.3,26.1c0,2.4,0,4.8,0,7.1c0,18.5,0,37,0,55.5     c0,1.9-1.1,3.8-2.8,4.8c-2.5,1.5-5.1,2.9-7.6,4.4c-1.6,0.9-3.2,1.9-4.8,2.8c-1.5,0.8-2.9,1.8-4.6,1.8c-1.8,0-3.3-1.1-4.9-1.9     c-1.6-0.9-3.3-1.9-4.9-2.8c-2.4-1.4-4.9-2.8-7.3-4.2c-1.7-1-2.8-2.8-2.8-4.8c0-3.5,0-6.9,0-10.4c0-17.4,0-34.8,0-52.2     c-2.1-1.2-4.1-2.4-6.2-3.6C116.6,94.4,100.6,85.2,84.6,75.9z"/>
			<path class="st3" d="M-3.6,60.8c0-18.5,0-37,0-55.5c0-1.9,1.1-3.8,2.8-4.8c2-1.1,4-2.3,5.9-3.4h-6.3C-3-1.8-4.9-0.8-6.7,0.3     c0,2.4,0,4.8,0,7.1c0,18.5,0,37,0,55.5c0,0.9-0.2,1.7-0.5,2.4c-0.9,2-3,3-5.1,3v4.7c2.9-1.7,5.8-3.3,8.7-5     C-3.6,65.5-3.6,63.1-3.6,60.8z"/>
		</g>
		<g>
			<path class="st2" d="M352.4,242.2c0-9.7,0-19.4,0-29.1c0-0.7,0-1.4,0-2.1c0-2.4,1.5-4.1,3.4-5.2c2.8-1.6,5.5-3.2,8.3-4.8     c3.7-2.2,7.5-4.3,11.2-6.5l0,0c11.4-6.6,22.7-13.1,34.1-19.7c0-8.8,0-17.7,0-26.5c-7.6-4.4-15.3-8.8-22.9-13.2     c-9,5.2-18.1,10.4-27.1,15.7c-8.4,4.8-16.8,9.7-25.2,14.5c-0.6,0.4-1.2,0.7-1.8,1.1c-0.9,0.5-1.9,0.8-2.8,0.7v4.5c0,0,0,0,0,0     c2.1-1.2,4.1-2.4,6.2-3.6c16-9.2,32-18.5,48-27.7c1.7-1,3.9-1,5.6,0c2.5,1.5,5.1,2.9,7.6,4.4c1.6,0.9,3.2,1.9,4.8,2.8     c1.4,0.8,2.9,1.5,3.8,3c0.9,1.6,0.8,3.4,0.8,5.2c0,1.9,0,3.8,0,5.7c0,2.8,0,5.6,0,8.4c0,1.9-1.1,3.8-2.8,4.8c-3,1.7-6,3.5-9,5.2     c-8.5,4.9-17,9.8-25.5,14.7h0c-6.6,3.8-13.2,7.6-19.8,11.4c0,2.4,0,4.8,0,7.1c0,18.5,0,37,0,55.5c0,1.9-1.1,3.8-2.8,4.8     c-2.5,1.5-5.1,2.9-7.6,4.4c-1.6,0.9-3.2,1.9-4.8,2.8c-1.5,0.8-2.9,1.8-4.6,1.8v4.5c7.6-4.4,15.3-8.8,22.9-13.2     C352.4,263.1,352.4,252.6,352.4,242.2z"/>
			<path class="st2" d="M366.6,250.4c0-9.7,0-19.4,0-29.1c0-0.7,0-1.4,0-2.1c0-2.4,1.5-4.1,3.4-5.2c2.8-1.6,5.5-3.2,8.3-4.8     c8.5-4.9,17-9.8,25.5-14.7c6.6-3.8,13.2-7.6,19.8-11.4c0-14.3,0-28.6,0-42.9c-12.4-7.2-24.8-14.3-37.2-21.5     c-9,5.2-18.1,10.4-27.1,15.7c-8.4,4.8-16.8,9.7-25.2,14.5c-0.6,0.4-1.2,0.7-1.8,1.1c-0.9,0.5-1.9,0.8-2.8,0.7v4.5     c9.6-5.5,19.1-11.1,28.7-16.6c8.1-4.6,16.1-9.3,24.2-13.9c0.8-0.5,1.7-1.1,2.6-1.3c2.5-0.7,4.4,0.6,6.3,1.7     c4.6,2.7,9.2,5.3,13.8,8c4,2.3,8,4.6,12,6.9c2.1,1.2,3.4,3.1,3.4,5.6c0,1.6,0,3.2,0,4.9c0,9.2,0,18.4,0,27.6     c0,1.9-1.1,3.8-2.8,4.8c-3,1.7-6,3.5-9,5.2c-3.7,2.2-7.5,4.3-11.2,6.5l0,0c-11.4,6.6-22.7,13.1-34.1,19.7c0,2.4,0,4.8,0,7.1     c0,18.5,0,37,0,55.5c0,1.9-1.1,3.8-2.8,4.8c-5.3,3-10.6,6.1-15.8,9.1c-4,2.3-8,4.6-12,6.9c-1.1,0.6-2.3,1-3.4,1v4.6     c12.4-7.2,24.8-14.3,37.2-21.5C366.6,271.3,366.6,260.9,366.6,250.4z"/>
			<path class="st2" d="M380.9,290c0-10.5,0-20.9,0-31.4c0-9.7,0-19.4,0-29.1c0-0.7,0-1.4,0-2.1c0-2.4,1.5-4.1,3.4-5.2     c2.8-1.6,5.5-3.2,8.3-4.8c13.2-7.6,26.5-15.3,39.7-22.9h0c1.9-1.1,3.7-2.1,5.6-3.2c0-2.4,0-4.8,0-7.1c0-17.4,0-34.8,0-52.2     c-2.1-1.2-4.1-2.4-6.2-3.6c-15.1-8.7-30.1-17.4-45.2-26.1c-9,5.2-18.1,10.4-27.1,15.7c-8.4,4.8-16.8,9.7-25.2,14.5     c-0.6,0.4-1.2,0.7-1.8,1.1c-0.9,0.5-1.9,0.8-2.8,0.7v4.5c2.7-1.6,5.4-3.1,8.2-4.7c10.1-5.8,20.3-11.7,30.4-17.5     c3.9-2.3,7.9-4.6,11.8-6.8c2.9-1.7,6-4.1,9.4-2.2c7.5,4.3,15.1,8.7,22.6,13c4.8,2.8,9.6,5.5,14.3,8.3c3.2,1.8,8.5,3.8,8.5,8.1     c0,16.4,0,32.9,0,49.4c0,1.9-1.1,3.8-2.8,4.8c-2,1.1-4,2.3-5.9,3.4c-1,0.6-2,1.2-3,1.7c-15.1,8.7-30.2,17.4-45.3,26.1     c0,2.4,0,4.8,0,7.1c0,18.5,0,37,0,55.5c0,1.9-1.1,3.8-2.8,4.8c0,0,0,0-0.1,0c-7.5,4.3-15.1,8.7-22.6,13     c-4.8,2.8-9.6,5.5-14.3,8.3c-2.4,1.4-5.5,3.8-8.5,4v4.6c2.1-1.2,4.1-2.4,6.2-3.6C350.7,307.4,365.8,298.7,380.9,290z"/>
			<path class="st2" d="M338.1,258.2c0-18.5,0-37,0-55.5c0-2,1.1-3.8,2.8-4.8c2-1.1,4-2.3,5.9-3.4c1-0.6,2-1.2,3-1.7     c15.1-8.7,30.2-17.4,45.3-26.1c0-3.3,0-6.7,0-10c-2.9-1.7-5.8-3.3-8.7-5c-2.1,1.2-4.1,2.4-6.2,3.6c-16,9.2-32,18.5-48,27.7     c-0.9,0.5-1.8,0.7-2.8,0.7v4.5c0.2-0.1,0.5-0.3,0.7-0.4c1.8-1,3.6-2.1,5.4-3.1c4.6-2.7,9.2-5.3,13.9-8     c11.4-6.6,22.8-13.1,34.2-19.7c5.2-3,10,3.3,7.7,7.5c-0.4,0.8-1.1,1.5-2.1,2c-3,1.7-6,3.5-9,5.2c-13.2,7.6-26.5,15.3-39.7,22.9     c-1.9,1.1-3.7,2.1-5.6,3.2c0,2.4,0,4.8,0,7.1c0,18.5,0,37,0,55.5c0,0.9-0.2,1.7-0.5,2.4c-0.9,2-3,3-5.1,3v4.7     c2.9-1.7,5.8-3.3,8.7-5C338.1,262.9,338.1,260.5,338.1,258.2z"/>
			<path class="st2" d="M352.4,44.8c0-9.7,0-19.4,0-29.1c0-0.7,0-1.4,0-2.1c0-2.4,1.5-4.1,3.4-5.2c2.8-1.6,5.5-3.2,8.3-4.8     c3.7-2.2,7.5-4.3,11.2-6.5h-6.3c-6.6,3.8-13.2,7.6-19.8,11.4c0,2.4,0,4.8,0,7.1c0,18.5,0,37,0,55.5c0,1.9-1.1,3.8-2.8,4.8     c-2.5,1.5-5.1,2.9-7.6,4.4c-1.6,0.9-3.2,1.9-4.8,2.8c-1.5,0.8-2.9,1.8-4.6,1.8v4.5c7.6-4.4,15.3-8.8,22.9-13.2     C352.4,65.7,352.4,55.2,352.4,44.8z"/>
			<path class="st2" d="M366.6,53c0-9.7,0-19.4,0-29.1c0-0.7,0-1.4,0-2.1c0-2.4,1.5-4.1,3.4-5.2c2.8-1.6,5.5-3.2,8.3-4.8     c8.5-4.9,17-9.8,25.5-14.7h-6.3c-11.4,6.6-22.7,13.1-34.1,19.7c0,2.4,0,4.8,0,7.1c0,18.5,0,37,0,55.5c0,1.9-1.1,3.8-2.8,4.8     c-5.3,3-10.6,6.1-15.8,9.1c-4,2.3-8,4.6-12,6.9c-1.1,0.6-2.3,1-3.4,1v4.6c12.4-7.2,24.8-14.3,37.2-21.5     C366.6,73.9,366.6,63.5,366.6,53z"/>
			<path class="st2" d="M392,40.3c0,17.4,0,34.8,0,52.2c9.1,5.2,18.1,10.5,27.2,15.7c8.4,4.8,16.8,9.7,25.2,14.5     c0.6,0.4,1.2,0.7,1.8,1.1c2.1,1.2,2.8,3.4,2.8,5.6c0,3.2,0,6.4,0,9.6c0,17.4,0,34.8,0,52.2c1.9,1.1,3.7,2.1,5.6,3.2l0,0     c0.2,0.1,0.4,0.3,0.7,0.4c15.1,8.7,30.1,17.4,45.2,26.1c2.1-1.2,4.1-2.4,6.2-3.6c13.2-7.6,26.5-15.3,39.7-22.9     c0.5-0.3,0.9-0.5,1.4-0.8c1.4-0.8,2.8-1.6,4.2-2.4c0-18.2,0-36.4,0-54.6c0-2.6,0-5.2,0-7.8c0-3.9,3.1-5.2,5.9-6.8     c8.9-5.2,17.9-10.3,26.8-15.5c8.1-4.7,16.2-9.4,24.3-14c0-2.4,0-4.8,0-7.1c0-17.4,0-34.8,0-52.2c-2.1-1.2-4.1-2.4-6.2-3.6     c-15.1-8.7-30.1-17.4-45.2-26.1c-9,5.2-18.1,10.4-27.1,15.7c-8.4,4.8-16.8,9.7-25.2,14.5c-0.6,0.4-1.2,0.7-1.8,1.1     c-2.1,1.2-4.3,0.8-6.3-0.4c-2.8-1.6-5.5-3.2-8.3-4.8c-15.1-8.7-30.1-17.4-45.2-26.1c-2.1,1.2-4.1,2.4-6.2,3.6     c-15.1,8.7-30.2,17.4-45.3,26.1C392,35.6,392,38,392,40.3z M395.1,71.9c0-10.5,0-21.1,0-31.6c0-0.7,0-1.4,0-2.1     c0-2.9,1.9-4.3,4.1-5.6c3.7-2.1,7.3-4.2,11-6.4c9.3-5.4,18.6-10.8,28-16.1c0.8-0.5,1.6-0.9,2.4-1.4c2.1-1.2,4.4-0.8,6.3,0.4     c2.8,1.6,5.5,3.2,8.3,4.8c15.1,8.7,30.1,17.4,45.2,26.1c2.1-1.2,4.1-2.4,6.2-3.6c16-9.2,32-18.5,48-27.7c0.9-0.5,1.8-0.8,2.7-0.8     c0,0,0.1,0,0.1,0c0,0,0.1,0,0.1,0c0.9,0,1.8,0.2,2.7,0.8c4.5,2.6,9,5.2,13.5,7.8c9.1,5.3,18.3,10.5,27.4,15.8     c0.6,0.4,1.2,0.7,1.8,1.1c2.5,1.4,2.8,3.9,2.8,6.3c0,4.2,0,8.5,0,12.7c0,10.8,0,21.5,0,32.3c0,0.9,0,1.8,0,2.8     c0,2.4-1.5,4.1-3.4,5.2c-2.8,1.6-5.5,3.2-8.3,4.8c-15.1,8.7-30.2,17.4-45.3,26.1c0,2.4,0,4.8,0,7.1c0,18.5,0,37,0,55.5     c0,1.9-1.1,3.8-2.8,4.8c0,0,0,0-0.1,0c-2,1.1-3.9,2.3-5.9,3.4h0c-12.3,7.1-24.5,14.2-36.8,21.2c-1.7,1-3.9,1-5.6,0     c-12.3-7.1-24.5-14.2-36.8-21.2h0c-2-1.1-4-2.3-5.9-3.4c-1.7-1-2.8-2.8-2.8-4.8c0-3.5,0-6.9,0-10.4c0-17.4,0-34.8,0-52.2     c-2.1-1.2-4.1-2.4-6.2-3.6c-16-9.2-32-18.5-48-27.7c-1.7-1-2.8-2.8-2.8-4.8C395.1,82.4,395.1,77.2,395.1,71.9z"/>
			<path class="st2" d="M380.9,92.6c0-10.5,0-20.9,0-31.4c0-9.7,0-19.4,0-29.1c0-0.7,0-1.4,0-2.1c0-2.4,1.5-4.1,3.4-5.2     c2.8-1.6,5.5-3.2,8.3-4.8c13.2-7.6,26.5-15.3,39.7-22.9H426c-1,0.6-2,1.2-3,1.7c-15.1,8.7-30.2,17.4-45.3,26.1c0,2.4,0,4.8,0,7.1     c0,18.5,0,37,0,55.5c0,1.9-1.1,3.8-2.8,4.8c0,0,0,0-0.1,0c-7.5,4.3-15.1,8.7-22.6,13c-4.8,2.8-9.6,5.5-14.3,8.3     c-2.4,1.4-5.5,3.8-8.5,4v4.6c2.1-1.2,4.1-2.4,6.2-3.6C350.7,110,365.8,101.3,380.9,92.6z"/>
			<path class="st2" d="M458.6,114.6c0.6,0.4,1.2,0.7,1.8,1.1c2.1,1.2,2.8,3.4,2.8,5.6c0,3.2,0,6.4,0,9.6c0,17.4,0,34.8,0,52.2     c6.6,3.8,13.2,7.6,19.8,11.4h0c5.8,3.3,11.6,6.7,17.4,10c5.8-3.3,11.6-6.7,17.4-10h0c6.6-3.8,13.2-7.6,19.8-11.4     c0-10.5,0-20.9,0-31.4c0-9.7,0-19.4,0-29.1c0-0.7,0-1.4,0-2.1c0-2.4,1.5-4.1,3.4-5.2c2.8-1.6,5.5-3.2,8.3-4.8     c15.1-8.7,30.2-17.4,45.3-26.1c0-14.3,0-28.6,0-42.9c-12.4-7.2-24.8-14.3-37.2-21.5c-9,5.2-18.1,10.4-27.1,15.7     c-8.4,4.8-16.8,9.7-25.2,14.5c-0.6,0.4-1.2,0.7-1.8,1.1c-2.1,1.2-4.3,0.8-6.3-0.4c-2.8-1.6-5.5-3.2-8.3-4.8     c-15.1-8.7-30.1-17.4-45.2-26.1c-12.4,7.2-24.8,14.3-37.2,21.5c0,14.3,0,28.6,0,42.9c9.1,5.2,18.1,10.5,27.2,15.7     C441.8,104.9,450.2,109.7,458.6,114.6z M409.4,79.3c0-6.1,0-12.2,0-18.3c0-3.8,0-7.6,0-11.4c0-3.1-0.3-6.3,2.9-8.1     c8.3-4.8,16.6-9.6,25-14.4c1.1-0.6,2.2-1.3,3.4-1.9c2.1-1.2,4.4-0.8,6.3,0.3c2.8,1.6,5.5,3.2,8.3,4.8     c15.1,8.7,30.1,17.4,45.2,26.1c2.1-1.2,4.1-2.4,6.2-3.6c16-9.2,32-18.5,48-27.7c0.9-0.5,1.8-0.8,2.7-0.8c0,0,0.1,0,0.1,0     c0,0,0.1,0,0.1,0c0.9,0,1.8,0.3,2.7,0.8c5.3,3,10.6,6.1,15.8,9.1c4,2.3,8,4.6,12,6.9c2.1,1.2,3.4,3.1,3.4,5.6c0,1.6,0,3.2,0,4.9     c0,9.2,0,18.4,0,27.6c0,1.9-1.1,3.8-2.8,4.8c-3,1.7-6,3.5-9,5.2c-15.1,8.7-30.2,17.4-45.3,26.1c0,2.4,0,4.8,0,7.1     c0,18.5,0,37,0,55.5c0,1.9-1.1,3.8-2.8,4.8c-5.3,3-10.6,6.1-15.8,9.1c-1.4,0.8-2.9,1.7-4.3,2.5h0c-2.8,1.6-5.5,3.2-8.3,4.8     c-1.7,1-3.9,1-5.6,0c-2.8-1.6-5.5-3.2-8.3-4.8h0c-6.7-3.9-13.5-7.8-20.2-11.7c-1.7-1-2.8-2.8-2.8-4.8c0-3.5,0-6.9,0-10.4     c0-17.4,0-34.8,0-52.2c-2.1-1.2-4.1-2.4-6.2-3.6c-16-9.2-32-18.5-48-27.7C410.4,83.2,409.4,81.3,409.4,79.3z"/>
			<path class="st2" d="M500.4,23.6c2.1-1.2,4.1-2.4,6.2-3.6c13.2-7.6,26.5-15.3,39.7-22.9H540c-12.3,7.1-24.5,14.2-36.8,21.2     c-1.7,1-3.9,1-5.6,0c-12.3-7.1-24.5-14.2-36.8-21.2h-6.3c0.2,0.1,0.4,0.3,0.7,0.4C470.3,6.2,485.3,14.9,500.4,23.6z"/>
			<path class="st2" d="M517.8-2.9h-6.3c-2.8,1.6-5.5,3.2-8.3,4.8c-1.7,1-3.9,1-5.6,0c-2.8-1.6-5.5-3.2-8.3-4.8H483     c5.8,3.3,11.6,6.7,17.4,10C506.2,3.8,512,0.4,517.8-2.9z"/>
			<path class="st2" d="M488.9,99.2c2.1,1.2,2.8,3.4,2.8,5.6c0,3.2,0,6.4,0,9.6c0,17.4,0,34.8,0,52.2c2.9,1.7,5.8,3.3,8.7,5     c2.9-1.7,5.8-3.3,8.7-5c0-2.4,0-4.8,0-7.1c0-18.5,0-37,0-55.5c0-1.9,1.1-3.8,2.8-4.8c3-1.7,6-3.5,9-5.2     c15.1-8.7,30.2-17.4,45.3-26.1c0-3.3,0-6.7,0-10c-2.9-1.7-5.8-3.3-8.7-5c-2.1,1.2-4.1,2.4-6.2,3.6c-16,9.2-32,18.5-48,27.7     c-1.7,1-3.9,1-5.6,0c-3-1.7-6-3.5-9-5.2c-15.1-8.7-30.1-17.4-45.2-26.1c-2.9,1.7-5.8,3.3-8.7,5c0,3.3,0,6.7,0,10     c9.1,5.2,18.1,10.5,27.2,15.7c8.4,4.8,16.8,9.7,25.2,14.5C487.7,98.5,488.3,98.8,488.9,99.2z M440.6,67.7c-2.9-1.7-3.2-4.7-2.1-7     c1.3-2.7,4.4-4.5,7.7-2.6c3,1.7,6,3.4,9,5.2c15.1,8.7,30.1,17.4,45.2,26.1c2.1-1.2,4.1-2.4,6.2-3.6c1.3-0.8,2.7-1.5,4-2.3     c14.7-8.5,29.3-16.9,44-25.4c5.6-3.3,10.8,4.3,7.1,8.4c-0.4,0.4-0.9,0.8-1.4,1.2c-3,1.7-6,3.5-9,5.2c-11.2,6.5-22.4,13-33.7,19.4     c-3.9,2.2-7.7,4.5-11.6,6.7c0,2.4,0,4.8,0,7.1c0,18.5,0,37,0,55.5c0,6.5-9.1,7.1-10.8,1.8c-0.2-0.5-0.3-1.2-0.3-1.8     c0-3.5,0-6.9,0-10.4c0-17.4,0-34.8,0-52.2c-2.1-1.2-4.1-2.4-6.2-3.6C472.6,86.2,456.6,76.9,440.6,67.7z"/>
			<path class="st2" d="M477.5,112.2c0,3.5,0,6.9,0,10.4c0,17.4,0,34.8,0,52.2c7.6,4.4,15.3,8.8,22.9,13.2     c7.6-4.4,15.3-8.8,22.9-13.2c0-10.5,0-20.9,0-31.4c0-9.7,0-19.4,0-29.1c0-0.7,0-1.4,0-2.1c0-2.4,1.5-4.1,3.4-5.2     c2.8-1.6,5.5-3.2,8.3-4.8c15.1-8.7,30.2-17.4,45.3-26.1c0-8.8,0-17.7,0-26.5c-7.6-4.4-15.3-8.8-22.9-13.2     c-9,5.2-18.1,10.4-27.1,15.7c-8.4,4.8-16.8,9.7-25.2,14.5c-0.6,0.4-1.2,0.7-1.8,1.1c-2.1,1.2-4.3,0.8-6.3-0.4     c-2.8-1.6-5.5-3.2-8.3-4.8c-15.1-8.7-30.1-17.4-45.2-26.1c-7.6,4.4-15.3,8.8-22.9,13.2c0,8.8,0,17.7,0,26.5     c2.1,1.2,4.1,2.4,6.2,3.6c16,9.2,32,18.5,48,27.7C476.4,108.4,477.5,110.3,477.5,112.2z M426.4,75.9c-1.7-1-2.8-2.8-2.8-4.8     c0-2.9,0-5.9,0-8.8c0-1.9,0-3.7,0-5.6c0-1.7-0.1-3.4,0.8-4.9c0.9-1.6,2.5-2.3,4-3.2c1.6-0.9,3.3-1.9,4.9-2.8     c2.4-1.4,4.9-2.8,7.3-4.2c1.7-1,3.9-1,5.6,0c3,1.7,6,3.5,9,5.2c15.1,8.7,30.1,17.4,45.2,26.1c2.1-1.2,4.1-2.4,6.2-3.6     c16-9.2,32-18.5,48-27.7c0.9-0.5,1.8-0.8,2.7-0.8c0.1,0,0.1,0,0.2,0c0,0,0,0,0.1,0c0.9,0,1.8,0.2,2.7,0.8     c0.2,0.1,0.5,0.3,0.7,0.4c4.3,2.5,8.7,5,13,7.5c1.9,1.1,3.3,2.8,3.3,5.1c0,0.5,0,1.1,0,1.6c0,2.8,0,5.5,0,8.3c0,2.1,0,4.3,0,6.4     c0,2.5-1.4,4.2-3.4,5.3c-2.8,1.6-5.5,3.2-8.3,4.8c-15.1,8.7-30.2,17.4-45.3,26.1c0,2.4,0,4.8,0,7.1c0,18.5,0,37,0,55.5     c0,1.9-1.1,3.8-2.8,4.8c-2.5,1.5-5.1,2.9-7.6,4.4c-1.6,0.9-3.2,1.9-4.8,2.8c-1.5,0.8-2.9,1.8-4.6,1.8c-1.8,0-3.3-1.1-4.9-1.9     c-1.6-0.9-3.3-1.9-4.9-2.8c-2.4-1.4-4.9-2.8-7.3-4.2c-1.7-1-2.8-2.8-2.8-4.8c0-3.5,0-6.9,0-10.4c0-17.4,0-34.8,0-52.2     c-2.1-1.2-4.1-2.4-6.2-3.6C458.4,94.4,442.4,85.2,426.4,75.9z"/>
			<path class="st2" d="M338.1,60.8c0-18.5,0-37,0-55.5c0-1.9,1.1-3.8,2.8-4.8c2-1.1,4-2.3,5.9-3.4h-6.3c-1.9,1.1-3.7,2.1-5.6,3.2     c0,2.4,0,4.8,0,7.1c0,18.5,0,37,0,55.5c0,0.9-0.2,1.7-0.5,2.4c-0.9,2-3,3-5.1,3v4.7c2.9-1.7,5.8-3.3,8.7-5     C338.1,65.5,338.1,63.1,338.1,60.8z"/>
		</g>
	</g>
	<path style="clip-path:url(#SVGID_6_);fill:#FFF200;" d="M929.1,290c0-2.4,0-4.8,0-7.1c0-17.4,0-34.8,0-52.2   c-2.1-1.2-4.1-2.4-6.2-3.6c-15.1-8.7-30.1-17.4-45.2-26.1c-9,5.2-18.1,10.4-27.1,15.7c-8.4,4.8-16.8,9.7-25.2,14.5   c-0.6,0.4-1.2,0.7-1.8,1.1c-2.1,1.2-4.3,0.8-6.3-0.4c-2.8-1.6-5.5-3.2-8.3-4.8c-15.1-8.7-30.1-17.4-45.2-26.1   c-2.1,1.2-4.1,2.4-6.2,3.6c-15.1,8.7-30.2,17.4-45.3,26.1c0,2.4,0,4.8,0,7.1c0,17.4,0,34.8,0,52.2c9.1,5.2,18.1,10.5,27.2,15.7   c8.4,4.8,16.8,9.7,25.2,14.5c0.6,0.4,1.2,0.7,1.8,1.1c2.1,1.2,2.8,3.4,2.8,5.6c0,3.2,0,6.4,0,9.6c0,17.4,0,34.8,0,52.2   c1.9,1.1,3.7,2.1,5.6,3.2h6.3c-2-1.1-4-2.3-5.9-3.4c-1.7-1-2.8-2.8-2.8-4.8c0-3.5,0-6.9,0-10.4c0-17.4,0-34.8,0-52.2   c-2.1-1.2-4.1-2.4-6.2-3.6c-16-9.2-32-18.5-48-27.7c-1.7-1-2.8-2.8-2.8-4.8c0-5.2,0-10.4,0-15.6c0-10.5,0-21.1,0-31.6   c0-0.7,0-1.4,0-2.1c0-2.9,1.9-4.3,4.1-5.6c3.7-2.1,7.3-4.2,11-6.4c9.3-5.4,18.6-10.8,28-16.1c0.8-0.5,1.6-0.9,2.4-1.4   c2.1-1.2,4.4-0.8,6.3,0.4c2.8,1.6,5.5,3.2,8.3,4.8c15.1,8.7,30.1,17.4,45.2,26.1c2.1-1.2,4.1-2.4,6.2-3.6c16-9.2,32-18.5,48-27.7   c0.9-0.5,1.8-0.8,2.7-0.8c0,0,0.1,0,0.1,0c0,0,0.1,0,0.1,0c0.9,0,1.8,0.2,2.7,0.8c4.5,2.6,9,5.2,13.5,7.8   c9.1,5.3,18.3,10.5,27.4,15.8c0.6,0.4,1.2,0.7,1.8,1.1c2.5,1.4,2.8,3.9,2.8,6.3c0,4.2,0,8.5,0,12.7c0,10.8,0,21.5,0,32.3   c0,0.9,0,1.8,0,2.8c0,2.4-1.5,4.1-3.4,5.2c-2.8,1.6-5.5,3.2-8.3,4.8c-15.1,8.7-30.2,17.4-45.3,26.1c0,2.4,0,4.8,0,7.1   c0,18.5,0,37,0,55.5c0,1.9-1.1,3.8-2.8,4.8c0,0,0,0-0.1,0c-2,1.1-3.9,2.3-5.9,3.4h6.3c0.5-0.3,0.9-0.5,1.4-0.8   c1.4-0.8,2.8-1.6,4.2-2.4c0-18.2,0-36.4,0-54.6c0-2.6,0-5.2,0-7.8c0-3.9,3.1-5.2,5.9-6.8c8.9-5.2,17.9-10.3,26.8-15.5   C912.9,299.3,921,294.7,929.1,290z"/>
	<path style="clip-path:url(#SVGID_6_);fill:#FFF200;" d="M869.6,307.9c15.1-8.7,30.2-17.4,45.3-26.1c0-14.3,0-28.6,0-42.9   c-12.4-7.2-24.8-14.3-37.2-21.5c-9,5.2-18.1,10.4-27.1,15.7c-8.4,4.8-16.8,9.7-25.2,14.5c-0.6,0.4-1.2,0.7-1.8,1.1   c-2.1,1.2-4.3,0.8-6.3-0.4c-2.8-1.6-5.5-3.2-8.3-4.8c-15.1-8.7-30.1-17.4-45.2-26.1c-12.4,7.2-24.8,14.3-37.2,21.5   c0,14.3,0,28.6,0,42.9c9.1,5.2,18.1,10.5,27.2,15.7c8.4,4.8,16.8,9.7,25.2,14.5c0.6,0.4,1.2,0.7,1.8,1.1c2.1,1.2,2.8,3.4,2.8,5.6   c0,3.2,0,6.4,0,9.6c0,17.4,0,34.8,0,52.2c6.6,3.8,13.2,7.6,19.8,11.4h6.3c-6.7-3.9-13.5-7.8-20.2-11.7c-1.7-1-2.8-2.8-2.8-4.8   c0-3.4,0-6.9,0-10.4c0-17.4,0-34.8,0-52.2c-2.1-1.2-4.1-2.4-6.2-3.6c-16-9.2-32-18.5-48-27.7c-1.7-1-2.8-2.8-2.8-4.8   c0-6.1,0-12.2,0-18.3c0-3.8,0-7.6,0-11.4c0-3.1-0.3-6.3,2.9-8.1c8.3-4.8,16.6-9.6,25-14.4c1.1-0.6,2.2-1.3,3.4-1.9   c2.1-1.2,4.4-0.8,6.3,0.3c2.8,1.6,5.5,3.2,8.3,4.8c15.1,8.7,30.1,17.4,45.2,26.1c2.1-1.2,4.1-2.4,6.2-3.6c16-9.2,32-18.5,48-27.7   c0.9-0.5,1.8-0.8,2.7-0.8c0,0,0.1,0,0.1,0c0,0,0.1,0,0.1,0c0.9,0,1.8,0.3,2.7,0.8c5.3,3,10.6,6.1,15.8,9.1c4,2.3,8,4.6,12,6.9   c2.1,1.2,3.4,3.1,3.4,5.6c0,1.6,0,3.2,0,4.9c0,9.2,0,18.4,0,27.6c0,1.9-1.1,3.8-2.8,4.8c-3,1.7-6,3.4-9,5.2   c-15.1,8.7-30.2,17.4-45.3,26.1c0,2.4,0,4.8,0,7.1c0,18.5,0,37,0,55.5c0,1.9-1.1,3.8-2.8,4.8c-5.3,3-10.6,6.1-15.8,9.1   c-1.4,0.8-2.9,1.7-4.3,2.5h6.3c6.6-3.8,13.2-7.6,19.8-11.4c0-10.5,0-20.9,0-31.4c0-9.7,0-19.4,0-29.1c0-0.7,0-1.4,0-2.1   c0-2.4,1.5-4.1,3.4-5.2C864,311.1,866.8,309.5,869.6,307.9z"/>
	<path style="clip-path:url(#SVGID_6_);fill:#FFF200;" d="M809.2,296.6c2.1,1.2,2.8,3.4,2.8,5.6c0,3.2,0,6.4,0,9.6   c0,17.4,0,34.8,0,52.2c2.9,1.7,5.8,3.3,8.7,5c2.9-1.7,5.8-3.3,8.7-5c0-2.4,0-4.8,0-7.1c0-18.5,0-37,0-55.5c0-2,1.1-3.8,2.8-4.8   c3-1.7,6-3.4,9-5.2c15.1-8.7,30.2-17.4,45.3-26.1c0-3.3,0-6.7,0-10c-2.9-1.7-5.8-3.3-8.7-5c-2.1,1.2-4.1,2.4-6.2,3.6   c-16,9.2-32,18.5-48,27.7c-1.7,1-3.9,1-5.6,0c-3-1.7-6-3.5-9-5.2c-15.1-8.7-30.1-17.4-45.2-26.1c-2.9,1.7-5.8,3.3-8.7,5   c0,3.3,0,6.7,0,10c9.1,5.2,18.1,10.5,27.2,15.7c8.4,4.8,16.8,9.7,25.2,14.5C808,295.9,808.6,296.2,809.2,296.6z M760.9,265.1   c-2.9-1.7-3.2-4.7-2.1-7c1.3-2.7,4.4-4.5,7.7-2.6c3,1.7,6,3.5,9,5.2c15.1,8.7,30.1,17.4,45.2,26.1c2.1-1.2,4.1-2.4,6.2-3.6   c1.3-0.8,2.7-1.5,4-2.3c14.7-8.5,29.3-16.9,44-25.4c5.6-3.3,10.8,4.3,7.1,8.4c-0.4,0.4-0.9,0.8-1.4,1.2c-3,1.7-6,3.4-9,5.2   c-11.2,6.5-22.4,13-33.7,19.4c-3.9,2.2-7.7,4.5-11.6,6.7c0,2.4,0,4.8,0,7.1c0,18.5,0,37,0,55.5c0,6.5-9.1,7.1-10.8,1.8   c-0.2-0.5-0.3-1.2-0.3-1.8c0-3.5,0-6.9,0-10.4c0-17.4,0-34.8,0-52.2c-2.1-1.2-4.1-2.4-6.2-3.6C792.9,283.6,776.9,274.3,760.9,265.1   z"/>
	<path style="clip-path:url(#SVGID_6_);fill:#FFF200;" d="M797.7,372.2c7.6,4.4,15.3,8.8,22.9,13.2c7.6-4.4,15.3-8.8,22.9-13.2   c0-10.5,0-20.9,0-31.4c0-9.7,0-19.4,0-29.1c0-0.7,0-1.4,0-2.1c0-2.4,1.5-4.1,3.4-5.2c2.8-1.6,5.5-3.2,8.3-4.8   c15.1-8.7,30.2-17.4,45.3-26.1c0-8.8,0-17.7,0-26.5c-7.6-4.4-15.3-8.8-22.9-13.2c-9,5.2-18.1,10.4-27.1,15.7   c-8.4,4.8-16.8,9.7-25.2,14.5c-0.6,0.4-1.2,0.7-1.8,1.1c-2.1,1.2-4.3,0.8-6.3-0.4c-2.8-1.6-5.5-3.2-8.3-4.8   c-15.1-8.7-30.1-17.4-45.2-26.1c-7.6,4.4-15.3,8.8-22.9,13.2c0,8.8,0,17.7,0,26.5c2.1,1.2,4.1,2.4,6.2,3.6c16,9.2,32,18.5,48,27.7   c1.7,1,2.8,2.8,2.8,4.8c0,3.4,0,6.9,0,10.4C797.7,337.4,797.7,354.8,797.7,372.2z M794.7,301c-16-9.2-32-18.5-48-27.7   c-1.7-1-2.8-2.8-2.8-4.8c0-2.9,0-5.9,0-8.8c0-1.9,0-3.7,0-5.6c0-1.7-0.1-3.4,0.8-4.9c0.9-1.6,2.5-2.3,4-3.2   c1.6-0.9,3.3-1.9,4.9-2.8c2.4-1.4,4.9-2.8,7.3-4.2c1.7-1,3.9-1,5.6,0c3,1.7,6,3.5,9,5.2c15.1,8.7,30.1,17.4,45.2,26.1   c2.1-1.2,4.1-2.4,6.2-3.6c16-9.2,32-18.5,48-27.7c0.9-0.5,1.8-0.8,2.7-0.8c0.1,0,0.1,0,0.2,0c0,0,0,0,0.1,0c0.9,0,1.8,0.2,2.7,0.8   c0.2,0.1,0.5,0.3,0.7,0.4c4.3,2.5,8.7,5,13,7.5c1.9,1.1,3.3,2.8,3.3,5.1c0,0.5,0,1.1,0,1.6c0,2.8,0,5.5,0,8.3c0,2.1,0,4.3,0,6.4   c0,2.5-1.4,4.2-3.4,5.3c-2.8,1.6-5.5,3.2-8.3,4.8c-15.1,8.7-30.2,17.4-45.3,26.1c0,2.4,0,4.8,0,7.1c0,18.5,0,37,0,55.5   c0,1.9-1.1,3.8-2.8,4.8c-2.5,1.5-5.1,2.9-7.6,4.4c-1.6,0.9-3.2,1.9-4.8,2.8c-1.5,0.8-2.9,1.8-4.6,1.8c-1.8,0-3.3-1.1-4.9-1.9   c-1.6-0.9-3.3-1.9-4.9-2.8c-2.4-1.4-4.9-2.8-7.3-4.2c-1.7-1-2.8-2.8-2.8-4.8c0-3.4,0-6.9,0-10.4c0-17.4,0-34.8,0-52.2   C798.8,303.4,796.7,302.2,794.7,301z"/>
	<path style="clip-path:url(#SVGID_6_);fill:#FFF200;" d="M1100,388.5c0-2.4,0-4.8,0-7.1c0-17.4,0-34.8,0-52.2   c-2.1-1.2-4.1-2.4-6.2-3.6c-15.1-8.7-30.1-17.4-45.2-26.1c-9,5.2-18.1,10.4-27.1,15.7c-8.4,4.8-16.8,9.7-25.2,14.5   c-0.6,0.4-1.2,0.7-1.8,1.1c-2.1,1.2-4.3,0.8-6.3-0.4c-2.8-1.6-5.5-3.2-8.3-4.8c-15.1-8.7-30.1-17.4-45.2-26.1   c-2.1,1.2-4.1,2.4-6.2,3.6c-15.1,8.7-30.2,17.4-45.3,26.1c0,2.4,0,4.8,0,7.1c0,17.4,0,34.8,0,52.2c9.1,5.2,18.1,10.5,27.2,15.7   c8.4,4.8,16.8,9.7,25.2,14.5c0.6,0.4,1.2,0.7,1.8,1.1c2.1,1.2,2.8,3.4,2.8,5.6c0,3.2,0,6.4,0,9.6c0,17.4,0,34.8,0,52.2   c1.9,1.1,3.7,2.1,5.6,3.2h6.3c-2-1.1-4-2.3-5.9-3.4c-1.7-1-2.8-2.8-2.8-4.8c0-3.5,0-6.9,0-10.4c0-17.4,0-34.8,0-52.2   c-2.1-1.2-4.1-2.4-6.2-3.6c-16-9.2-32-18.5-48-27.7c-1.7-1-2.8-2.8-2.8-4.8c0-5.2,0-10.4,0-15.6c0-10.5,0-21.1,0-31.6   c0-0.7,0-1.4,0-2.1c0-2.9,1.9-4.3,4.1-5.6c3.7-2.1,7.3-4.2,11-6.4c9.3-5.4,18.6-10.8,28-16.1c0.8-0.5,1.6-0.9,2.4-1.4   c2.1-1.2,4.4-0.8,6.3,0.4c2.8,1.6,5.5,3.2,8.3,4.8c15.1,8.7,30.1,17.4,45.2,26.1c2.1-1.2,4.1-2.4,6.2-3.6c16-9.2,32-18.5,48-27.7   c0.9-0.5,1.8-0.8,2.7-0.8c0,0,0.1,0,0.1,0c0,0,0.1,0,0.1,0c0.9,0,1.8,0.2,2.7,0.8c4.5,2.6,9,5.2,13.5,7.8   c9.1,5.3,18.3,10.5,27.4,15.8c0.6,0.4,1.2,0.7,1.8,1.1c2.5,1.4,2.8,3.9,2.8,6.3c0,4.2,0,8.5,0,12.7c0,10.8,0,21.5,0,32.3   c0,0.9,0,1.8,0,2.8c0,2.4-1.5,4.1-3.4,5.2c-2.8,1.6-5.5,3.2-8.3,4.8c-15.1,8.7-30.2,17.4-45.3,26.1c0,2.4,0,4.8,0,7.1   c0,18.5,0,37,0,55.5c0,1.9-1.1,3.8-2.8,4.8c0,0,0,0-0.1,0c-2,1.1-3.9,2.3-5.9,3.4h6.3c0.5-0.3,0.9-0.5,1.4-0.8   c1.4-0.8,2.8-1.6,4.2-2.4c0-18.2,0-36.4,0-54.6c0-2.6,0-5.2,0-7.8c0-3.9,3.1-5.2,5.9-6.8c8.9-5.2,17.9-10.3,26.8-15.5   C1083.8,397.8,1091.9,393.2,1100,388.5z"/>
	<path style="clip-path:url(#SVGID_6_);fill:#FFF200;" d="M1040.5,403.4c15.1-8.7,30.2-17.4,45.3-26.1c0-14.3,0-28.6,0-42.9   c-12.4-7.2-24.8-14.3-37.2-21.5c-9,5.2-18.1,10.4-27.1,15.7c-8.4,4.8-16.8,9.7-25.2,14.5c-0.6,0.4-1.2,0.7-1.8,1.1   c-2.1,1.2-4.3,0.8-6.3-0.4c-2.8-1.6-5.5-3.2-8.3-4.8c-15.1-8.7-30.1-17.4-45.2-26.1c-12.4,7.2-24.8,14.3-37.2,21.5   c0,14.3,0,28.6,0,42.9c9.1,5.2,18.1,10.5,27.2,15.7c8.4,4.8,16.8,9.7,25.2,14.5c0.6,0.4,1.2,0.7,1.8,1.1c2.1,1.2,2.8,3.4,2.8,5.6   c0,3.2,0,6.4,0,9.6c0,17.4,0,34.8,0,52.2c6.6,3.8,13.2,7.6,19.8,11.4h6.3c-6.7-3.9-13.5-7.8-20.2-11.7c-1.7-1-2.8-2.8-2.8-4.8   c0-3.4,0-6.9,0-10.4c0-17.4,0-34.8,0-52.2c-2.1-1.2-4.1-2.4-6.2-3.6c-16-9.2-32-18.5-48-27.7c-1.7-1-2.8-2.8-2.8-4.8   c0-6.1,0-12.2,0-18.3c0-3.8,0-7.6,0-11.4c0-3.1-0.3-6.3,2.9-8.1c8.3-4.8,16.6-9.6,25-14.4c1.1-0.6,2.2-1.3,3.4-1.9   c2.1-1.2,4.4-0.8,6.3,0.3c2.8,1.6,5.5,3.2,8.3,4.8c15.1,8.7,30.1,17.4,45.2,26.1c2.1-1.2,4.1-2.4,6.2-3.6c16-9.2,32-18.5,48-27.7   c0.9-0.5,1.8-0.8,2.7-0.8c0,0,0.1,0,0.1,0c0,0,0.1,0,0.1,0c0.9,0,1.8,0.3,2.7,0.8c5.3,3,10.6,6.1,15.8,9.1c4,2.3,8,4.6,12,6.9   c2.1,1.2,3.4,3.1,3.4,5.6c0,1.6,0,3.2,0,4.9c0,9.2,0,18.4,0,27.6c0,1.9-1.1,3.8-2.8,4.8c-3,1.7-6,3.4-9,5.2   c-15.1,8.7-30.2,17.4-45.3,26.1c0,2.4,0,4.8,0,7.1c0,18.5,0,37,0,55.5c0,1.9-1.1,3.8-2.8,4.8c-5.3,3-10.6,6.1-15.8,9.1   c-1.4,0.8-2.9,1.7-4.3,2.5h6.3c6.6-3.8,13.2-7.6,19.8-11.4c0-10.5,0-20.9,0-31.4c0-9.7,0-19.4,0-29.1c0-0.7,0-1.4,0-2.1   c0-2.4,1.5-4.1,3.4-5.2C1035,406.6,1037.8,405,1040.5,403.4z"/>
	<path style="clip-path:url(#SVGID_6_);fill:#FFF200;" d="M980.2,392.1c2.1,1.2,2.8,3.4,2.8,5.6c0,3.2,0,6.4,0,9.6   c0,17.4,0,34.8,0,52.2c2.9,1.7,5.8,3.3,8.7,5c2.9-1.7,5.8-3.3,8.7-5c0-2.4,0-4.8,0-7.1c0-18.5,0-37,0-55.5c0-2,1.1-3.8,2.8-4.8   c3-1.7,6-3.4,9-5.2c15.1-8.7,30.2-17.4,45.3-26.1c0-3.3,0-6.7,0-10c-2.9-1.7-5.8-3.3-8.7-5c-2.1,1.2-4.1,2.4-6.2,3.6   c-16,9.2-32,18.5-48,27.7c-1.7,1-3.9,1-5.6,0c-3-1.7-6-3.5-9-5.2c-15.1-8.7-30.1-17.4-45.2-26.1c-2.9,1.7-5.8,3.3-8.7,5   c0,3.3,0,6.7,0,10c9.1,5.2,18.1,10.5,27.2,15.7c8.4,4.8,16.8,9.7,25.2,14.5C978.9,391.4,979.5,391.7,980.2,392.1z M931.8,360.6   c-2.9-1.7-3.2-4.7-2.1-7c1.3-2.7,4.4-4.5,7.7-2.6c3,1.7,6,3.5,9,5.2c15.1,8.7,30.1,17.4,45.2,26.1c2.1-1.2,4.1-2.4,6.2-3.6   c1.3-0.8,2.7-1.5,4-2.3c14.7-8.5,29.3-16.9,44-25.4c5.6-3.3,10.8,4.3,7.1,8.4c-0.4,0.4-0.9,0.8-1.4,1.2c-3,1.7-6,3.4-9,5.2   c-11.2,6.5-22.4,13-33.7,19.4c-3.9,2.2-7.7,4.5-11.6,6.7c0,2.4,0,4.8,0,7.1c0,18.5,0,37,0,55.5c0,6.5-9.1,7.1-10.8,1.8   c-0.2-0.5-0.3-1.2-0.3-1.8c0-3.5,0-6.9,0-10.4c0-17.4,0-34.8,0-52.2c-2.1-1.2-4.1-2.4-6.2-3.6C963.9,379.1,947.8,369.8,931.8,360.6   z"/>
	<path style="clip-path:url(#SVGID_6_);fill:#FFF200;" d="M968.7,467.7c7.6,4.4,15.3,8.8,22.9,13.2c7.6-4.4,15.3-8.8,22.9-13.2   c0-10.5,0-20.9,0-31.4c0-9.7,0-19.4,0-29.1c0-0.7,0-1.4,0-2.1c0-2.4,1.5-4.1,3.4-5.2c2.8-1.6,5.5-3.2,8.3-4.8   c15.1-8.7,30.2-17.4,45.3-26.1c0-8.8,0-17.7,0-26.5c-7.6-4.4-15.3-8.8-22.9-13.2c-9,5.2-18.1,10.4-27.1,15.7   c-8.4,4.8-16.8,9.7-25.2,14.5c-0.6,0.4-1.2,0.7-1.8,1.1c-2.1,1.2-4.3,0.8-6.3-0.4c-2.8-1.6-5.5-3.2-8.3-4.8   c-15.1-8.7-30.1-17.4-45.2-26.1c-7.6,4.4-15.3,8.8-22.9,13.2c0,8.8,0,17.7,0,26.5c2.1,1.2,4.1,2.4,6.2,3.6c16,9.2,32,18.5,48,27.7   c1.7,1,2.8,2.8,2.8,4.8c0,3.4,0,6.9,0,10.4C968.7,432.9,968.7,450.3,968.7,467.7z M965.6,396.5c-16-9.2-32-18.5-48-27.7   c-1.7-1-2.8-2.8-2.8-4.8c0-2.9,0-5.9,0-8.8c0-1.9,0-3.7,0-5.6c0-1.7-0.1-3.4,0.8-4.9c0.9-1.6,2.5-2.3,4-3.2   c1.6-0.9,3.3-1.9,4.9-2.8c2.4-1.4,4.9-2.8,7.3-4.2c1.7-1,3.9-1,5.6,0c3,1.7,6,3.5,9,5.2c15.1,8.7,30.1,17.4,45.2,26.1   c2.1-1.2,4.1-2.4,6.2-3.6c16-9.2,32-18.5,48-27.7c0.9-0.5,1.8-0.8,2.7-0.8c0.1,0,0.1,0,0.2,0c0,0,0,0,0.1,0c0.9,0,1.8,0.2,2.7,0.8   c0.2,0.1,0.5,0.3,0.7,0.4c4.3,2.5,8.7,5,13,7.5c1.9,1.1,3.3,2.8,3.3,5.1c0,0.5,0,1.1,0,1.6c0,2.8,0,5.5,0,8.3c0,2.1,0,4.3,0,6.4   c0,2.5-1.4,4.2-3.4,5.3c-2.8,1.6-5.5,3.2-8.3,4.8c-15.1,8.7-30.2,17.4-45.3,26.1c0,2.4,0,4.8,0,7.1c0,18.5,0,37,0,55.5   c0,1.9-1.1,3.8-2.8,4.8c-2.5,1.5-5.1,2.9-7.6,4.4c-1.6,0.9-3.2,1.9-4.8,2.8c-1.5,0.8-2.9,1.8-4.6,1.8c-1.8,0-3.3-1.1-4.9-1.9   c-1.6-0.9-3.3-1.9-4.9-2.8c-2.4-1.4-4.9-2.8-7.3-4.2c-1.7-1-2.8-2.8-2.8-4.8c0-3.4,0-6.9,0-10.4c0-17.4,0-34.8,0-52.2   C969.8,398.9,967.7,397.7,965.6,396.5z"/>
	<path style="clip-path:url(#SVGID_6_);fill:#6FEEC9;" d="M640.2,395.1c2.1,1.2,2.8,3.4,2.8,5.6c0,3.2,0,6.4,0,9.6   c0,17.4,0,34.8,0,52.2c2.9,1.7,5.8,3.3,8.7,5c2.9-1.7,5.8-3.3,8.7-5c0-2.4,0-4.8,0-7.1c0-18.5,0-37,0-55.5c0-2,1.1-3.8,2.8-4.8   c3-1.7,6-3.4,9-5.2c15.1-8.7,30.2-17.4,45.3-26.1c0-3.3,0-6.7,0-10c-2.9-1.7-5.8-3.3-8.7-5c-2.1,1.2-4.1,2.4-6.2,3.6   c-16,9.2-32,18.5-48,27.7c-1.7,1-3.9,1-5.6,0c-3-1.7-6-3.5-9-5.2c-15.1-8.7-30.1-17.4-45.2-26.1c-2.9,1.7-5.8,3.3-8.7,5   c0,3.3,0,6.7,0,10c9.1,5.2,18.1,10.5,27.2,15.7c8.4,4.8,16.8,9.7,25.2,14.5C639,394.4,639.6,394.7,640.2,395.1z M591.9,363.6   c-2.9-1.7-3.2-4.7-2.1-7c1.3-2.7,4.4-4.5,7.7-2.6c3,1.7,6,3.5,9,5.2c15.1,8.7,30.1,17.4,45.2,26.1c2.1-1.2,4.1-2.4,6.2-3.6   c1.3-0.8,2.7-1.5,4-2.3c14.7-8.5,29.3-16.9,44-25.4c5.6-3.3,10.8,4.3,7.1,8.4c-0.4,0.4-0.9,0.8-1.4,1.2c-3,1.7-6,3.4-9,5.2   c-11.2,6.5-22.4,13-33.7,19.4c-3.9,2.2-7.7,4.5-11.6,6.7c0,2.4,0,4.8,0,7.1c0,18.5,0,37,0,55.5c0,6.5-9.1,7.1-10.8,1.8   c-0.2-0.5-0.3-1.2-0.3-1.8c0-3.5,0-6.9,0-10.4c0-17.4,0-34.8,0-52.2c-2.1-1.2-4.1-2.4-6.2-3.6C623.9,382.1,607.9,372.8,591.9,363.6   z"/>
	<path style="clip-path:url(#SVGID_6_);fill:#6FEEC9;" d="M628.8,470.7c7.6,4.4,15.3,8.8,22.9,13.2c7.6-4.4,15.3-8.8,22.9-13.2   c0-10.5,0-20.9,0-31.4c0-9.7,0-19.4,0-29.1c0-0.7,0-1.4,0-2.1c0-2.4,1.5-4.1,3.4-5.2c2.8-1.6,5.5-3.2,8.3-4.8   c15.1-8.7,30.2-17.4,45.3-26.1c0-8.8,0-17.7,0-26.5c-7.6-4.4-15.3-8.8-22.9-13.2c-9,5.2-18.1,10.4-27.1,15.7   c-8.4,4.8-16.8,9.7-25.2,14.5c-0.6,0.4-1.2,0.7-1.8,1.1c-2.1,1.2-4.3,0.8-6.3-0.4c-2.8-1.6-5.5-3.2-8.3-4.8   c-15.1-8.7-30.1-17.4-45.2-26.1c-7.6,4.4-15.3,8.8-22.9,13.2c0,8.8,0,17.7,0,26.5c2.1,1.2,4.1,2.4,6.2,3.6c16,9.2,32,18.5,48,27.7   c1.7,1,2.8,2.8,2.8,4.8c0,3.4,0,6.9,0,10.4C628.8,435.9,628.8,453.3,628.8,470.7z M625.7,399.5c-16-9.2-32-18.5-48-27.7   c-1.7-1-2.8-2.8-2.8-4.8c0-2.9,0-5.9,0-8.8c0-1.9,0-3.7,0-5.6c0-1.7-0.1-3.4,0.8-4.9c0.9-1.6,2.5-2.3,4-3.2   c1.6-0.9,3.3-1.9,4.9-2.8c2.4-1.4,4.9-2.8,7.3-4.2c1.7-1,3.9-1,5.6,0c3,1.7,6,3.5,9,5.2c15.1,8.7,30.1,17.4,45.2,26.1   c2.1-1.2,4.1-2.4,6.2-3.6c16-9.2,32-18.5,48-27.7c0.9-0.5,1.8-0.8,2.7-0.8c0.1,0,0.1,0,0.2,0c0,0,0,0,0.1,0c0.9,0,1.8,0.2,2.7,0.8   c0.2,0.1,0.5,0.3,0.7,0.4c4.3,2.5,8.7,5,13,7.5c1.9,1.1,3.3,2.8,3.3,5.1c0,0.5,0,1.1,0,1.6c0,2.8,0,5.5,0,8.3c0,2.1,0,4.3,0,6.4   c0,2.5-1.4,4.2-3.4,5.3c-2.8,1.6-5.5,3.2-8.3,4.8c-15.1,8.7-30.2,17.4-45.3,26.1c0,2.4,0,4.8,0,7.1c0,18.5,0,37,0,55.5   c0,1.9-1.1,3.8-2.8,4.8c-2.5,1.5-5.1,2.9-7.6,4.4c-1.6,0.9-3.2,1.9-4.8,2.8c-1.5,0.8-2.9,1.8-4.6,1.8c-1.8,0-3.3-1.1-4.9-1.9   c-1.6-0.9-3.3-1.9-4.9-2.8c-2.4-1.4-4.9-2.8-7.3-4.2c-1.7-1-2.8-2.8-2.8-4.8c0-3.4,0-6.9,0-10.4c0-17.4,0-34.8,0-52.2   C629.8,401.9,627.8,400.7,625.7,399.5z"/>
	<path style="clip-path:url(#SVGID_6_);fill:#FFF200;" d="M981.9,80.1c-2.4-1.4-4.9-2.8-7.3-4.2c-1.7-1-2.8-2.8-2.8-4.8   c0-3.5,0-6.9,0-10.4c0-17.4,0-34.8,0-52.2c-2.1-1.2-4.1-2.4-6.2-3.6c-4.5-2.6-9.1-5.2-13.6-7.8h-6.3c6.7,3.9,13.5,7.8,20.2,11.7   c1.7,1,2.8,2.8,2.8,4.8c0,3.5,0,6.9,0,10.4c0,17.4,0,34.8,0,52.2c7.6,4.4,15.3,8.8,22.9,13.2l0,0v-4.5c-1.8,0-3.3-1.1-4.9-1.9   C985.1,82,983.5,81.1,981.9,80.1z"/>
	<path style="clip-path:url(#SVGID_6_);fill:#FFF200;" d="M986.1,62.9C986.1,62.9,986.1,62.9,986.1,62.9c0-3.5,0-6.9,0-10.4   c0,0,0,0,0,0c0-17.4,0-34.8,0-52.2c-1.9-1.1-3.7-2.1-5.6-3.2h-6.3c1.4,0.8,2.7,1.6,4.1,2.3c0.6,0.4,1.2,0.7,1.8,1.1   c2.1,1.2,2.8,3.4,2.8,5.6c0,3.2,0,6.4,0,9.6c0,17.4,0,34.8,0,52.2c2.9,1.7,5.8,3.3,8.7,5c0,0,0,0,0,0v-4.7   C988.9,68.3,986.1,66.5,986.1,62.9z"/>
	<path style="clip-path:url(#SVGID_6_);fill:#FFF200;" d="M979.9,128.3c-15.1-8.7-30.1-17.4-45.2-26.1c-2.1,1.2-4.1,2.4-6.2,3.6   c-15.1,8.7-30.2,17.4-45.3,26.1c0,2.4,0,4.8,0,7.1c0,17.4,0,34.8,0,52.2c0.1,0.1,0.3,0.1,0.4,0.2c1.7,1,3.4,2,5.2,3   c7.2,4.2,14.4,8.3,21.6,12.5c8.4,4.8,16.8,9.7,25.2,14.5c0.6,0.4,1.2,0.7,1.8,1.1c2.1,1.2,2.8,3.4,2.8,5.6c0,3.2,0,6.4,0,9.6   c0,17.4,0,34.8,0,52.2c2.1,1.2,4.1,2.4,6.2,3.6c15.1,8.7,30.1,17.4,45.2,26.1v-4.6c-1,0-1.9-0.1-2.8-0.7   c-14.2-8.2-28.5-16.4-42.7-24.7c-1.7-1-2.8-2.8-2.8-4.8c0-3.4,0-6.9,0-10.4c0-17.4,0-34.8,0-52.2c-2.1-1.2-4.1-2.4-6.2-3.6   c-14-8.1-28.1-16.2-42.1-24.3h0c-0.5-0.3-1-0.6-1.4-0.8c-3-1.7-7.2-3.3-7.2-7.4c0-16.5,0-32.9,0-49.4c0-1.9,1.1-3.8,2.8-4.8   c4.1-2.4,8.2-4.7,12.3-7.1c9.3-5.4,18.6-10.8,28-16.1c0.8-0.5,1.6-0.9,2.4-1.4c2.1-1.2,4.4-0.8,6.3,0.4c2.8,1.6,5.5,3.2,8.3,4.8   c15.1,8.7,30.1,17.4,45.2,26.1v-4.5c-1.2,0-2.4-0.5-3.5-1.1C985.4,131.5,982.6,129.9,979.9,128.3z"/>
	<path style="clip-path:url(#SVGID_6_);fill:#FFF200;" d="M984.3,97.9c-8-4.6-15.9-9.2-23.9-13.8c-1.7-1-2.8-2.8-2.8-4.8   c0-3.5,0-6.9,0-10.4c0-17.4,0-34.8,0-52.2c-2.1-1.2-4.1-2.4-6.2-3.6c-9.3-5.4-18.6-10.7-27.8-16.1h-6.3c2.5,1.4,4.9,2.8,7.4,4.3   c8.4,4.8,16.8,9.7,25.2,14.5c0.6,0.4,1.2,0.7,1.8,1.1c2.1,1.2,2.8,3.4,2.8,5.6c0,3.2,0,6.4,0,9.6c0,17.4,0,34.8,0,52.2   c12.4,7.2,24.8,14.3,37.2,21.5c0,0,0,0,0,0v-4.6c-1.1,0-2.1-0.3-3.2-0.9C987.1,99.6,985.7,98.8,984.3,97.9z"/>
	<path style="clip-path:url(#SVGID_6_);fill:#6FEEC9;" d="M778.9,114.6c0.6,0.4,1.2,0.7,1.8,1.1c2.1,1.2,2.8,3.4,2.8,5.6   c0,3.2,0,6.4,0,9.6c0,17.4,0,34.8,0,52.2c6.6,3.8,13.2,7.6,19.8,11.4h0c5.8,3.3,11.6,6.7,17.4,10c5.8-3.3,11.6-6.7,17.4-10h0   c6.6-3.8,13.2-7.6,19.8-11.4c0-10.5,0-20.9,0-31.4c0-9.7,0-19.4,0-29.1c0-0.7,0-1.4,0-2.1c0-2.4,1.5-4.1,3.4-5.2   c2.8-1.6,5.5-3.2,8.3-4.8c15.1-8.7,30.2-17.4,45.3-26.1c0-14.3,0-28.6,0-42.9c-12.4-7.2-24.8-14.3-37.2-21.5   c-9,5.2-18.1,10.4-27.1,15.7c-8.4,4.8-16.8,9.7-25.2,14.5c-0.6,0.4-1.2,0.7-1.8,1.1c-2.1,1.2-4.3,0.8-6.3-0.4   c-2.8-1.6-5.5-3.2-8.3-4.8c-15.1-8.7-30.1-17.4-45.2-26.1c-12.4,7.2-24.8,14.3-37.2,21.5c0,14.3,0,28.6,0,42.9   c9.1,5.2,18.1,10.5,27.2,15.7C762.1,104.9,770.5,109.7,778.9,114.6z M729.6,79.3c0-6.1,0-12.2,0-18.3c0-3.8,0-7.6,0-11.4   c0-3.1-0.3-6.3,2.9-8.1c8.3-4.8,16.6-9.6,25-14.4c1.1-0.6,2.2-1.3,3.4-1.9c2.1-1.2,4.4-0.8,6.3,0.3c2.8,1.6,5.5,3.2,8.3,4.8   c15.1,8.7,30.1,17.4,45.2,26.1c2.1-1.2,4.1-2.4,6.2-3.6c16-9.2,32-18.5,48-27.7c0.9-0.5,1.8-0.8,2.7-0.8c0,0,0.1,0,0.1,0   c0,0,0.1,0,0.1,0c0.9,0,1.8,0.3,2.7,0.8c5.3,3,10.6,6.1,15.8,9.1c4,2.3,8,4.6,12,6.9c2.1,1.2,3.4,3.1,3.4,5.6c0,1.6,0,3.2,0,4.9   c0,9.2,0,18.4,0,27.6c0,1.9-1.1,3.8-2.8,4.8c-3,1.7-6,3.5-9,5.2c-15.1,8.7-30.2,17.4-45.3,26.1c0,2.4,0,4.8,0,7.1   c0,18.5,0,37,0,55.5c0,1.9-1.1,3.8-2.8,4.8c-5.3,3-10.6,6.1-15.8,9.1c-1.4,0.8-2.9,1.7-4.3,2.5h0c-2.8,1.6-5.5,3.2-8.3,4.8   c-1.7,1-3.9,1-5.6,0c-2.8-1.6-5.5-3.2-8.3-4.8h0c-6.7-3.9-13.5-7.8-20.2-11.7c-1.7-1-2.8-2.8-2.8-4.8c0-3.5,0-6.9,0-10.4   c0-17.4,0-34.8,0-52.2c-2.1-1.2-4.1-2.4-6.2-3.6c-16-9.2-32-18.5-48-27.7C730.7,83.2,729.6,81.3,729.6,79.3z"/>
	<path style="clip-path:url(#SVGID_6_);fill:#FFF200;" d="M979.9,177.7c-15.1-8.7-30.1-17.4-45.2-26.1c-2.9,1.7-5.8,3.3-8.7,5   c0,3.3,0,6.7,0,10c9.1,5.2,18.1,10.5,27.2,15.7c7,4.1,14.1,8.1,21.1,12.2h0c1.4,0.8,2.7,1.6,4.1,2.3c0.6,0.4,1.2,0.7,1.8,1.1   c2.1,1.2,2.8,3.4,2.8,5.6c0,3.2,0,6.4,0,9.6c0,17.4,0,34.8,0,52.2c2.9,1.7,5.8,3.3,8.7,5c0,0,0,0,0,0v-4.7c-2.8,0-5.6-1.8-5.6-5.4   c0,0,0,0,0,0c0-3.4,0-6.9,0-10.4c0,0,0,0,0,0c0-17.4,0-34.8,0-52.2c-1.9-1.1-3.7-2.1-5.6-3.2h0c-0.2-0.1-0.4-0.3-0.7-0.4   c-16-9.2-32-18.5-48-27.7c-1.9-1.1-2.7-2.8-2.7-4.5c0.1-3.8,4-7.5,8.3-5.1c3,1.7,6,3.5,9,5.2c15.1,8.7,30.1,17.4,45.2,26.1v-4.5   c-1,0-1.9-0.2-2.8-0.7C985.8,181.1,982.9,179.4,979.9,177.7z"/>
	<path style="clip-path:url(#SVGID_6_);fill:#FFF200;" d="M988.8,117c-14.2-8.2-28.5-16.4-42.7-24.7c-1.7-1-2.8-2.8-2.8-4.8   c0-3.5,0-6.9,0-10.4c0-17.4,0-34.8,0-52.2c-2.1-1.2-4.1-2.4-6.2-3.6c-14-8.1-28.1-16.2-42.1-24.3h-6.3c7.2,4.2,14.4,8.3,21.6,12.5   c8.4,4.8,16.8,9.7,25.2,14.5c0.6,0.4,1.2,0.7,1.8,1.1c2.1,1.2,2.8,3.4,2.8,5.6c0,3.2,0,6.4,0,9.6c0,17.4,0,34.8,0,52.2   c2.1,1.2,4.1,2.4,6.2,3.6c15.1,8.7,30.1,17.4,45.2,26.1v-4.6C990.7,117.7,989.7,117.6,988.8,117z"/>
	<path style="clip-path:url(#SVGID_6_);fill:#FFF200;" d="M979.9,144.8c-15.1-8.7-30.1-17.4-45.2-26.1   c-12.4,7.2-24.8,14.3-37.2,21.5c0,14.3,0,28.6,0,42.9c6.6,3.8,13.2,7.6,19.8,11.4h0c2.5,1.4,4.9,2.8,7.4,4.3   c8.4,4.8,16.8,9.7,25.2,14.5c0.6,0.4,1.2,0.7,1.8,1.1c2.1,1.2,2.8,3.4,2.8,5.6c0,3.2,0,6.4,0,9.6c0,17.4,0,34.8,0,52.2   c12.4,7.2,24.8,14.3,37.2,21.5v0v-4.6c-1.1,0-2.1-0.3-3.2-0.9c-1.4-0.8-2.8-1.6-4.2-2.4c-8-4.6-15.9-9.2-23.9-13.8   c-1.7-1-2.8-2.8-2.8-4.8c0-3.4,0-6.9,0-10.4c0-17.4,0-34.8,0-52.2c-2.1-1.2-4.1-2.4-6.2-3.6c-9.3-5.4-18.6-10.7-27.8-16.1h0   c-4.1-2.4-8.3-4.8-12.4-7.2c-2.5-1.4-5-2.9-7.5-4.3c-3.8-2.2-3.1-6.6-3.1-10.3c0-9.2,0-18.4,0-27.6c0-1.9,1.1-3.8,2.8-4.8   c0,0,0.1,0,0.1-0.1c8.3-4.8,16.6-9.6,25-14.4c1.1-0.6,2.2-1.3,3.4-1.9c2.1-1.2,4.4-0.8,6.3,0.3c2.8,1.6,5.5,3.2,8.3,4.8   c15.1,8.7,30.1,17.4,45.2,26.1v-4.5c-1.2,0-2.4-0.5-3.5-1.1C985.4,148,982.6,146.4,979.9,144.8z"/>
	<path style="clip-path:url(#SVGID_6_);fill:#FFF200;" d="M979.9,161.2c-15.1-8.7-30.1-17.4-45.2-26.1c-7.6,4.4-15.3,8.8-22.9,13.2   c0,8.8,0,17.7,0,26.5c9.1,5.2,18.1,10.5,27.2,15.7c2.3,1.3,4.6,2.6,6.9,4l0,0c6.7,3.9,13.5,7.8,20.2,11.7c1.7,1,2.8,2.8,2.8,4.8   c0,3.5,0,6.9,0,10.4c0,17.4,0,34.8,0,52.2c7.6,4.4,15.3,8.8,22.9,13.2l0,0v-4.5c-1.8,0-3.3-1.1-4.9-1.9c-1.6-0.9-3.3-1.9-4.9-2.8   c-2.4-1.4-4.9-2.8-7.3-4.2c-1.7-1-2.8-2.8-2.8-4.8c0-3.5,0-6.9,0-10.4c0-17.4,0-34.8,0-52.2c-2.1-1.2-4.1-2.4-6.2-3.6   c-4.5-2.6-9.1-5.2-13.6-7.8h0c-9.2-5.3-18.4-10.6-27.5-15.9c-2.2-1.3-4.5-2.6-6.7-3.9c-2.6-1.5-2.9-3.9-2.9-6.5c0-2.8,0-5.5,0-8.3   c0-2.1,0-4.3,0-6.4c0-3.5,2.5-4.8,5-6.3c4-2.3,8-4.6,12-6.9c1.7-1,3.9-1,5.6,0c3,1.7,6,3.5,9,5.2c15.1,8.7,30.1,17.4,45.2,26.1   v-4.5c-1,0-1.9-0.2-2.8-0.7C985.8,164.7,982.9,162.9,979.9,161.2z"/>
	<path style="clip-path:url(#SVGID_6_);fill:#6FEEC9;" d="M809.2,99.2c2.1,1.2,2.8,3.4,2.8,5.6c0,3.2,0,6.4,0,9.6   c0,17.4,0,34.8,0,52.2c2.9,1.7,5.8,3.3,8.7,5c2.9-1.7,5.8-3.3,8.7-5c0-2.4,0-4.8,0-7.1c0-18.5,0-37,0-55.5c0-1.9,1.1-3.8,2.8-4.8   c3-1.7,6-3.5,9-5.2c15.1-8.7,30.2-17.4,45.3-26.1c0-3.3,0-6.7,0-10c-2.9-1.7-5.8-3.3-8.7-5c-2.1,1.2-4.1,2.4-6.2,3.6   c-16,9.2-32,18.5-48,27.7c-1.7,1-3.9,1-5.6,0c-3-1.7-6-3.5-9-5.2c-15.1-8.7-30.1-17.4-45.2-26.1c-2.9,1.7-5.8,3.3-8.7,5   c0,3.3,0,6.7,0,10c9.1,5.2,18.1,10.5,27.2,15.7c8.4,4.8,16.8,9.7,25.2,14.5C808,98.5,808.6,98.8,809.2,99.2z M826.2,161.6   c0,6.5-9.1,7.1-10.8,1.8c-0.2-0.5-0.3-1.2-0.3-1.8c0-3.5,0-6.9,0-10.4c0-17.4,0-34.8,0-52.2c-2.1-1.2-4.1-2.4-6.2-3.6   c-16-9.2-32-18.5-48-27.7c-2.9-1.7-3.2-4.7-2.1-7c1.3-2.7,4.4-4.5,7.7-2.6c3,1.7,6,3.4,9,5.2c15.1,8.7,30.1,17.4,45.2,26.1   c2.1-1.2,4.1-2.4,6.2-3.6c1.3-0.8,2.7-1.5,4-2.3c14.7-8.5,29.3-16.9,44-25.4c5.6-3.3,10.8,4.3,7.1,8.4c-0.4,0.4-0.9,0.8-1.4,1.2   c-3,1.7-6,3.5-9,5.2c-11.2,6.5-22.4,13-33.7,19.4c-3.9,2.2-7.7,4.5-11.6,6.7c0,2.4,0,4.8,0,7.1"/>
	<path style="clip-path:url(#SVGID_6_);fill:#6FEEC9;" d="M797.7,112.2c0,3.5,0,6.9,0,10.4c0,17.4,0,34.8,0,52.2   c7.6,4.4,15.3,8.8,22.9,13.2c7.6-4.4,15.3-8.8,22.9-13.2c0-10.5,0-20.9,0-31.4c0-9.7,0-19.4,0-29.1c0-0.7,0-1.4,0-2.1   c0-2.4,1.5-4.1,3.4-5.2c2.8-1.6,5.5-3.2,8.3-4.8c15.1-8.7,30.2-17.4,45.3-26.1c0-8.8,0-17.7,0-26.5c-7.6-4.4-15.3-8.8-22.9-13.2   c-9,5.2-18.1,10.4-27.1,15.7c-8.4,4.8-16.8,9.7-25.2,14.5c-0.6,0.4-1.2,0.7-1.8,1.1c-2.1,1.2-4.3,0.8-6.3-0.4   c-2.8-1.6-5.5-3.2-8.3-4.8c-15.1-8.7-30.1-17.4-45.2-26.1c-7.6,4.4-15.3,8.8-22.9,13.2c0,8.8,0,17.7,0,26.5   c2.1,1.2,4.1,2.4,6.2,3.6c16,9.2,32,18.5,48,27.7C796.7,108.4,797.7,110.3,797.7,112.2z M746.6,75.9c-1.7-1-2.8-2.8-2.8-4.8   c0-2.9,0-5.9,0-8.8c0-1.9,0-3.7,0-5.6c0-1.7-0.1-3.4,0.8-4.9c0.9-1.6,2.5-2.3,4-3.2c1.6-0.9,3.3-1.9,4.9-2.8   c2.4-1.4,4.9-2.8,7.3-4.2c1.7-1,3.9-1,5.6,0c3,1.7,6,3.5,9,5.2c15.1,8.7,30.1,17.4,45.2,26.1c2.1-1.2,4.1-2.4,6.2-3.6   c16-9.2,32-18.5,48-27.7c0.9-0.5,1.8-0.8,2.7-0.8c0.1,0,0.1,0,0.2,0c0,0,0,0,0.1,0c0.9,0,1.8,0.2,2.7,0.8c0.2,0.1,0.5,0.3,0.7,0.4   c4.3,2.5,8.7,5,13,7.5c1.9,1.1,3.3,2.8,3.3,5.1c0,0.5,0,1.1,0,1.6c0,2.8,0,5.5,0,8.3c0,2.1,0,4.3,0,6.4c0,2.5-1.4,4.2-3.4,5.3   c-2.8,1.6-5.5,3.2-8.3,4.8c-15.1,8.7-30.2,17.4-45.3,26.1c0,2.4,0,4.8,0,7.1c0,18.5,0,37,0,55.5c0,1.9-1.1,3.8-2.8,4.8   c-2.5,1.5-5.1,2.9-7.6,4.4c-1.6,0.9-3.2,1.9-4.8,2.8c-1.5,0.8-2.9,1.8-4.6,1.8c-1.8,0-3.3-1.1-4.9-1.9c-1.6-0.9-3.3-1.9-4.9-2.8   c-2.4-1.4-4.9-2.8-7.3-4.2c-1.7-1-2.8-2.8-2.8-4.8c0-3.5,0-6.9,0-10.4c0-17.4,0-34.8,0-52.2c-2.1-1.2-4.1-2.4-6.2-3.6   C778.6,94.4,762.6,85.2,746.6,75.9z"/>
	<g style="display:none;clip-path:url(#SVGID_6_);">
		<g class="st8">
			<circle class="st3" cx="257" cy="326" r="2.9"/>
			<circle class="st3" cx="265.9" cy="326" r="2.9"/>
			<circle class="st3" cx="274.7" cy="326" r="2.9"/>
			<circle class="st3" cx="283.6" cy="326" r="2.9"/>
			<circle class="st3" cx="292.5" cy="326" r="2.9"/>
			<circle class="st3" cx="301.4" cy="326" r="2.9"/>
			<circle class="st3" cx="234.7" cy="333.4" r="2.9"/>
			<circle class="st3" cx="243.6" cy="333.4" r="2.9"/>
			<circle class="st3" cx="252.5" cy="333.4" r="2.9"/>
			<circle class="st3" cx="261.4" cy="333.4" r="2.9"/>
			<circle class="st3" cx="270.3" cy="333.4" r="2.9"/>
			<circle class="st3" cx="279.1" cy="333.4" r="2.9"/>
			<circle class="st3" cx="288" cy="333.4" r="2.9"/>
			<circle class="st3" cx="296.9" cy="333.4" r="2.9"/>
			<circle class="st3" cx="305.8" cy="333.4" r="2.9"/>
			<circle class="st3" cx="314.6" cy="333.4" r="2.9"/>
			<circle class="st3" cx="239.2" cy="341" r="2.9"/>
			<circle class="st3" cx="248.1" cy="341" r="2.9"/>
			<circle class="st3" cx="257" cy="341" r="2.9"/>
			<circle class="st3" cx="265.9" cy="341" r="2.9"/>
			<circle class="st3" cx="274.7" cy="341" r="2.9"/>
			<circle class="st3" cx="283.6" cy="341" r="2.9"/>
			<circle class="st3" cx="292.5" cy="341" r="2.9"/>
			<circle class="st3" cx="301.4" cy="341" r="2.9"/>
			<circle class="st3" cx="310.3" cy="341" r="2.9"/>
			<circle class="st3" cx="319.1" cy="341" r="2.9"/>
			<circle class="st3" cx="328" cy="341" r="2.9"/>
			<circle class="st3" cx="336.9" cy="341" r="2.9"/>
			<circle class="st3" cx="345.8" cy="341" r="2.9"/>
			<circle class="st3" cx="354.6" cy="341" r="2.9"/>
			<circle class="st3" cx="363.5" cy="341" r="2.9"/>
			<circle class="st3" cx="372.4" cy="341" r="2.9"/>
			<circle class="st3" cx="381.3" cy="340.9" r="2.9"/>
			<circle class="st3" cx="261.4" cy="348.5" r="2.9"/>
			<circle class="st3" cx="270.3" cy="348.5" r="2.9"/>
			<circle class="st3" cx="279.1" cy="348.5" r="2.9"/>
			<circle class="st3" cx="288" cy="348.5" r="2.9"/>
			<circle class="st3" cx="296.9" cy="348.5" r="2.9"/>
			<circle class="st3" cx="305.8" cy="348.5" r="2.9"/>
			<circle class="st3" cx="314.6" cy="348.5" r="2.9"/>
			<circle class="st3" cx="323.5" cy="348.5" r="2.9"/>
			<circle class="st3" cx="332.4" cy="348.5" r="2.9"/>
			<circle class="st3" cx="341.3" cy="348.5" r="2.9"/>
			<circle class="st3" cx="350.1" cy="348.5" r="2.9"/>
			<circle class="st3" cx="359" cy="348.5" r="2.9"/>
			<circle class="st3" cx="367.9" cy="348.5" r="2.9"/>
			<circle class="st3" cx="376.8" cy="348.5" r="2.9"/>
			<circle class="st3" cx="385.7" cy="348.5" r="2.9"/>
			<circle class="st3" cx="394.5" cy="348.5" r="2.9"/>
			<circle class="st3" cx="403.4" cy="348.5" r="2.9"/>
			<circle class="st3" cx="412.3" cy="348.5" r="2.9"/>
			<circle class="st3" cx="421.2" cy="348.5" r="2.9"/>
			<circle class="st3" cx="430" cy="348.5" r="2.9"/>
			<circle class="st3" cx="438.9" cy="348.5" r="2.9"/>
			<circle class="st3" cx="447.8" cy="348.5" r="2.9"/>
			<circle class="st3" cx="456.7" cy="348.5" r="2.9"/>
			<circle class="st3" cx="230.4" cy="356.1" r="2.9"/>
			<circle class="st3" cx="239.2" cy="356.1" r="2.9"/>
			<circle class="st3" cx="248.1" cy="356.1" r="2.9"/>
			<circle class="st3" cx="257" cy="356.1" r="2.9"/>
			<circle class="st3" cx="265.9" cy="356.1" r="2.9"/>
			<circle class="st3" cx="274.7" cy="356.1" r="2.9"/>
			<circle class="st3" cx="283.6" cy="356.1" r="2.9"/>
			<circle class="st3" cx="292.5" cy="356.1" r="2.9"/>
			<circle class="st3" cx="301.4" cy="356.1" r="2.9"/>
			<circle class="st3" cx="310.3" cy="356.1" r="2.9"/>
			<circle class="st3" cx="319.1" cy="356.1" r="2.9"/>
			<circle class="st3" cx="328" cy="356.1" r="2.9"/>
			<circle class="st3" cx="336.9" cy="356.1" r="2.9"/>
			<circle class="st3" cx="345.8" cy="356.1" r="2.9"/>
			<circle class="st3" cx="354.6" cy="356.1" r="2.9"/>
			<circle class="st3" cx="363.5" cy="356.1" r="2.9"/>
			<circle class="st3" cx="372.4" cy="356.1" r="2.9"/>
			<circle class="st3" cx="381.3" cy="356.1" r="2.9"/>
			<circle class="st3" cx="390.1" cy="356.1" r="2.9"/>
			<circle class="st3" cx="399" cy="356.1" r="2.9"/>
			<circle class="st3" cx="407.9" cy="356.1" r="2.9"/>
			<circle class="st3" cx="416.8" cy="356.1" r="2.9"/>
			<circle class="st3" cx="425.6" cy="356.1" r="2.9"/>
			<circle class="st3" cx="434.5" cy="356.1" r="2.9"/>
			<circle class="st3" cx="443.4" cy="356.1" r="2.9"/>
			<circle class="st3" cx="452.3" cy="356.1" r="2.9"/>
			<circle class="st3" cx="461.2" cy="356.1" r="2.9"/>
			<circle class="st3" cx="470" cy="356.1" r="2.9"/>
			<circle class="st3" cx="478.9" cy="356.1" r="2.9"/>
			<circle class="st3" cx="487.8" cy="356" r="2.9"/>
			<circle class="st3" cx="243.6" cy="363.6" r="2.9"/>
			<circle class="st3" cx="252.5" cy="363.6" r="2.9"/>
			<circle class="st3" cx="261.4" cy="363.6" r="2.9"/>
			<circle class="st3" cx="270.3" cy="363.6" r="2.9"/>
			<circle class="st3" cx="279.1" cy="363.6" r="2.9"/>
			<circle class="st3" cx="288" cy="363.6" r="2.9"/>
			<circle class="st3" cx="296.9" cy="363.6" r="2.9"/>
			<circle class="st3" cx="305.8" cy="363.6" r="2.9"/>
			<circle class="st3" cx="314.6" cy="363.6" r="2.9"/>
			<circle class="st3" cx="323.5" cy="363.6" r="2.9"/>
			<circle class="st3" cx="332.4" cy="363.6" r="2.9"/>
			<circle class="st3" cx="341.3" cy="363.6" r="2.9"/>
			<circle class="st3" cx="350.1" cy="363.6" r="2.9"/>
			<circle class="st3" cx="359" cy="363.6" r="2.9"/>
			<circle class="st3" cx="367.9" cy="363.6" r="2.9"/>
			<circle class="st3" cx="230.4" cy="371.2" r="2.9"/>
			<circle class="st3" cx="239.2" cy="371.2" r="2.9"/>
			<circle class="st3" cx="248.1" cy="371.2" r="2.9"/>
			<circle class="st3" cx="257" cy="371.2" r="2.9"/>
			<circle class="st3" cx="265.9" cy="371.2" r="2.9"/>
			<circle class="st3" cx="274.7" cy="371.2" r="2.9"/>
			<circle class="st3" cx="283.6" cy="371.2" r="2.9"/>
			<circle class="st3" cx="292.5" cy="371.2" r="2.9"/>
			<circle class="st3" cx="301.4" cy="371.2" r="2.9"/>
			<circle class="st3" cx="310.3" cy="371.2" r="2.9"/>
			<circle class="st3" cx="319.1" cy="371.2" r="2.9"/>
			<circle class="st3" cx="328" cy="371.2" r="2.9"/>
			<circle class="st3" cx="336.9" cy="371.2" r="2.9"/>
			<circle class="st3" cx="345.8" cy="371.2" r="2.9"/>
			<circle class="st3" cx="354.6" cy="371.2" r="2.9"/>
			<circle class="st3" cx="363.5" cy="371.2" r="2.9"/>
			<circle class="st3" cx="372.4" cy="371.2" r="2.9"/>
			<circle class="st3" cx="381.3" cy="371.2" r="2.9"/>
			<circle class="st3" cx="390.1" cy="371.2" r="2.9"/>
			<circle class="st3" cx="399" cy="371.2" r="2.9"/>
			<circle class="st3" cx="407.9" cy="371.2" r="2.9"/>
			<circle class="st3" cx="416.8" cy="371.2" r="2.9"/>
			<circle class="st3" cx="425.7" cy="371.2" r="2.9"/>
			<circle class="st3" cx="434.5" cy="371.2" r="2.9"/>
			<circle class="st3" cx="443.4" cy="371.2" r="2.9"/>
			<circle class="st3" cx="452.3" cy="371.2" r="2.9"/>
			<circle class="st3" cx="461.2" cy="371.2" r="2.9"/>
			<circle class="st3" cx="470" cy="371.2" r="2.9"/>
			<circle class="st3" cx="478.9" cy="371.2" r="2.9"/>
			<circle class="st3" cx="487.8" cy="371.2" r="2.9"/>
			<circle class="st3" cx="279.1" cy="378.8" r="2.9"/>
			<circle class="st3" cx="288" cy="378.8" r="2.9"/>
			<circle class="st3" cx="296.9" cy="378.8" r="2.9"/>
			<circle class="st3" cx="305.8" cy="378.8" r="2.9"/>
			<circle class="st3" cx="314.6" cy="378.8" r="2.9"/>
			<circle class="st3" cx="323.5" cy="378.8" r="2.9"/>
			<circle class="st3" cx="332.4" cy="378.8" r="2.9"/>
			<circle class="st3" cx="341.3" cy="378.8" r="2.9"/>
			<circle class="st3" cx="350.2" cy="378.7" r="2.9"/>
			<circle class="st3" cx="359" cy="378.7" r="2.9"/>
			<circle class="st3" cx="367.9" cy="378.7" r="2.9"/>
			<circle class="st3" cx="376.8" cy="378.7" r="2.9"/>
			<circle class="st3" cx="385.7" cy="378.7" r="2.9"/>
			<circle class="st3" cx="394.5" cy="378.7" r="2.9"/>
			<circle class="st3" cx="403.4" cy="378.7" r="2.9"/>
			<circle class="st3" cx="412.3" cy="378.7" r="2.9"/>
			<circle class="st3" cx="421.2" cy="378.7" r="2.9"/>
			<circle class="st3" cx="430" cy="378.7" r="2.9"/>
			<circle class="st3" cx="438.9" cy="378.7" r="2.9"/>
			<circle class="st3" cx="447.8" cy="378.7" r="2.9"/>
			<circle class="st3" cx="456.7" cy="378.7" r="2.9"/>
			<circle class="st3" cx="465.5" cy="378.7" r="2.9"/>
			<circle class="st3" cx="474.4" cy="378.7" r="2.9"/>
			<circle class="st3" cx="483.3" cy="378.7" r="2.9"/>
			<circle class="st3" cx="492.2" cy="378.7" r="2.9"/>
		</g>
		<g class="st8">
			<circle class="st3" cx="496.2" cy="356.1" r="2.9"/>
			<circle class="st3" cx="505.1" cy="356.1" r="2.9"/>
			<circle class="st3" cx="513.9" cy="356.1" r="2.9"/>
			<circle class="st3" cx="522.8" cy="356.1" r="2.9"/>
			<circle class="st3" cx="496.2" cy="371.2" r="2.9"/>
			<circle class="st3" cx="500.6" cy="378.8" r="2.9"/>
			<circle class="st3" cx="509.4" cy="378.8" r="2.9"/>
			<circle class="st3" cx="518.3" cy="378.8" r="2.9"/>
		</g>
	</g>
	<g style="display:none;clip-path:url(#SVGID_6_);">
		<g class="st8">
			<circle class="st3" cx="712.8" cy="49.9" r="2.9"/>
			<circle class="st3" cx="703.9" cy="49.9" r="2.9"/>
			<circle class="st3" cx="695.1" cy="49.9" r="2.9"/>
			<circle class="st3" cx="686.2" cy="49.9" r="2.9"/>
			<circle class="st3" cx="677.3" cy="49.9" r="2.9"/>
			<circle class="st3" cx="668.4" cy="49.9" r="2.9"/>
			<circle class="st3" cx="659.5" cy="49.9" r="2.9"/>
			<circle class="st3" cx="712.8" cy="35.4" r="2.9"/>
			<circle class="st3" cx="703.9" cy="35.4" r="2.9"/>
			<circle class="st3" cx="695.1" cy="35.4" r="2.9"/>
			<circle class="st3" cx="686.2" cy="35.4" r="2.9"/>
			<circle class="st3" cx="677.3" cy="35.4" r="2.9"/>
			<circle class="st3" cx="668.4" cy="35.4" r="2.9"/>
			<circle class="st3" cx="659.5" cy="35.4" r="2.9"/>
			<circle class="st3" cx="708.3" cy="42.4" r="2.9"/>
			<circle class="st3" cx="699.4" cy="42.4" r="2.9"/>
			<circle class="st3" cx="690.6" cy="42.4" r="2.9"/>
			<circle class="st3" cx="681.7" cy="42.4" r="2.9"/>
			<circle class="st3" cx="672.8" cy="42.4" r="2.9"/>
			<circle class="st3" cx="663.9" cy="42.4" r="2.9"/>
			<circle class="st3" cx="655.1" cy="42.4" r="2.9"/>
			<circle class="st3" cx="646.2" cy="42.4" r="2.9"/>
			<circle class="st3" cx="637.3" cy="42.4" r="2.9"/>
			<circle class="st3" cx="699.4" cy="27.3" r="2.9"/>
			<circle class="st3" cx="690.6" cy="27.3" r="2.9"/>
			<circle class="st3" cx="681.7" cy="27.3" r="2.9"/>
			<circle class="st3" cx="672.8" cy="27.3" r="2.9"/>
			<circle class="st3" cx="663.9" cy="27.3" r="2.9"/>
			<circle class="st3" cx="655.1" cy="27.3" r="2.9"/>
			<circle class="st3" cx="646.2" cy="27.3" r="2.9"/>
			<circle class="st3" cx="637.3" cy="27.3" r="2.9"/>
			<circle class="st3" cx="628.4" cy="27.3" r="2.9"/>
			<circle class="st3" cx="721.7" cy="19.7" r="2.9"/>
			<circle class="st3" cx="712.8" cy="19.7" r="2.9"/>
			<circle class="st3" cx="703.9" cy="19.7" r="2.9"/>
			<circle class="st3" cx="695.1" cy="19.7" r="2.9"/>
			<circle class="st3" cx="686.2" cy="19.7" r="2.9"/>
			<circle class="st3" cx="677.3" cy="19.7" r="2.9"/>
			<circle class="st3" cx="668.4" cy="19.7" r="2.9"/>
			<circle class="st3" cx="659.5" cy="19.7" r="2.9"/>
			<circle class="st3" cx="650.7" cy="19.7" r="2.9"/>
			<circle class="st3" cx="650.7" cy="35.4" r="2.9"/>
			<circle class="st3" cx="743.8" cy="12.1" r="2.9"/>
			<circle class="st3" cx="734.9" cy="12.1" r="2.9"/>
			<circle class="st3" cx="726.1" cy="12.1" r="2.9"/>
			<circle class="st3" cx="717.2" cy="12.1" r="2.9"/>
			<circle class="st3" cx="708.3" cy="12.1" r="2.9"/>
			<circle class="st3" cx="699.4" cy="12.1" r="2.9"/>
			<circle class="st3" cx="690.6" cy="12.1" r="2.9"/>
			<circle class="st3" cx="681.7" cy="12.1" r="2.9"/>
			<circle class="st3" cx="672.8" cy="12.1" r="2.9"/>
			<circle class="st3" cx="663.9" cy="12.1" r="2.9"/>
			<circle class="st3" cx="655.1" cy="12.1" r="2.9"/>
			<circle class="st3" cx="646.2" cy="12.1" r="2.9"/>
			<circle class="st3" cx="637.3" cy="12.1" r="2.9"/>
			<circle class="st3" cx="628.4" cy="12.1" r="2.9"/>
			<circle class="st3" cx="739.4" cy="4.6" r="2.9"/>
			<circle class="st3" cx="730.6" cy="4.6" r="2.9"/>
			<circle class="st3" cx="721.7" cy="4.6" r="2.9"/>
			<circle class="st3" cx="712.8" cy="4.6" r="2.9"/>
			<circle class="st3" cx="703.9" cy="4.6" r="2.9"/>
			<circle class="st3" cx="695.1" cy="4.6" r="2.9"/>
		</g>
		<g class="st8">
			<circle class="st3" cx="641.8" cy="35.4" r="2.9"/>
			<circle class="st3" cx="632.9" cy="35.4" r="2.9"/>
			<circle class="st3" cx="624" cy="35.4" r="2.9"/>
			<circle class="st3" cx="620" cy="12.1" r="2.9"/>
			<circle class="st3" cx="611.2" cy="12.1" r="2.9"/>
		</g>
	</g>
</g>
<g>
	<g>
		<path class="st40" d="M222.6,101h22.2v49.6h28.5v16.9h-50.7V101z"/>
		<path class="st40" d="M281,101h22.2v66.6H281V101z"/>
		<path class="st40" d="M310.3,101H329l21.9,30.7V101h22.2v66.6h-18.9L332.6,137v30.6h-22.2V101z"/>
		<path class="st40" d="M395.9,165.5c-4.9-2.1-8.7-5.1-11.4-9.2c-2.8-4.1-4.1-9-4.1-14.7V101h22.2v38c0,7.2,3.4,10.7,10.1,10.7    c6.8,0,10.1-3.6,10.1-10.7v-38H445v40.6c0,5.7-1.4,10.6-4.1,14.7c-2.8,4.1-6.6,7.1-11.4,9.2c-4.9,2.1-10.5,3.1-16.8,3.1    C406.4,168.6,400.8,167.6,395.9,165.5z"/>
		<path class="st40" d="M472.8,133.9L449.1,101h23.1l12.2,17.5l12.3-17.5h23.1l-23.7,32.9l24.6,33.7h-23.5l-12.9-18.1l-12.8,18.1    h-23.5L472.8,133.9z"/>
		<path class="st40" d="M587,101h23.3l25.6,66.6h-23.1l-5.2-13.2h-17.9l-5.1,13.2h-23.1L587,101z M604.9,138.8l-6.3-16.1l-6.2,16.1    H604.9z"/>
		<path class="st40" d="M640.7,101h35.9c5.4,0,9.9,1.1,13.6,3.4c3.7,2.2,6.4,5.3,8.3,9c1.8,3.8,2.7,8.1,2.7,12.8c0,4.8-1,9-3.1,12.8    c-2.1,3.8-5,6.8-8.8,8.9c-3.8,2.2-8.2,3.3-13.1,3.3H663v16.3h-22.2V101z M671,134c2.4,0,4.3-0.7,5.6-2.1c1.3-1.4,2-3.3,2-5.7    c0-2.5-0.6-4.5-1.8-5.9c-1.2-1.4-3-2.1-5.4-2.1H663V134H671z"/>
		<path class="st40" d="M705,101h35.9c5.4,0,9.9,1.1,13.6,3.4c3.7,2.2,6.4,5.3,8.3,9c1.8,3.8,2.7,8.1,2.7,12.8c0,4.8-1,9-3.1,12.8    c-2.1,3.8-5,6.8-8.8,8.9c-3.8,2.2-8.2,3.3-13.1,3.3h-13.2v16.3H705V101z M735.3,134c2.4,0,4.3-0.7,5.6-2.1c1.3-1.4,2-3.3,2-5.7    c0-2.5-0.6-4.5-1.8-5.9c-1.2-1.4-3-2.1-5.4-2.1h-8.5V134H735.3z"/>
		<path class="st40" d="M316.5,264c-4.2-0.8-7.7-1.8-10.6-3.2v-17.4c3.2,1.5,6.8,2.8,10.7,3.7c3.9,1,7.5,1.4,10.6,1.4    c2.9,0,5-0.3,6.5-0.9c1.4-0.6,2.1-1.6,2.1-3c0-1.3-0.7-2.3-2-3c-1.3-0.7-3.8-1.7-7.3-2.8c-1-0.3-2.3-0.7-3.9-1.2    c-4.5-1.5-8-3.2-10.4-4.9s-4.3-3.9-5.4-6.4c-1.1-2.5-1.7-5.6-1.7-9.3c0-13.6,9.5-20.5,28.4-20.5c3.4,0,7.1,0.3,11.2,0.9    c4.1,0.6,7.5,1.3,10.2,2.2v17.5c-6.4-2.5-12.3-3.8-17.7-3.8c-3,0-5.3,0.2-7,0.7c-1.7,0.5-2.5,1.4-2.5,2.8c0,0.9,0.4,1.6,1.1,2.2    c0.7,0.6,1.8,1,3.1,1.4c1.3,0.4,3.7,1.1,7.1,2c5.3,1.4,9.4,3.2,12.2,5.3c2.8,2.1,4.8,4.4,5.8,7.1c1,2.7,1.5,6,1.5,9.8    c0,6.3-2.5,11.4-7.4,15c-4.9,3.7-12.1,5.5-21.5,5.5C325.1,265.1,320.7,264.7,316.5,264z"/>
		<path class="st40" d="M378.4,262c-4.9-2.1-8.7-5.1-11.4-9.2c-2.8-4.1-4.1-9-4.1-14.7v-40.6H385v38c0,7.2,3.4,10.7,10.1,10.7    s10.1-3.6,10.1-10.7v-38h22.2v40.6c0,5.7-1.4,10.6-4.1,14.7c-2.8,4.1-6.6,7.1-11.4,9.2c-4.9,2.1-10.5,3.1-16.8,3.1    C388.8,265.1,383.2,264.1,378.4,262z"/>
		<path class="st40" d="M434.6,197.5h21.3l15.1,30.7l14.9-30.7h21.3v66.6H485v-28.3l-8.3,16.9h-11.6l-8.3-16.9v28.3h-22.2V197.5z"/>
		<path class="st40" d="M514.4,197.5h21.3l15.1,30.7l14.9-30.7H587v66.6h-22.2v-28.3l-8.3,16.9h-11.6l-8.3-16.9v28.3h-22.2V197.5z"/>
		<path class="st40" d="M594.6,197.5h22.2v66.6h-22.2V197.5z"/>
		<path class="st40" d="M640.7,213.8h-17.8v-16.2h57.9v16.2h-17.9v50.3h-22.2V213.8z"/>
	</g>
</g>
<g>
	<path class="st14" d="M405.5,319.7l-4.1-13.4h-0.1c0.1,2.7,0.2,4.6,0.2,5.5v8h-3.2v-17.1h4.9l4.1,13.1h0.1l4.3-13.1h4.9v17.1h-3.4   v-8.1c0-0.4,0-0.8,0-1.3s0.1-1.8,0.2-4h-0.1l-4.4,13.4H405.5z"/>
	<path class="st14" d="M428.9,319.7l-0.7-1.8h-0.1c-0.6,0.8-1.2,1.3-1.9,1.6s-1.5,0.4-2.5,0.4c-1.3,0-2.2-0.4-3-1.1   s-1.1-1.7-1.1-3.1c0-1.4,0.5-2.4,1.5-3.1s2.4-1,4.4-1.1l2.3-0.1v-0.6c0-1.3-0.7-2-2-2c-1,0-2.3,0.3-3.7,0.9l-1.2-2.4   c1.5-0.8,3.2-1.2,5-1.2c1.8,0,3.1,0.4,4,1.1s1.4,1.9,1.4,3.5v8.7H428.9z M427.8,313.6l-1.4,0c-1,0-1.8,0.2-2.3,0.6   s-0.8,0.9-0.8,1.6c0,1,0.6,1.5,1.7,1.5c0.8,0,1.5-0.2,2-0.7s0.7-1.1,0.7-1.9V313.6z"/>
	<path class="st14" d="M433.2,306.6h3.9l2.5,7.4c0.2,0.6,0.4,1.4,0.4,2.3h0.1c0.1-0.8,0.3-1.6,0.5-2.3l2.4-7.4h3.8l-5.5,14.8   c-0.5,1.4-1.2,2.4-2.2,3.1s-2,1-3.3,1c-0.6,0-1.2-0.1-1.8-0.2v-2.8c0.4,0.1,0.9,0.2,1.4,0.2c0.6,0,1.2-0.2,1.7-0.6s0.8-1,1.1-1.8   l0.2-0.6L433.2,306.6z"/>
	<path class="st14" d="M463,319.7h-3.6v-9.9l0-1.6l0.1-1.8c-0.6,0.6-1,1-1.3,1.2l-2,1.6l-1.7-2.2l5.5-4.4h3V319.7z"/>
	<path class="st14" d="M479.1,306.4c0,1.1-0.3,2-1,2.7s-1.6,1.3-2.7,1.5v0.1c1.4,0.2,2.4,0.6,3.1,1.3s1.1,1.6,1.1,2.7   c0,1.6-0.6,2.9-1.8,3.8s-2.9,1.4-5.1,1.4c-1.9,0-3.5-0.3-4.9-0.9v-3.1c0.7,0.3,1.4,0.6,2.2,0.8s1.6,0.3,2.4,0.3   c1.2,0,2.1-0.2,2.6-0.6s0.9-1.1,0.9-2c0-0.8-0.3-1.4-1-1.7s-1.7-0.5-3.1-0.5h-1.3v-2.8h1.3c1.3,0,2.3-0.2,2.9-0.5s0.9-0.9,0.9-1.8   c0-1.3-0.8-1.9-2.4-1.9c-0.6,0-1.1,0.1-1.7,0.3s-1.2,0.5-1.9,1l-1.7-2.5c1.6-1.1,3.4-1.7,5.6-1.7c1.8,0,3.2,0.4,4.2,1.1   S479.1,305.1,479.1,306.4z"/>
	<path class="st14" d="M481.4,314.6v-2.7h10.1v2.7H481.4z"/>
	<path class="st14" d="M502.4,319.7h-3.6v-9.9l0-1.6l0.1-1.8c-0.6,0.6-1,1-1.3,1.2l-2,1.6l-1.7-2.2l5.5-4.4h3V319.7z"/>
	<path class="st14" d="M513.4,308.7c1.7,0,3,0.5,4,1.4s1.5,2.2,1.5,3.8c0,1.9-0.6,3.4-1.8,4.4s-2.9,1.5-5.1,1.5   c-1.9,0-3.4-0.3-4.6-0.9v-3.1c0.6,0.3,1.3,0.6,2.2,0.8s1.6,0.3,2.3,0.3c2.2,0,3.3-0.9,3.3-2.7c0-1.7-1.1-2.6-3.4-2.6   c-0.4,0-0.9,0-1.4,0.1s-0.9,0.2-1.2,0.3l-1.4-0.8l0.6-8.7h9.3v3.1h-6.1l-0.3,3.4l0.4-0.1C512.1,308.8,512.7,308.7,513.4,308.7z"/>
	<path class="st14" d="M525.3,317.2c-0.4,1.6-1.1,3.4-2.1,5.6h-2.6c0.5-2.1,0.9-4,1.2-5.9h3.3L525.3,317.2z"/>
	<path class="st14" d="M546,319.7h-12v-2.5l4.3-4.3c1.3-1.3,2.1-2.2,2.5-2.7s0.7-1,0.8-1.4s0.3-0.9,0.3-1.3c0-0.7-0.2-1.2-0.6-1.5   s-0.9-0.5-1.5-0.5c-0.7,0-1.3,0.2-1.9,0.5s-1.3,0.7-2,1.3l-2-2.3c0.8-0.7,1.5-1.2,2.1-1.5s1.2-0.5,1.8-0.7s1.4-0.2,2.2-0.2   c1.1,0,2,0.2,2.8,0.6s1.5,0.9,1.9,1.6s0.7,1.5,0.7,2.4c0,0.8-0.1,1.5-0.4,2.2s-0.7,1.4-1.3,2.1s-1.6,1.8-3.1,3.1l-2.2,2.1v0.2h7.5   V319.7z"/>
	<path class="st14" d="M559.6,311.1c0,3-0.5,5.2-1.5,6.6s-2.5,2.2-4.5,2.2c-2,0-3.5-0.7-4.5-2.2s-1.5-3.7-1.5-6.6   c0-3,0.5-5.3,1.5-6.7s2.5-2.2,4.5-2.2c2,0,3.5,0.8,4.5,2.2S559.6,308.2,559.6,311.1z M551.2,311.1c0,2.1,0.2,3.6,0.5,4.5   s1,1.4,1.8,1.4c0.8,0,1.5-0.5,1.8-1.4s0.6-2.4,0.6-4.5c0-2.1-0.2-3.6-0.6-4.5s-1-1.4-1.8-1.4c-0.9,0-1.5,0.5-1.8,1.4   S551.2,309,551.2,311.1z"/>
	<path class="st14" d="M573.4,319.7h-12v-2.5l4.3-4.3c1.3-1.3,2.1-2.2,2.5-2.7s0.7-1,0.8-1.4s0.3-0.9,0.3-1.3c0-0.7-0.2-1.2-0.6-1.5   s-0.9-0.5-1.5-0.5c-0.7,0-1.3,0.2-1.9,0.5s-1.3,0.7-2,1.3l-2-2.3c0.8-0.7,1.5-1.2,2.1-1.5s1.2-0.5,1.8-0.7s1.4-0.2,2.2-0.2   c1.1,0,2,0.2,2.8,0.6s1.5,0.9,1.9,1.6s0.7,1.5,0.7,2.4c0,0.8-0.1,1.5-0.4,2.2s-0.7,1.4-1.3,2.1s-1.6,1.8-3.1,3.1l-2.2,2.1v0.2h7.5   V319.7z"/>
	<path class="st14" d="M584.1,319.7h-3.6v-9.9l0-1.6l0.1-1.8c-0.6,0.6-1,1-1.3,1.2l-2,1.6l-1.7-2.2l5.5-4.4h3V319.7z"/>
</g>
</svg>